ply
format ascii 1.0
element vertex 755
property float x
property float y
property float z
property uchar red
property uchar green
property uchar blue
end_header
0.09973447 0.14562389 -0.40191427 31 120 181
0.16701188 -0.58732946 -0.40050118 31 120 181
0.97624611 -0.98243166 -0.39834979 31 120 181
-0.75875424 -0.64790620 -0.40099498 31 120 181
0.13313700 -0.21142750 -0.39693997 31 120 181
-0.92550845 -0.88759605 -0.38719663 31 120 181
-0.16827460 0.62821347 -0.39512363 31 120 181
-0.55976429 -0.91234517 -0.40238612 31 120 181
-0.87813039 -0.66325362 -0.39555235 31 120 181
0.97076928 -0.14081979 -0.40301327 31 120 181
0.64714918 -0.36648827 -0.40180570 31 120 181
-0.53230802 -0.66900215 -0.39849805 31 120 181
-0.65247851 -0.97660137 -0.39694808 31 120 181
0.01939445 0.53005280 -0.39535113 31 120 181
-0.32202568 -0.04095840 -0.39551461 31 120 181
0.93081703 0.47614891 -0.40720040 31 120 181
-0.95671440 -0.08667181 -0.39731870 31 120 181
-0.73334424 0.27140836 -0.38757540 31 120 181
-0.17831248 -0.24745315 -0.39218338 31 120 181
0.65538127 0.88451135 -0.40615309 31 120 181
-0.45933751 0.41326161 -0.39695549 31 120 181
0.13963619 0.23876136 -0.40048834 31 120 181
0.48442772 -0.27224484 -0.40173123 31 120 181
-0.69377167 0.43758524 -0.38946766 31 120 181
-0.96665116 -0.20602558 -0.39550973 31 120 181
-0.04964757 -0.90505399 -0.39695118 31 120 181
-0.28055216 0.81708264 -0.39914676 31 120 181
0.06944702 0.02388229 -0.40299278 31 120 181
-0.45096875 -0.85456810 -0.40874669 31 120 181
-0.16079772 0.04110353 -0.39577616 31 120 181
-0.87270331 -0.08463453 -0.38952871 31 120 181
0.76628777 -0.23660672 -0.39572771 31 120 181
0.83507396 0.31522027 -0.39783831 31 120 181
-0.47577759 0.28102363 -0.39343369 31 120 181
0.72900849 0.48530040 -0.39663721 31 120 181
0.11028780 -0.09061000 -0.40579821 31 120 181
0.47314006 -0.98339173 -0.38232844 31 120 181
0.27367235 -0.37193085 -0.39979050 31 120 181
0.45453327 -0.43057268 -0.39840810 31 120 181
-0.88682209 0.74731506 -0.39809319 31 120 181
0.61742877 0.61720580 -0.39979129 31 120 181
0.51448646 -0.13699235 -0.40509338 31 120 181
-0.73669258 -0.50762776 -0.39925817 31 120 181
-0.94605223 0.89616684 -0.38948036 31 120 181
0.79786575 0.87605773 -0.39228362 31 120 181
0.13444156 -0.29297933 -0.39547916 31 120 181
-0.07712652 -0.38296023 -0.40248469 31 120 181
-0.27050543 0.77057547 -0.38946270 31 120 181
0.42605938 0.59753338 -0.39936440 31 120 181
0.36771454 -0.45213497 -0.39823817 31 120 181
-0.08498295 -0.38352535 -0.40052964 31 120 181
-0.52397797 0.32774586 -0.39237661 31 120 181
0.29974765 -0.49988189 -0.40460973 31 120 181
-0.37654852 0.74737998 -0.38511802 31 120 181
0.84655251 -0.30518183 -0.39629601 31 120 181
0.52302748 0.16070748 -0.40204907 31 120 181
0.41145614 0.54296444 -0.39577430 31 120 181
0.61009579 -0.61428711 -0.39350331 31 120 181
-0.19475145 -0.35823579 -0.39904484 31 120 181
-0.49929812 -0.42644441 -0.39098888 31 120 181
0.97310808 -0.36400224 -0.41154280 31 120 181
-0.63305360 0.43746931 -0.40795303 31 120 181
-0.87590591 -0.36276568 -0.39572301 31 120 181
-0.11277729 -0.60454110 -0.39371501 31 120 181
-0.79793551 -0.18023511 -0.40047897 31 120 181
-0.90898498 0.96543375 -0.40304010 31 120 181
-0.03455877 0.66467395 -0.39454482 31 120 181
-0.65564383 0.43254484 -0.40992033 31 120 181
-0.07649744 -0.12970411 -0.41484053 31 120 181
-0.46367694 -0.30871602 -0.39498522 31 120 181
0.63619035 -0.02345763 -0.39519790 31 120 181
0.56994372 0.73145209 -0.39899208 31 120 181
0.84434665 0.88282575 -0.39997178 31 120 181
-0.61230418 0.51989604 -0.40264870 31 120 181
0.14664915 0.60595215 -0.39355105 31 120 181
0.21490329 0.91904557 -0.38988431 31 120 181
-0.98433485 -0.56100531 -0.39201387 31 120 181
-0.10924299 0.21250262 -0.39090035 31 120 181
0.61189286 -0.57658417 -0.40685774 31 120 181
-0.56834004 0.33189598 -0.40131473 31 120 181
0.80920793 0.37325776 -0.40284863 31 120 181
-0.62895916 0.42193779 -0.39705965 31 120 181
-0.64345037 -0.04838254 -0.40282999 31 120 181
0.13654608 -0.86767272 -0.39929789 31 120 181
-0.83446162 0.30940402 -0.40220200 31 120 181
-0.16697487 0.42025276 -0.38677265 31 120 181
0.95182461 0.36630528 -0.39682856 31 120 181
0.98112980 0.86661348 -0.40405822 31 120 181
0.92013898 0.98963608 -0.39875126 31 120 181
-0.25412030 0.73527855 -0.39566583 31 120 181
0.78336584 -0.90391075 -0.40211128 31 120 181
0.10513364 0.35423398 -0.40271471 31 120 181
-0.39843130 0.79030316 -0.39769540 31 120 181
0.71571061 0.76964608 -0.40280022 31 120 181
-0.69837512 0.83186876 -0.40051319 31 120 181
-0.88001892 -0.71084557 -0.40590084 31 120 181
0.01799737 -0.86134285 -0.39049132 31 120 181
-0.91422240 1.00128263 -0.40030150 31 120 181
-0.70309444 0.86048272 -0.40709330 31 120 181
0.08594666 0.65177057 -0.40059893 31 120 181
0.41262662 -0.69837181 -0.40030056 31 120 181
0.20860782 -0.12298809 -0.39829777 31 120 181
-0.01280786 -0.94625169 -0.39008118 31 120 181
0.53070695 -0.41175210 -0.39946753 31 120 181
0.76238261 -0.48599239 -0.39865809 31 120 181
-0.83126423 -0.06136054 -0.40755895 31 120 181
0.89178279 0.64765482 -0.39849890 31 120 181
-0.56549992 0.57464595 -0.40106201 31 120 181
-0.79251616 0.25020745 -0.39108555 31 120 181
-0.53751805 -0.95203077 -0.39777891 31 120 181
-0.14660383 -0.68434793 -0.39784550 31 120 181
-0.35800062 -0.75942415 -0.39491796 31 120 181
-0.85330122 0.69160756 -0.40041562 31 120 181
-0.80906516 -0.50728371 -0.41025206 31 120 181
-0.99050147 0.11408029 -0.40286317 31 120 181
0.51938874 0.98657909 -0.39906027 31 120 181
0.66946172 0.70445448 -0.40045352 31 120 181
-0.86569385 0.01612245 -0.40091018 31 120 181
-0.11442394 0.04550849 -0.39969329 31 120 181
-0.02018871 -0.01382841 -0.39408147 31 120 181
-0.82842621 0.27302928 -0.39876712 31 120 181
0.73837042 -0.02660731 -0.39615198 31 120 181
-0.31553613 -0.21098417 -0.40068614 31 120 181
-0.33058350 -0.65256468 -0.41008314 31 120 181
-0.43439955 0.70262604 -0.39672810 31 120 181
0.20024134 0.68870875 -0.39780324 31 120 181
0.26337745 0.45564815 -0.40142076 31 120 181
-0.60538706 0.27047395 -0.39742711 31 120 181
0.77244575 -0.08012378 -0.39596634 31 120 181
0.76521148 0.29570649 -0.40089400 31 120 181
-0.04767275 -0.35948817 -0.40501001 31 120 181
-0.02640407 -0.70501045 -0.40469008 31 120 181
0.73361713 0.05803994 -0.40736824 31 120 181
-0.13333605 0.58879786 -0.41203293 31 120 181
-0.97541567 -0.53098548 -0.39580305 31 120 181
0.30602324 0.64126869 -0.39799264 31 120 181
-0.49411033 -0.10667558 -0.39913368 31 120 181
-0.06202978 -0.48610797 -0.39824938 31 120 181
0.60344619 0.51538115 -0.38900525 31 120 181
-0.61722438 0.17690723 -0.40249017 31 120 181
-0.51957301 0.10511783 -0.39037299 31 120 181
0.85833687 0.25277805 -0.40462363 31 120 181
-0.26488822 -0.53205422 -0.40545781 31 120 181
-0.03349041 0.30313102 -0.40412194 31 120 181
0.10463581 0.14186662 -0.39833753 31 120 181
-0.34170308 -0.59654759 -0.39798303 31 120 181
0.25575037 -0.54449753 -0.40290881 31 120 181
-0.98474907 -0.20633948 -0.39700047 31 120 181
-0.89851188 0.93408678 -0.39530234 31 120 181
0.80247272 0.66412080 -0.39548114 31 120 181
-0.26340549 0.61122462 -0.40540557 31 120 181
-0.40225715 -0.37835833 -0.39665344 31 120 181
-0.47371093 -0.46557343 -0.41113621 31 120 181
0.70365021 0.52731892 -0.41280164 31 120 181
0.03813770 0.08099580 -0.40344930 31 120 181
-0.83915172 -0.22300031 -0.39843169 31 120 181
0.18793304 -0.68821651 -0.40337976 31 120 181
0.52662500 -0.83488288 -0.39800004 31 120 181
-0.51468561 -0.70602012 -0.40551082 31 120 181
0.78045418 0.60821106 -0.39979674 31 120 181
-0.59637960 -0.40067713 -0.41028073 31 120 181
-0.92237469 -0.90864678 -0.40638978 31 120 181
-0.21278510 -0.35588729 -0.39663978 31 120 181
-0.57501410 -0.70743813 -0.39625382 31 120 181
0.92094217 0.30874760 -0.40237116 31 120 181
0.82019406 -0.60016554 -0.40124879 31 120 181
0.51352034 0.82377177 -0.39103059 31 120 181
-0.13210353 0.32112751 -0.40035078 31 120 181
-0.96406367 0.07620084 -0.40320648 31 120 181
0.55516584 -0.18279314 -0.40807688 31 120 181
-0.45608571 0.35349464 -0.40210244 31 120 181
-0.03648618 -0.76873313 -0.40433571 31 120 181
-0.88438784 0.45962784 -0.40356579 31 120 181
-0.18958222 -0.05958106 -0.39918859 31 120 181
0.39982715 -0.52971761 -0.40310216 31 120 181
-0.64486859 -0.18084359 -0.40344360 31 120 181
0.08766290 -0.64421577 -0.38860468 31 120 181
0.43457058 -0.30555590 -0.39560537 31 120 181
-0.37897938 -0.11822950 -0.39946989 31 120 181
-0.46600045 0.29680932 -0.40311552 31 120 181
-0.25841074 -0.79094376 -0.40122714 31 120 181
0.48786785 0.00876021 -0.39232056 31 120 181
-0.13379818 0.43692805 -0.40339349 31 120 181
0.29759061 -0.61215042 -0.40388465 31 120 181
-0.24140040 0.52196667 -0.39434013 31 120 181
-0.25430442 -0.36121492 -0.40315659 31 120 181
0.66306301 0.19647138 -0.39593703 31 120 181
-0.47703358 -0.79393810 -0.39842029 31 120 181
-0.90887744 0.77978906 -0.40234365 31 120 181
0.62053262 0.97061298 -0.39885378 31 120 181
-0.05118515 0.73064281 -0.40059248 31 120 181
-0.87076296 -0.99953602 -0.40651603 31 120 181
0.03147414 0.17671598 -0.40788194 31 120 181
0.91635329 -0.47729304 -0.40000225 31 120 181
0.23514270 -0.72020416 -0.39991835 31 120 181
0.98890490 0.12885673 -0.39861022 31 120 181
0.60360804 -0.24843344 -0.39833341 31 120 181
-0.92642161 0.43807375 -0.38818268 31 120 181
0.43993828 -0.97283212 -0.39722421 31 120 181
0.28388266 -0.55063190 -0.39719401 31 120 181
0.29020885 -0.73145654 -0.39647130 31 120 181
-0.49376026 -0.81347953 -0.39985468 31 120 181
-0.48445092 0.46348018 -0.39513045 31 120 181
-0.59247162 0.12083600 -0.39487399 31 120 181
-0.17516066 -0.87946427 -0.40356579 31 120 181
0.49261968 -0.95069172 -0.40035549 31 120 181
-0.75347563 0.51361673 -0.39979307 31 120 181
-0.96968008 0.10348739 -0.39931959 31 120 181
0.64268974 -0.99024773 -0.40486945 31 120 181
-0.33034412 0.02512187 -0.40619658 31 120 181
-0.94071065 -0.16966419 -0.38688754 31 120 181
0.02052216 0.61824011 -0.40805945 31 120 181
-0.11218516 -0.35441950 -0.40712213 31 120 181
0.95313421 0.10428958 -0.41068392 31 120 181
0.78272422 -0.46248630 -0.39753285 31 120 181
-0.20529141 -0.75295563 -0.40725845 31 120 181
-0.77091138 0.33906615 -0.39814594 31 120 181
0.14508620 0.68944659 -0.40078535 31 120 181
0.29988584 0.41832009 -0.40555841 31 120 181
-0.89612108 0.83619426 -0.40747709 31 120 181
-0.24240695 0.37072465 -0.40241523 31 120 181
-0.42340376 -0.50785531 -0.40951487 31 120 181
0.77210391 0.09515076 -0.40330062 31 120 181
0.02832712 0.21152155 -0.40236941 31 120 181
0.31101729 0.14997786 -0.40252650 31 120 181
0.23650175 0.34123062 -0.39827223 31 120 181
-0.67901162 0.23942204 -0.40469239 31 120 181
-0.74019863 -0.43302007 -0.40165197 31 120 181
-0.59100566 0.97466063 -0.39572932 31 120 181
-0.89674949 0.66842946 -0.39795623 31 120 181
0.76019622 -0.55624605 -0.39032381 31 120 181
0.92542626 0.94212868 -0.40061928 31 120 181
0.45433775 -0.71244181 -0.39074948 31 120 181
-0.67496477 -0.98618934 -0.40539770 31 120 181
0.49711923 -0.39287289 -0.40280595 31 120 181
0.43264588 0.88729295 -0.40048287 31 120 181
0.20548094 0.92501447 -0.39086039 31 120 181
0.53932234 -0.60777435 -0.40314955 31 120 181
0.77300601 0.34257215 -0.40051407 31 120 181
0.47389882 0.94644497 -0.40349069 31 120 181
0.79625038 0.59243662 -0.40170276 31 120 181
-0.67894736 -0.89664620 -0.39892213 31 120 181
0.69317029 0.22144913 -0.40792675 31 120 181
0.37196366 -0.53469067 -0.40731798 31 120 181
-0.91302872 -0.68467358 -0.39073246 31 120 181
-0.37860330 -0.24417387 -0.40088430 31 120 181
0.37551970 0.26594289 -0.40667524 31 120 181
-0.66039055 0.69960644 -0.39402927 31 120 181
0.48968916 -0.81196195 -0.40148341 31 120 181
0.78415395 0.75685656 -0.38553681 31 120 181
1.77548261 0.34450574 0.35046851 255 128 13
1.70482950 0.32458865 0.47630503 255 128 13
1.83554341 -0.07347351 0.74850080 255 128 13
1.90608476 0.08809033 0.72213230 255 128 13
1.73234758 -0.05657695 0.73373872 255 128 13
1.75605157 -0.30455560 0.21452647 255 128 13
1.92632256 0.31606182 0.47791433 255 128 13
2.11626007 0.11457001 0.34938504 255 128 13
1.74478418 0.28398777 0.20654720 255 128 13
1.70924212 -0.14574599 0.09253625 255 128 13
1.56131763 -0.09828229 0.16676989 255 128 13
1.99950838 0.26667950 0.30468050 255 128 13
1.62197725 0.07899265 0.10429835 255 128 13
1.68749444 -0.21837619 0.17382488 255 128 13
1.66818724 0.07253994 0.07865072 255 128 13
1.57427620 -0.24690723 0.48123854 255 128 13
2.14206249 -0.07014027 0.39558242 255 128 13
1.68090845 -0.26812226 0.22548887 255 128 13
1.53001275 0.21794324 0.41166602 255 128 13
1.92848503 0.31626736 0.35120903 255 128 13
1.60966845 0.26583710 0.51516534 255 128 13
1.62018613 -0.01678190 0.70150943 255 128 13
2.06226197 -0.22579258 0.29057575 255 128 13
1.85461951 -0.33280089 0.49641881 255 128 13
1.67656417 0.27163877 0.20050735 255 128 13
1.95214037 -0.07150820 0.70522825 255 128 13
1.46816119 0.05912798 0.47872223 255 128 13
1.70471776 -0.23475230 0.15873425 255 128 13
2.03577641 0.18406110 0.24078881 255 128 13
2.00723671 0.15557059 0.15723755 255 128 13
1.87070367 0.25801414 0.17712435 255 128 13
2.03295754 -0.20734852 0.26941494 255 128 13
1.68020444 -0.24490243 0.62358539 255 128 13
2.00457281 -0.28396342 0.36010753 255 128 13
1.61593236 -0.24499238 0.25158362 255 128 13
1.51999936 0.19011056 0.34540488 255 128 13
1.49627796 -0.02759618 0.23619525 255 128 13
1.53868485 -0.17119851 0.55876843 255 128 13
1.90329544 -0.13763851 0.09164873 255 128 13
1.50009411 0.11685686 0.25214379 255 128 13
2.05706213 -0.19378704 0.27749864 255 128 13
1.58769836 -0.17600908 0.17348931 255 128 13
1.94956224 -0.27439133 0.56245861 255 128 13
1.52787714 -0.00047893 0.16522447 255 128 13
1.68258490 -0.30030637 0.26753987 255 128 13
1.71249497 0.13473027 0.09301262 255 128 13
1.50550799 -0.03340304 0.58242062 255 128 13
1.87082037 0.33725121 0.31388100 255 128 13
2.06531569 0.19760145 0.49906603 255 128 13
2.07802067 0.06402828 0.20078084 255 128 13
1.76671519 -0.09859429 0.06464193 255 128 13
1.48796273 0.08983848 0.27232189 255 128 13
2.02476114 -0.16661963 0.60384851 255 128 13
1.92899974 -0.21878467 0.62705542 255 128 13
1.54024116 0.21885940 0.30301792 255 128 13
2.04231310 -0.04649622 0.65250411 255 128 13
1.66047589 -0.07980632 0.08817113 255 128 13
1.83359953 -0.34678597 0.43121063 255 128 13
1.53776340 0.16663562 0.22876695 255 128 13
1.91113104 0.31965952 0.36691418 255 128 13
1.93853509 0.24578264 0.20093245 255 128 13
1.89286409 0.19844020 0.66685467 255 128 13
1.54399227 -0.19353604 0.26387770 255 128 13
1.92332776 0.09254640 0.72278625 255 128 13
2.01778795 0.03806557 0.14354172 255 128 13
1.97167014 -0.30787732 0.35606649 255 128 13
2.08100816 0.20065377 0.35421173 255 128 13
1.50750684 0.09444378 0.53820685 255 128 13
1.46542021 0.01708283 0.29246301 255 128 13
1.54278395 -0.24634533 0.39835707 255 128 13
1.61706476 -0.00017532 0.10688024 255 128 13
2.09708072 -0.12817918 0.26891780 255 128 13
1.80612757 -0.31258131 0.55832876 255 128 13
1.60758295 -0.09528150 0.12791043 255 128 13
1.53728442 -0.23741759 0.37403650 255 128 13
1.49870637 -0.01142826 0.21892576 255 128 13
2.05365171 -0.06074723 0.16117594 255 128 13
1.84395165 0.23135626 0.12820133 255 128 13
1.69311160 -0.24145708 0.62877394 255 128 13
1.49533499 -0.10322557 0.52173803 255 128 13
2.12791843 0.09307079 0.30445947 255 128 13
1.69760746 0.33211482 0.33093844 255 128 13
2.07573461 -0.13581159 0.56952451 255 128 13
1.87147634 -0.34230980 0.47240086 255 128 13
1.99116587 0.02344218 0.69217138 255 128 13
1.74016180 0.19682404 0.69058888 255 128 13
2.15194858 0.02559314 0.39222822 255 128 13
1.95623569 -0.28974561 0.51098727 255 128 13
2.05957232 0.22150728 0.43007693 255 128 13
2.10188823 0.11519605 0.26345166 255 128 13
2.15416828 -0.03018214 0.35425723 255 128 13
1.50414185 0.10044865 0.53918564 255 128 13
1.65745491 0.31269412 0.43462310 255 128 13
2.11771717 0.10882500 0.50012025 255 128 13
1.53263928 0.22786730 0.39027674 255 128 13
1.70212374 0.10605927 0.71729161 255 128 13
1.50725475 -0.04063151 0.59848700 255 128 13
2.03766736 0.01716410 0.15769100 255 128 13
1.95022871 0.21832107 0.61646457 255 128 13
1.84526681 0.17827392 0.69261951 255 128 13
1.54629392 0.09511570 0.62013480 255 128 13
1.68918682 0.30048124 0.29664023 255 128 13
1.54263591 -0.22626099 0.30937477 255 128 13
1.72971697 0.27986070 0.22557147 255 128 13
1.92529400 -0.08764732 0.08971423 255 128 13
2.14757016 -0.07578236 0.38143743 255 128 13
2.02783536 0.08857120 0.65186234 255 128 13
1.88579823 0.28866740 0.58429904 255 128 13
1.50072348 -0.12995210 0.51109214 255 128 13
1.83092923 -0.24620252 0.64468512 255 128 13
2.11127456 0.13768459 0.51445919 255 128 13
1.90212095 0.25723519 0.20728492 255 128 13
1.53150970 0.08771356 0.61202727 255 128 13
1.63406958 -0.28873464 0.31365060 255 128 13
1.97838931 -0.12213533 0.66624210 255 128 13
2.01445111 -0.23611441 0.27009496 255 128 13
1.86043152 -0.19055970 0.11894990 255 128 13
2.09938123 0.10448827 0.54807998 255 128 13
2.00859393 -0.03534180 0.13084165 255 128 13
1.61640848 -0.15938817 0.65697323 255 128 13
2.10321061 0.16880693 0.33022291 255 128 13
1.79478619 0.27702287 0.59807671 255 128 13
1.68390478 -0.11693951 0.08427629 255 128 13
1.53153410 0.23052081 0.43286936 255 128 13
1.49982175 0.10770512 0.52442915 255 128 13
1.87557316 -0.22148451 0.14695120 255 128 13
1.94170691 -0.30141952 0.47266741 255 128 13
1.56588941 -0.06905926 0.15521940 255 128 13
1.88629805 -0.31295377 0.26466256 255 128 13
1.52010724 0.18646317 0.30693053 255 128 13
2.14072473 -0.05342555 0.48464257 255 128 13
1.60633480 -0.14529009 0.12993509 255 128 13
2.07045229 -0.06040369 0.18715025 255 128 13
2.09635437 0.07657979 0.60485739 255 128 13
2.03617826 -0.21552745 0.54606508 255 128 13
1.47881806 -0.11866404 0.37006620 255 128 13
1.71959127 -0.31305132 0.24603426 255 128 13
1.92217280 0.30401708 0.53650682 255 128 13
1.47420610 -0.10642471 0.37695639 255 128 13
1.71971386 0.30369030 0.27086384 255 128 13
1.98515730 0.14844876 0.65514484 255 128 13
2.07601005 0.01123215 0.19322659 255 128 13
2.03974149 -0.15861748 0.61420282 255 128 13
1.63377442 -0.29713864 0.47956227 255 128 13
1.89656436 0.32795988 0.50623771 255 128 13
1.77314422 0.33119709 0.53019197 255 128 13
1.49700864 0.05985069 0.57383957 255 128 13
1.89775049 -0.20885128 0.65692790 255 128 13
1.94157964 0.12851106 0.70905549 255 128 13
2.09133082 -0.04623233 0.23931055 255 128 13
2.04501390 -0.07948654 0.16529971 255 128 13
1.81302366 0.20881959 0.67794005 255 128 13
1.61523449 -0.22761062 0.19105054 255 128 13
1.61048434 0.22746349 0.21300028 255 128 13
1.70890351 -0.26180326 0.61480741 255 128 13
1.89817066 0.06739811 0.72634552 255 128 13
1.55058856 0.04097786 0.62929046 255 128 13
1.50138509 -0.18272837 0.41975675 255 128 13
1.56931480 -0.23318553 0.31513996 255 128 13
1.78074394 -0.07094513 0.74575681 255 128 13
2.04501815 -0.17846008 0.56670400 255 128 13
1.81094462 0.34588877 0.48561767 255 128 13
1.84159782 0.05849756 0.05234360 255 128 13
1.59356167 0.17960918 0.18296209 255 128 13
1.72709327 -0.03644533 0.06313541 255 128 13
1.99477268 -0.05449208 0.68106245 255 128 13
1.72432463 -0.28659068 0.21001268 255 128 13
1.78034083 -0.26021319 0.18373857 255 128 13
2.14527273 -0.07678781 0.45473095 255 128 13
1.76628795 0.28178948 0.20158761 255 128 13
1.78374775 0.33404796 0.43441433 255 128 13
1.66553571 0.07397198 0.72300740 255 128 13
1.72588346 0.23693045 0.64481290 255 128 13
1.62500770 -0.24254389 0.23529647 255 128 13
1.98091140 -0.06811803 0.69544710 255 128 13
1.99138147 0.29112558 0.32532497 255 128 13
1.44732878 -0.03187660 0.41663854 255 128 13
1.66191283 -0.30307509 0.28738741 255 128 13
1.79193898 0.00511085 0.74394102 255 128 13
2.06732015 -0.16809689 0.26599819 255 128 13
1.78412668 -0.30493599 0.57038629 255 128 13
2.05480673 -0.21053087 0.47901836 255 128 13
2.05491274 0.20842039 0.53381101 255 128 13
1.86813849 0.20837462 0.11527542 255 128 13
2.11179328 0.13879412 0.41880393 255 128 13
1.82237446 -0.02782917 0.74341517 255 128 13
2.14246934 -0.08434787 0.44393501 255 128 13
2.07726869 0.03569231 0.18775331 255 128 13
1.83266998 -0.15700349 0.09400116 255 128 13
1.74428833 -0.32877056 0.27868548 255 128 13
2.04082093 -0.16908948 0.57794451 255 128 13
1.78747283 0.10259305 0.07151111 255 128 13
1.77004613 -0.13475785 0.07959272 255 128 13
1.82389985 0.33150564 0.50907349 255 128 13
2.00115838 0.10323275 0.66313769 255 128 13
1.77990774 -0.35057186 0.34876845 255 128 13
2.12084425 0.08557681 0.49003138 255 128 13
1.70978999 -0.29703608 0.23186763 255 128 13
1.73969940 0.30448454 0.23086289 255 128 13
1.43850012 0.03225491 0.38786916 255 128 13
2.02639784 -0.18884147 0.21193490 255 128 13
1.82158093 0.34779574 0.36623580 255 128 13
1.54418555 0.05355766 0.14403309 255 128 13
1.69017463 0.15078112 0.69718995 255 128 13
1.93165165 0.30905283 0.50694970 255 128 13
1.60295974 0.03503456 0.11326788 255 128 13
1.92231254 0.25359511 0.18386843 255 128 13
1.87870415 -0.25043963 0.64394267 255 128 13
1.54639090 -0.22509554 0.30414384 255 128 13
1.72906803 0.28891832 0.23332875 255 128 13
1.90415175 -0.02409188 0.05724495 255 128 13
1.61315724 0.26749341 0.51447098 255 128 13
1.63710967 -0.30427864 0.44875799 255 128 13
1.77748493 -0.25903465 0.64626069 255 128 13
1.76863370 0.26448427 0.17244412 255 128 13
2.09960741 0.02424078 0.56871755 255 128 13
1.99751938 -0.16676572 0.62437982 255 128 13
2.05993360 -0.07207874 0.63039783 255 128 13
1.94806674 0.26813528 0.57282430 255 128 13
1.99550300 0.28284573 0.37167571 255 128 13
-1.37138622 0.26667404 1.00063160 51 51 51
-1.75921096 0.49836843 -0.41313875 31 120 181
-1.64041942 -0.47431797 0.02304537 51 51 51
-2.23012726 -0.25620103 0.62502126 51 51 51
-1.38409410 0.27127940 0.68134564 51 51 51
-2.25017525 0.19564197 0.09390862 51 51 51
-2.29206144 0.06543944 0.46996873 51 51 51
-1.53316579 0.42107880 0.53697955 51 51 51
-1.84341158 -0.49534902 -0.08313763 51 51 51
-1.41395242 0.33158586 0.51060962 51 51 51
-2.17976169 0.31996550 0.34749047 51 51 51
-2.29208025 -0.05206028 0.60448477 51 51 51
-2.25268921 0.21425874 0.22526789 51 51 51
-2.21737996 -0.25830478 -0.12875507 51 51 51
-1.83631699 -0.50117785 0.06977668 51 51 51
-1.31880250 -0.13403832 1.05646238 51 51 51
-1.90905522 0.48872153 -0.42608636 31 120 181
-2.09353708 -0.40889843 -0.50755075 43 161 43
-1.96600667 -0.46844379 -0.77597192 51 51 51
-1.93560704 0.47689428 0.90736336 51 51 51
-1.29136872 0.00661842 1.17842513 51 51 51
-1.30427239 -0.08864705 -0.32893603 43 161 43
-1.95133146 0.47882778 -0.26799606 43 161 43
-2.00294476 0.46688451 -0.39310114 31 120 181
-1.41291843 -0.31215873 0.40198789 51 51 51
-2.22540223 -0.26383988 0.17989487 51 51 51
-2.29470507 0.09723133 0.84163627 51 51 51
-1.72947087 -0.49550470 -0.37520834 31 120 181
-1.31424088 0.09250713 0.95297858 51 51 51
-1.94384936 -0.47403001 0.13137636 51 51 51
-2.15199752 0.36221115 0.80999504 51 51 51
-1.37971820 0.28052381 0.81003923 51 51 51
-2.07993833 -0.44299615 1.01527303 51 51 51
-1.33927985 -0.21155422 0.19632044 51 51 51
-1.66347826 0.47671057 0.42048539 51 51 51
-2.13731434 -0.36187616 0.32443717 51 51 51
-1.95262223 0.48036555 -0.42196043 31 120 181
-1.81805589 -0.48390893 0.19860397 51 51 51
-1.90004873 -0.49492516 1.05549949 51 51 51
-1.69604752 0.49684553 1.01309319 51 51 51
-1.56419407 -0.43072064 -0.76354527 51 51 51
-2.06757023 -0.41952735 0.53131017 51 51 51
-2.00066398 -0.45142735 -0.14153417 51 51 51
-1.59283140 -0.45052702 -0.52803865 43 161 43
-2.24863600 0.22433718 -0.52274696 43 161 43
-1.77693645 -0.50362091 0.78805798 51 51 51
-1.43428506 -0.35062735 1.12528749 51 51 51
-1.39807554 0.29840085 0.23249148 51 51 51
-1.50522688 -0.40078704 -0.04355381 51 51 51
-2.18585137 0.31899576 0.22180494 51 51 51
-2.29298123 0.07813382 0.86597661 51 51 51
-1.50225661 0.39753344 0.69254533 51 51 51
-1.96010795 -0.48816293 -0.66721937 43 161 43
-1.93417631 0.48369025 -0.37575647 31 120 181
-1.44989987 -0.36380003 0.93063707 51 51 51
-1.87618414 0.50208813 0.18424102 51 51 51
-2.25454561 -0.18776331 0.51225929 51 51 51
-2.19472179 0.28985393 0.76112917 51 51 51
-2.18235535 -0.32299987 0.46579023 51 51 51
-1.64051086 0.47855016 0.66891859 51 51 51
-1.58769831 0.45015856 0.29396332 51 51 51
-1.81824637 -0.50662233 -0.34229154 43 161 43
-1.79802084 -0.50415477 -0.42624042 31 120 181
-2.25719932 -0.20559613 1.19706893 51 51 51
-1.35415624 -0.23052056 -0.77915454 51 51 51
-1.66587240 0.47209706 0.57973549 51 51 51
-1.51633753 -0.40634047 0.96589388 51 51 51
-1.54661095 0.44240544 -0.34235319 43 161 43
-1.30953004 -0.11577490 -0.69798179 43 161 43
-2.15711363 -0.34548827 0.01393101 51 51 51
-2.18588753 -0.29711346 -0.13901793 51 51 51
-1.31050878 -0.08396354 0.13352480 51 51 51
-1.68803537 -0.48606578 0.04622449 51 51 51
-1.67710646 -0.47902600 1.08353053 51 51 51
-1.33201817 0.15824406 -0.55913847 43 161 43
-2.13585043 0.36959450 1.08958104 51 51 51
-1.37710519 0.26480696 -0.70884798 43 161 43
-1.62715486 0.47325093 1.06349761 51 51 51
-1.68784425 0.48634881 -0.13176492 51 51 51
-1.47650400 -0.38512893 0.64318030 51 51 51
-1.45240107 0.35866359 -0.79293011 51 51 51
-1.95247744 0.46859440 0.09784582 51 51 51
-2.29743389 0.02233651 0.54517317 51 51 51
-1.49683618 -0.42290397 0.45446539 51 51 51
-1.29933663 -0.10930654 0.81413033 51 51 51
-1.93705651 -0.47465741 -0.50090882 51 51 51
-1.68538072 0.48785155 -0.00390336 51 51 51
-2.27484014 -0.14793905 0.42327999 51 51 51
-1.93677196 -0.48345369 -0.73973465 43 161 43
-1.32078820 0.15835959 0.86806945 51 51 51
-2.01632072 -0.45445203 0.03733331 51 51 51
-2.13962439 0.37060387 -0.30838961 43 161 43
-2.22773453 -0.26193560 -0.36130330 31 120 181
-2.04212349 -0.42852295 0.49528009 51 51 51
-2.04360634 -0.44633494 -0.70737984 43 161 43
-2.30373311 -0.07432966 -0.31432140 43 161 43
-2.26992733 -0.15908681 -0.19046755 43 161 43
-1.63602468 0.47339568 -0.28448353 43 161 43
-2.30477532 0.00431181 0.66162445 51 51 51
-1.43758266 0.35731964 0.38167103 51 51 51
-2.28644958 0.05774192 1.00421420 51 51 51
-2.29436646 -0.11865741 0.60047657 51 51 51
-1.71256754 -0.49551335 -0.21727768 43 161 43
-2.19612520 0.30841998 -0.16180089 51 51 51
-1.30302711 0.06562501 -0.55158542 43 161 43
-2.28881466 -0.09447522 -0.32510449 43 161 43
-1.65349254 0.48691609 0.39999851 51 51 51
-1.82621320 -0.49909268 0.66526202 51 51 51
-2.18138340 0.31884203 -0.20703347 43 161 43
-2.16455799 0.34089667 -0.12265436 51 51 51
-1.39672785 -0.27409970 0.79597757 51 51 51
-2.18962220 0.31576311 1.11853734 51 51 51
-2.09318333 0.40704149 -0.62356525 43 161 43
-2.09320981 0.41366758 -0.65321673 43 161 43
-2.29478295 0.06899134 0.71411013 51 51 51
-1.37781269 0.27101418 0.18676739 51 51 51
-2.28494464 -0.14208372 0.04438547 51 51 51
-1.35939093 -0.24375767 0.47352887 51 51 51
-2.25041368 -0.19120961 0.73064433 51 51 51
-1.81576300 -0.48661816 -0.65970507 43 161 43
-1.33674673 -0.15408282 1.12286257 51 51 51
-1.53271437 -0.42250344 1.10637603 51 51 51
-1.81983139 -0.50607307 0.04221118 51 51 51
-1.60274653 -0.47110022 0.13007075 51 51 51
-1.59011705 -0.46377761 -0.25605855 43 161 43
-1.81205689 0.49522399 0.37169035 51 51 51
-2.29379942 0.06507365 -0.38072999 31 120 181
-2.07487444 0.42266454 0.26478450 51 51 51
-1.83435613 0.49288383 1.01304594 51 51 51
-2.25774703 -0.22308048 0.21231477 51 51 51
-2.00351963 0.44657233 0.85095777 51 51 51
-2.16654958 -0.33781044 -0.44664719 51 51 51
-2.23386433 -0.24910494 0.97545821 51 51 51
-1.40042665 0.29701482 -0.56682609 43 161 43
-2.26703122 0.18407191 -0.37323440 31 120 181
-2.17967345 0.31615512 0.63229370 51 51 51
-1.93001148 -0.48097558 -0.19192144 43 161 43
-1.38301148 0.26403170 -0.56592788 43 161 43
-1.55142066 0.43308306 -0.63005196 43 161 43
-2.30194887 -0.03195246 0.78677025 51 51 51
-2.21738151 0.27596090 -0.76673317 51 51 51
-2.04480688 -0.44181305 -0.69241563 43 161 43
-2.04487473 0.44083045 1.09015247 51 51 51
-1.63249257 0.47731346 0.77021749 51 51 51
-1.34486997 -0.19769985 -0.05783342 51 51 51
-1.77154077 0.49313564 -0.40948593 31 120 181
-1.50610665 0.39016550 0.93751067 51 51 51
-1.89816247 0.49406779 0.76905521 51 51 51
-2.05733964 0.42289978 0.53047372 51 51 51
-1.72084875 0.49944552 0.25640671 51 51 51
-2.28366901 -0.10054391 0.25602890 51 51 51
-1.33850832 -0.19610089 1.15965215 51 51 51
-1.45750359 0.33789058 0.24090067 51 51 51
-2.23680483 0.26487448 -0.63076218 43 161 43
-2.05150356 -0.44196662 -0.64706133 43 161 43
-1.43016448 -0.33446086 0.39092533 51 51 51
-1.29909821 0.00034447 0.66643465 51 51 51
-1.48196719 0.40305056 0.44697463 51 51 51
-2.27045522 -0.11490990 0.69352706 51 51 51
-1.43695356 -0.33713061 -0.20988241 43 161 43
-1.32638216 0.16908640 -0.05351164 51 51 51
-2.23060134 -0.26363115 -0.26449967 43 161 43
-1.56539126 0.44237435 -0.05603967 51 51 51
-1.74457395 -0.50304009 -0.27401571 43 161 43
-1.32803512 -0.19288030 0.86930075 51 51 51
-2.28963725 -0.11089233 -0.49337834 43 161 43
-1.30166079 0.03169258 -0.38829797 31 120 181
-1.32915034 0.20241712 0.62356288 51 51 51
-2.22355030 0.25523169 -0.00122524 51 51 51
-1.51040797 -0.41299430 -0.12024668 51 51 51
-1.75429769 0.49841371 1.14365457 51 51 51
-2.03062745 -0.43767034 0.98467189 51 51 51
-2.21784620 0.28480391 -0.35584609 43 161 43
-1.84564714 0.50336541 -0.49789218 43 161 43
-1.94466234 -0.48157572 0.18516600 51 51 51
-1.97562743 0.45503569 0.36737285 51 51 51
-2.15137309 0.36286537 -0.10120186 51 51 51
-1.74649594 -0.49587912 0.36576244 51 51 51
-2.30594912 0.01996791 0.55116263 51 51 51
-1.70026690 -0.50251797 0.83684883 51 51 51
-2.29404070 -0.05621399 -0.31620908 43 161 43
-1.53237762 0.41564125 0.48878774 51 51 51
-2.26731542 0.17671487 -0.67603378 43 161 43
-1.45110380 -0.36109766 -0.66781910 43 161 43
-2.26261251 -0.20570746 -0.68229639 43 161 43
-1.31432633 -0.10878573 -0.56323166 43 161 43
-1.30653803 0.00757424 0.76633193 51 51 51
-2.06935692 0.42402893 -0.06268576 51 51 51
-1.75341475 -0.49800904 0.18028520 51 51 51
-1.98992827 -0.45860429 0.09872977 51 51 51
-2.26335409 -0.17869087 -0.37893932 31 120 181
-2.05559029 -0.42565631 -0.71000919 43 161 43
-1.44395945 -0.34672046 -0.43695157 31 120 181
-2.00084535 -0.46364454 0.90666694 51 51 51
-2.28824270 -0.14873248 -0.11467256 51 51 51
-2.25478009 -0.19713877 0.03182803 51 51 51
-2.04593450 -0.42968294 -0.27931707 43 161 43
-2.01750363 0.44818581 0.69045923 51 51 51
-2.04028236 -0.43186015 0.60675265 51 51 51
-2.18066413 -0.33198288 -0.03631749 51 51 51
-1.68306624 -0.49321680 0.20365149 51 51 51
-2.29196464 0.06893043 0.00038499 51 51 51
-1.30054149 0.07547654 0.34254877 51 51 51
-2.28981900 -0.11501506 0.37432936 51 51 51
-1.48690243 -0.38811227 0.34926252 51 51 51
-2.11788823 -0.37807639 1.00350613 51 51 51
-2.10382091 -0.38596544 1.10302474 51 51 51
-2.18478014 0.31424682 -0.68968768 43 161 43
-2.11309800 0.38791606 -0.03620095 51 51 51
-1.90135010 -0.48786440 -0.71289282 43 161 43
-1.35797229 0.23544130 -0.04504609 51 51 51
-1.46136821 -0.38121470 0.79834312 51 51 51
-1.43552318 -0.34825160 0.54658427 51 51 51
-1.32186088 -0.11665201 0.32888062 51 51 51
-1.46803253 0.37703100 -0.62434761 43 161 43
-1.43263369 0.33538063 0.83460770 51 51 51
-1.41146855 -0.30087287 0.43089212 51 51 51
-2.20258657 0.29075751 -0.20157661 43 161 43
-1.86892807 0.50063077 0.77667328 51 51 51
-2.16173771 0.34306984 -0.71631622 43 161 43
-2.07169560 -0.42843324 -0.42354407 31 120 181
-1.53291590 0.42531788 0.76926426 51 51 51
-2.30135218 0.03156389 -0.70717499 43 161 43
-2.07393389 -0.42310423 -0.53361921 43 161 43
-1.89033406 -0.48323074 0.19675464 51 51 51
-1.31443173 0.04431125 0.62881443 51 51 51
-1.60456951 -0.46197306 0.38191702 51 51 51
-2.25694370 0.19333672 -0.72937015 43 161 43
-2.25671410 0.19298102 -0.23877468 43 161 43
-2.27117275 -0.19336051 0.61925776 51 51 51
-1.89757248 0.48445182 -0.11118917 51 51 51
-1.42556652 -0.31733351 -0.40892317 31 120 181
-1.67887709 0.48298995 -0.79019256 51 51 51
-2.28126512 -0.13792777 -0.27709974 43 161 43
-1.55233983 0.44237724 1.06139978 51 51 51
-2.16952872 -0.32096134 -0.70550936 43 161 43
-1.39924289 -0.28292396 0.30912302 51 51 51
-1.43028087 -0.33439940 1.01758103 51 51 51
-1.46528851 0.37258294 0.60621386 51 51 51
-2.16065936 -0.35795163 -0.23714160 43 161 43
0.43255130 -0.20655035 -0.48357674 51 51 51
-0.50868331 -1.97398186 -0.97252500 51 51 51
-1.96915374 1.51893718 -0.01164635 51 51 51
-0.40324917 -1.77951815 1.39011545 51 51 51
1.90045058 0.33596712 -0.89176700 51 51 51
1.69164594 -1.32225342 1.35711819 51 51 51
-0.40925940 -1.94381133 -0.21898868 51 51 51
-1.92117788 -1.34530579 0.91256471 51 51 51
-2.94513391 1.30842890 0.91797452 51 51 51
-0.05449640 -0.07028535 0.64173694 51 51 51
1.44677463 -1.86080028 0.13993595 51 51 51
2.86891755 0.54424247 1.15675609 51 51 51
-0.73036551 0.34605711 1.36377184 51 51 51
-1.96735669 0.82395691 0.82296627 51 51 51
0.72578371 -0.27009035 -0.09715278 51 51 51
-1.43077727 0.84343932 1.11257788 51 51 51
-0.60499088 1.95508942 -0.87698150 51 51 51
0.10338238 1.62385618 0.59865745 51 51 51
0.06881914 -0.14974139 -0.81367417 51 51 51
1.36651852 0.09790097 0.43359451 51 51 51
-0.24820955 1.75578332 -0.04421349 51 51 51
-2.29918741 0.61547477 -0.80677475 51 51 51
0.84857856 0.95792317 0.85133159 51 51 51
-2.18752129 -0.19372768 0.10319092 51 51 51
-2.94970431 -0.96515458 -0.21702648 51 51 51
-0.80698828 -0.87582022 -0.30505818 51 51 51
2.25712534 1.75981182 1.03163921 51 51 51
-1.87229495 -0.26513105 -0.40286683 31 120 181
-1.51858746 1.46856955 1.36081775 51 51 51
2.82034917 1.75392021 -0.73867712 51 51 51
-0.84935104 -0.27367343 -0.22273015 51 51 51
0.18908071 1.54871353 0.57331470 51 51 51
1.79730685 -0.86671496 -0.31644897 51 51 51
-1.10444917 -0.75787800 0.35494540 51 51 51
0.95704707 1.05144451 -0.38164766 31 120 181
-0.87282623 1.50281609 0.70906617 51 51 51
-0.87706741 -1.69565941 0.45168521 51 51 51
-1.58593990 1.09337296 -0.26170205 51 51 51
-1.85236235 -1.22674306 -0.19071177 51 51 51
0.57055961 -0.87560297 0.87159987 51 51 51
-1.10353487 -1.96329336 0.79680783 51 51 51
1.89716000 -0.69637231 1.36431834 51 51 51
-1.83033153 0.24349142 0.02313891 43 161 43
2.37408504 1.94122901 1.37730438 51 51 51
1.98974869 0.08674209 0.77949964 51 51 51
