ply
format ascii 1.0
element vertex 360
property float x
property float y
property float z
end_header
-0.09260397 0.02318046 0.06246833
0.04351789 -0.07691061 0.08568069
0.05611645 0.05639788 0.05960501
0.08834778 0.17943779 -0.04891945
0.00377689 0.14033877 -0.10703839
0.02604596 -0.05512942 -0.00158574
0.03798026 -0.15448811 -0.07939826
-0.11243769 -0.01848764 -0.05510777
0.12120846 -0.04825372 0.13709476
-0.03249994 0.02171276 0.00318722
0.00092147 -0.09017424 0.02677704
0.03071132 0.01902684 0.04971293
-0.06553964 -0.02380634 -0.05292502
-0.13633363 0.02940291 -0.05083910
-0.00621764 0.17998143 0.01842484
0.00859327 0.08591566 0.09970831
0.14503142 -0.04171872 0.14367480
-0.01050862 -0.09265814 -0.07431131
0.08862775 0.06100333 0.10260191
-0.07374596 -0.02718320 -0.09581737
-0.15804686 -0.00144508 0.12661557
0.08896697 -0.06217482 0.09339758
-0.04614226 0.02496895 0.06615914
-0.03260685 -0.07077099 0.05196901
-0.01417625 -0.04414687 0.05074369
-0.01719765 0.03062926 -0.07724871
0.05792218 -0.07573323 -0.03085216
-0.14973112 0.09271836 0.00749055
0.03702161 -0.13620334 0.01228344
-0.03155036 0.09576243 -0.12564026
0.02822876 0.08444618 -0.09538560
0.00872991 -0.08674752 0.00345485
0.02665161 0.10535599 0.01345294
-0.05517063 0.04607163 0.00020460
0.08641332 -0.04839696 0.10693584
0.01351241 0.01941282 0.08030433
-0.04238089 -0.04086545 0.04064181
-0.00671376 0.00376017 -0.03239264
-0.02461766 0.06900382 0.15686649
-0.11037479 0.12117620 0.05911695
0.09645039 0.01430992 -0.05879697
-0.01605886 -0.07422028 -0.13373391
-0.00623831 0.02072541 -0.02249959
0.01517448 -0.12382238 0.08448264
-0.01268132 0.00324289 0.05721976
-0.04514517 0.20758041 0.09988613
0.09854339 0.01211081 -0.05687940
0.04002983 -0.05830074 0.01866465
0.01879729 0.09883156 0.03528197
0.01194650 0.11098545 -0.00927249
-0.04254421 -0.04082521 0.11662268
0.00255024 -0.04589377 -0.15659674
-0.08348235 0.02501260 0.04685850
0.13312590 -0.05570480 0.03986131
0.10367661 -0.18285360 0.18489518
-0.09085660 -0.09093034 0.07470321
0.03312644 0.09724104 0.05208454
0.02423848 -0.01004501 -0.06200841
0.04718488 -0.15372025 -0.01471428
0.06248292 -0.09213497 0.06735985
0.07846938 0.00618542 -0.01214712
0.04437186 0.05143235 -0.01995260
0.16497114 0.12193673 0.08056467
0.11207239 0.10490205 -0.11043779
0.20368713 -0.11552891 0.01699605
-0.08856091 0.05090061 0.03552165
0.01964679 -0.22976311 0.06464332
0.02042196 -0.16426728 0.12121483
-0.01199865 -0.06060979 0.03480703
-0.04287702 0.03159586 -0.02893893
-0.07186058 -0.09150049 0.06479111
0.00828831 -0.06042639 -0.04657506
-0.07045795 0.17286882 0.03074574
0.01473673 0.12228950 -0.05173630
-0.08767250 -0.04034207 0.01385051
-0.01631679 -0.02768769 0.01212255
-0.03585049 -0.08863772 0.05903710
-0.02254245 -0.02485412 0.03999315
0.03209786 -0.09176908 -0.06090182
-0.11423478 -0.09882224 0.02227756
-0.04172302 -0.07822367 -0.10945431
0.09899174 -0.03639660 0.01586411
-0.00945894 -0.07949218 0.03149769
0.00681055 0.10172118 0.04439868
-0.10421127 -0.01407870 -0.01287555
-0.01016773 -0.10393561 -0.13893703
-0.01473267 0.02362954 -0.10017001
0.14513495 0.04851407 -0.04337131
0.16047323 -0.12631093 -0.08533449
-0.09037799 0.09037342 -0.06355331
0.05527520 0.01646362 -0.05072435
0.00678851 -0.09862074 0.06365531
-0.08277650 -0.07382782 0.05144043
-0.04178769 0.14690251 0.10799340
-0.13530888 0.00968803 -0.01416811
0.16979639 -0.04673216 -0.05267845
-0.01837711 -0.01969535 -0.07498501
0.01817086 -0.04541712 -0.07065037
0.11963372 0.00969283 -0.08686183
-0.11350636 -0.02905957 -0.10224085
-0.10641327 0.08611328 -0.01423096
-0.04744074 0.01254694 -0.04752602
0.00377251 0.14292273 -0.00459526
-0.05071231 -0.09336250 0.04882609
-0.01556745 0.03053211 -0.13120314
-0.03271325 0.00587748 0.04042745
0.01881222 -0.02384959 0.10028583
-0.00387593 -0.16826285 -0.10403794
-0.00600946 0.01620518 -0.10866886
-0.09884588 0.02749267 0.01904635
0.02788215 0.05544594 0.00317345
-0.06475504 0.10055081 0.08209453
0.13725693 0.03754649 0.01246962
0.02097353 0.02874349 -0.14291525
-0.00745802 -0.02312632 0.03519399
0.03060991 -0.01959344 -0.02948122
-0.10100616 0.02807829 -0.03195634
-0.02259043 0.09191368 0.08959334
-0.01984624 0.14081701 0.06275405
0.00854487 -0.06790860 -0.06758687
0.64893915 0.05340798 0.18712248
0.63552388 0.13299485 0.18173286
0.61209926 0.08700672 0.06582362
0.54441340 0.08823132 0.19672975
0.60352289 0.13902506 0.13822506
0.62697709 0.11321134 0.04719570
0.49854273 0.19374787 0.08419969
0.64211373 0.14785894 0.02776031
0.56563313 0.22191286 0.06591339
0.62182390 0.02749475 0.05701832
0.64575451 0.05177697 0.15119214
0.57295150 0.11747067 0.17091536
0.57300779 0.20466116 0.08025303
0.61946437 0.20352189 0.15598522
0.58918638 0.03669758 0.18930653
0.57400761 0.21676797 0.06194143
0.58099474 0.15788196 0.10127129
0.70174898 0.06582463 0.07543113
0.61677709 0.17509122 0.10479194
0.61288900 0.20442083 0.07496583
0.57485414 0.14712048 0.13757040
0.52989082 0.24735854 0.08423031
0.57035157 0.13458169 0.04658749
0.55479808 0.13547040 0.12545159
0.63848616 0.13175475 0.08661027
0.62428009 0.05610851 0.09258293
0.65424140 0.23438946 0.09113089
0.53185871 0.12057961 0.16377817
0.70322899 0.14276072 0.02548362
0.60885122 0.19053416 0.14650834
0.61982542 0.27495281 0.10106250
0.74513570 0.09714191 0.17513057
0.65773330 0.19271651 0.06236541
0.59433409 0.09133967 0.10343434
0.61550115 0.17987960 0.04008425
0.56444199 0.04224905 0.10412418
0.54841665 0.20345917 0.07325991
0.62609609 0.13115645 0.09878969
0.58971753 0.09011621 0.14311546
0.55590330 0.21420851 -0.02425901
0.57458248 0.19133709 0.14225024
0.50144376 0.15891188 0.10799249
0.61246902 0.12975214 0.05907531
0.60810090 0.17689851 0.14796534
0.59422041 0.10689469 0.13497712
0.52904732 0.11272175 0.06601538
0.59781808 0.15727516 0.19813102
0.63072058 0.19693437 0.07899991
0.54523214 0.13091909 0.07359712
0.70388129 0.22389900 0.14332006
0.59615335 0.08534126 0.08436035
0.56910649 0.11237226 0.12211786
0.68916518 0.25425441 0.09167445
0.60661324 0.16778753 0.06838813
0.66865728 0.17855601 0.10706635
0.63037315 0.12951778 0.09142762
0.66661054 0.20284039 0.11137122
0.53127196 0.27840010 0.12697951
0.65233709 0.10554961 0.13409189
0.63500837 0.17157255 0.16501395
0.51833661 0.21685226 0.08668120
0.58096236 0.15523723 0.12769274
0.61628047 0.13691041 0.13597177
0.74944121 0.19023844 0.08758441
0.66754665 0.20119975 0.06698616
0.66898816 0.08721179 0.13060245
0.69970915 0.09554213 0.08241969
0.56481822 0.22271304 0.06934666
0.59981159 0.17458015 0.15326478
0.63910774 0.10546311 0.00175771
0.65004811 0.15392331 0.13272396
0.57013323 0.14986616 0.16948784
0.52607949 0.14000496 0.02201713
0.66635758 0.15838835 0.05190714
0.51755376 0.15455680 0.10726482
0.59144457 0.21706521 0.05024914
0.63873679 0.22602720 0.07088636
0.64374957 0.22666481 0.03202152
0.56878382 0.08705471 0.12611904
0.69445117 0.07978241 0.10120265
0.73456043 0.11937939 0.13219821
0.63023775 0.12529870 0.14609356
0.61917355 0.14545596 0.08674755
0.66527528 0.15796268 0.06274163
0.57500469 0.16566670 0.12222499
0.52980948 0.19527797 0.03974879
0.50937229 0.13365076 0.11697169
0.64869342 0.09255366 0.08176480
0.65225574 0.14787097 0.15736805
0.63335554 0.07550120 0.05998307
0.64515365 0.02937351 0.14280849
0.59252733 0.10640413 0.21438518
0.55631448 0.11824524 0.08529840
0.58458927 0.17778354 0.12116673
0.48065409 0.20929676 0.15515465
0.64755766 0.17536987 0.02416774
0.63883296 0.12780633 0.04697059
0.60288874 0.18387303 0.05032036
0.54698279 0.18048299 0.15236188
0.57289282 0.16091837 0.10077015
0.66753212 0.16449767 0.00964645
0.55820972 0.21212051 0.16846081
0.66652735 0.13951495 0.05590149
0.63622263 0.14399531 0.08781623
0.56581758 0.16735810 0.05517554
0.57986428 0.24864276 0.09604241
0.66237267 0.16121479 0.12109039
0.60934814 0.26242391 0.11894414
0.61423481 0.15894477 0.07552618
0.66030851 0.10957603 0.02360936
0.61319299 0.17301862 0.04055514
0.61403340 0.14952878 0.01934605
0.49323124 0.16745474 0.10011720
0.64202291 0.08245726 0.15912556
0.60582462 0.17270303 0.19763889
0.59889789 0.14134218 0.07854335
0.52754992 0.14558802 0.02629740
0.54610947 0.05921022 0.13902420
0.59456443 0.21130144 0.07152154
0.58046373 0.11426787 0.05238737
-0.18007704 0.33711924 -0.09873674
-0.20277765 0.43173423 -0.14423027
-0.18699657 0.45045892 -0.23282904
-0.27804857 0.50182040 -0.18908658
-0.20060941 0.43261830 -0.12040615
-0.27087666 0.42246630 -0.16279701
-0.33574665 0.47352518 -0.23699412
-0.25262917 0.40522789 -0.13575776
-0.19872600 0.45078572 -0.16239765
-0.23845125 0.46893444 -0.11453575
-0.26904215 0.49753667 -0.19109476
-0.25605353 0.54026537 -0.14112877
-0.21956281 0.46733340 -0.13728981
-0.17031597 0.45290424 -0.21145847
-0.25759378 0.45866974 -0.17185995
-0.27289099 0.50130576 -0.12662654
-0.18492410 0.46121754 -0.19390172
-0.25845301 0.43884749 -0.16300470
-0.21882650 0.37933601 -0.15552769
-0.18597987 0.40507398 -0.11978296
-0.24857463 0.38371852 -0.18691758
-0.19503452 0.42286912 -0.14655787
-0.25278240 0.40483896 -0.10295865
-0.21191077 0.46727236 -0.15550362
-0.28288787 0.41229063 -0.11194785
-0.33327383 0.48999119 -0.13579101
-0.23051542 0.45035372 -0.18959052
-0.28409413 0.44439188 -0.13195293
-0.19993890 0.46164274 -0.12795965
-0.28106326 0.48547738 -0.12890913
-0.17669867 0.49017297 -0.14743390
-0.29351923 0.51419973 -0.18528558
-0.23594601 0.49210613 -0.11616020
-0.29173043 0.41213395 -0.10259206
-0.22094414 0.57503035 -0.18060017
-0.31471088 0.40342244 -0.18416787
-0.26544761 0.46294433 -0.13690034
-0.26055334 0.42032764 -0.13731499
-0.26961530 0.48831645 -0.16298080
-0.27357071 0.49899099 -0.10104679
-0.18450504 0.41334078 -0.10925366
-0.19316105 0.46049115 -0.18581652
-0.25451218 0.47572181 -0.14422529
-0.24466545 0.49004400 -0.07168149
-0.18730601 0.41526186 -0.21431958
-0.18226608 0.50729303 -0.15218795
-0.31418491 0.50991707 -0.16913447
-0.28146953 0.44215378 -0.14551480
-0.31279324 0.39981503 -0.15086807
-0.24794560 0.38913703 -0.05771662
-0.20343354 0.47171020 -0.12455820
-0.33290149 0.45320098 -0.12864695
-0.24558408 0.46354527 -0.12625755
-0.18870999 0.49354965 -0.17087181
-0.20644817 0.43192926 -0.14148747
-0.23663122 0.44965753 -0.15742918
-0.23900173 0.46359795 -0.24758103
-0.25397321 0.41807632 -0.08879058
-0.24324980 0.42019001 -0.13126011
-0.24438500 0.47225166 -0.23272690
-0.26436591 0.41050302 -0.09237621
-0.21990014 0.44013403 -0.15416092
-0.25429184 0.42928640 -0.18865398
-0.30234659 0.49522815 -0.19111117
-0.23322379 0.48315658 -0.12822874
-0.25288630 0.47272019 -0.17438171
-0.29040529 0.48581404 -0.12526403
-0.20492559 0.44987327 -0.22841431
-0.26914734 0.42208975 -0.10983613
-0.28414709 0.48723649 -0.14038681
-0.23824470 0.46080306 -0.12510547
-0.29286046 0.49835550 -0.21454235
-0.27834913 0.42078230 -0.12004295
-0.28282559 0.52034704 -0.18839142
-0.14382386 0.47680319 -0.11417599
-0.23430462 0.48713440 -0.17773861
-0.30434289 0.48633235 -0.12207860
-0.25562395 0.44082520 -0.15519644
-0.24205141 0.48738603 -0.16215627
-0.23563124 0.49974162 -0.15600496
-0.22425100 0.42733621 -0.14605625
-0.25878358 0.49885030 -0.16278014
-0.29440364 0.46139530 -0.16971895
-0.19465798 0.46788676 -0.16596860
-0.29309334 0.45216063 -0.15774301
-0.25444328 0.45511778 -0.01292791
-0.28020022 0.45979871 -0.11529545
-0.20025338 0.44597151 -0.13681408
-0.25860041 0.53346338 -0.17293183
-0.23698871 0.42160962 -0.11924498
-0.27651819 0.51428301 -0.17108956
-0.25327322 0.44803110 -0.13650100
-0.27426229 0.37951423 -0.22432107
-0.25925717 0.49402355 -0.10591199
-0.23098673 0.49048679 -0.14938702
-0.25466479 0.47193859 -0.09383274
-0.19228521 0.46902741 -0.20242030
-0.27261198 0.35573982 -0.10660634
-0.25084872 0.50443423 -0.09507492
-0.25561637 0.47789842 -0.15056068
-0.30734282 0.46881821 -0.14088321
-0.24026701 0.51655131 -0.18602633
-0.30991631 0.48855186 -0.10041597
-0.22329596 0.45599481 -0.13661438
-0.23847581 0.45702661 -0.15996351
-0.19945673 0.43004127 -0.20052644
-0.24751022 0.42341272 -0.18471587
-0.22580721 0.40475851 -0.18788291
-0.27328160 0.41561695 -0.16615811
-0.26325020 0.40004094 -0.20364455
-0.16780136 0.45832880 -0.16570292
-0.22905261 0.45852219 -0.14432630
-0.26433961 0.43966940 -0.16740319
-0.18325608 0.43839767 -0.13189791
-0.22928247 0.37722106 -0.10517226
-0.24048469 0.37991362 -0.09143754
-0.21152026 0.46173310 -0.17538444
-0.28544299 0.44380219 -0.16795290
-0.21051564 0.47506956 -0.10703511
-0.24196645 0.44404699 -0.15926617
