ply
format ascii 1.0
element vertex 1010
property float x
property float y
property float z
end_header
0.49603303 0.20509558 -0.00142138
2.22178713 0.65972609 0.00596998
-1.10088279 0.56701232 -0.00043831
2.30811728 -1.90576698 -0.00587131
0.63295504 -1.37266016 -0.00098050
1.58229756 0.56273812 -0.00479039
2.18494746 0.67831145 -0.00557450
-2.41390553 0.04141538 0.00799531
2.01834032 -1.07078798 -0.00140644
-2.08551798 0.87955148 0.00069261
0.01254283 -1.80961895 -0.00037183
-1.10042384 -0.69300541 -0.00100598
0.83930739 -0.11359912 -0.00336264
-0.06404837 1.22641480 -0.00124254
-1.10791451 0.69029097 0.00134894
-0.66221348 -0.32651981 0.00567454
0.27951207 0.78258722 0.00378974
2.22597630 -0.92395535 -0.00487627
-1.98127390 -0.28483231 0.00395413
0.23357999 -1.08798558 0.00190175
1.95247887 1.19538806 -0.00249888
-0.03168043 -0.19974427 0.00072839
-2.29629372 0.14755893 0.00228915
0.47873548 1.56652713 0.00018821
0.00549033 -1.37049031 0.00192097
-1.59971549 -1.36053033 -0.00345180
2.19267437 1.17355703 0.00797133
1.62383063 1.36173408 -0.00771714
-2.02182679 0.80870742 0.00231140
1.02168356 -1.10071317 0.00146705
-0.04667115 0.64972354 0.00257177
1.98668218 -1.55829796 -0.00283348
1.96096577 1.68965987 0.00467679
2.11804917 -1.98066043 -0.00043192
-1.39500614 0.76498094 -0.00474486
-0.89130110 -1.75566683 -0.00437924
1.31471040 -1.88563123 0.00049882
-0.26989336 1.79030436 -0.00638609
-0.29883587 1.64754914 0.00720202
-0.45497877 -0.61325556 0.00419569
-1.96308599 -0.56763636 0.00730738
-0.81506755 1.38620474 0.00688569
2.09957587 -1.91227966 -0.00140763
-2.00871795 0.57291387 -0.00347732
-0.07628556 -0.81248546 -0.01071109
-1.20046470 -1.10130164 -0.00162494
0.12725435 -1.93008025 0.00706261
1.19442188 -0.79844797 -0.00331140
-0.36584274 0.10820879 -0.00083968
-1.44320199 1.53481059 -0.00221828
0.91046628 1.48118537 0.00149998
-0.12274697 -0.27015817 0.00514434
-1.31428716 0.17936144 -0.00615684
0.46581787 -0.32030649 -0.00539110
-1.77308720 -0.90758215 0.00594648
-2.42874245 -0.72344493 0.00293227
0.40379488 1.82284439 -0.00103752
-1.61051602 -1.77814188 0.00682833
-1.01844356 -1.37280921 -0.00546012
0.97759498 -1.97700334 0.00372485
2.40433546 1.42266670 -0.00027295
-0.04664704 1.68376888 0.00242618
0.64029666 1.97505951 -0.00954861
-1.10846899 1.98762457 -0.00104281
-1.59876354 -0.58632653 0.00294719
2.17662040 -0.51783086 -0.00025332
-1.45081811 -1.76205158 0.00502119
-1.75520895 -0.57910624 0.00488722
-0.39383974 0.16980454 -0.00383425
1.56793997 -1.94634060 0.00329597
1.70558066 0.30899737 -0.00397065
1.28239029 1.02791688 0.00021606
2.01601340 -1.62647916 0.00262451
0.35757644 1.63611811 -0.00334113
1.09603157 -1.61366035 0.00314770
0.56982155 1.19952364 -0.00202142
-1.12569107 0.52997294 -0.00232279
1.70206111 0.09546782 0.00282660
-1.52906400 0.19872849 -0.00334389
0.44001967 -0.38858891 -0.00354734
0.89808312 -0.26666842 0.00416462
1.88702544 1.16650187 0.00043423
1.52385933 0.10430682 -0.00581648
-1.51826090 0.89768728 0.00342257
-2.15539324 0.07029974 -0.00162640
-2.23510459 0.11367475 -0.00561205
0.92961085 -0.32320701 -0.01002926
-0.41548417 -1.50882460 0.00361366
-0.99075197 -0.22290512 -0.00343967
1.81781069 1.59191961 -0.00497538
2.26790051 -1.59894521 0.00255761
-1.01894594 -0.14834832 0.00322317
0.70871912 0.81119396 -0.00314841
1.43008144 -0.01650476 0.00365056
0.28292133 1.84228276 0.00821957
-1.29985860 1.21503897 0.00538665
1.05909017 -1.43964065 0.00476423
2.13245846 1.42142462 0.00125652
1.39752326 -1.49290566 -0.00177487
-1.80164734 0.73279383 -0.00022354
-1.96364992 -1.54673758 0.00176297
-0.49860267 -1.97848844 -0.00503005
1.10741701 0.16082797 -0.00307753
-2.10912925 0.17433099 -0.00571100
-2.22956064 -1.71721558 0.00094075
-0.07266905 -0.00070700 0.00033222
-0.80502614 0.48708583 -0.00261083
-0.56320799 0.34784232 0.00328200
-0.75107531 0.85986786 -0.00417840
0.39643059 -1.35982581 -0.00275934
0.93134428 1.13574369 0.00312211
-2.17062966 0.43984238 0.00371526
1.45214828 -1.54138841 -0.00318290
2.00826210 -0.34080485 0.00092817
1.18919911 1.59619939 -0.00311523
2.44818575 0.33570026 -0.00078936
1.02136964 -0.99320130 0.00057535
-1.04976814 1.40307771 0.00224146
-0.50878048 1.28973582 0.00127024
-2.24701593 -1.12698631 0.00109265
-1.64952956 0.10826988 -0.00431399
-2.09734726 -0.62451825 0.00155311
2.43122555 1.17686855 0.00220426
1.30295706 -1.45954120 0.00275574
-0.67720447 0.72235189 -0.00287808
-2.39187381 -0.26409404 0.00366234
2.14294895 -1.67064077 -0.00526894
2.03129669 -1.22191350 -0.00172327
-1.55446388 -1.21825616 -0.00110208
2.15628041 0.41497998 -0.00504964
1.25394473 -0.53436958 -0.00116284
1.86625468 0.32774854 0.00088592
0.49917467 1.00928421 -0.00730309
1.36821312 0.72745429 -0.00157875
-1.90545033 1.46690637 -0.00699360
-1.19550442 1.98477663 0.00816616
-0.57246034 -1.52001081 0.00084996
-0.91956749 0.29413697 0.00050332
-0.54276881 1.31472676 0.00092829
0.91103148 -1.14619774 0.00241808
0.19426652 1.15012800 0.00391262
1.95616876 -0.42022266 -0.00625422
2.12232360 -1.85612216 0.00524071
0.88345601 1.12793898 0.00498330
-0.37429310 -1.95610210 -0.00026539
0.93517580 -0.62974303 -0.00047491
-1.74093523 -1.37156489 -0.01241104
1.34582028 -1.25044230 -0.00497596
-0.07950851 1.88155744 0.00207540
1.29409349 0.18877459 0.00480247
0.14137676 -1.33069023 0.00291535
-0.26788212 -1.42040138 -0.00030286
-2.08208942 -1.56345106 0.00770349
0.53305578 -1.22578807 0.00402070
-1.75327243 1.46852385 -0.00157531
-1.88993518 0.82254046 0.00872844
-0.41499869 0.31631895 -0.00438467
-2.38322293 -1.99992304 -0.00588736
1.58624272 -0.09823537 -0.00168442
-2.14346532 -0.62617559 -0.00303456
0.03177218 -1.45802609 -0.00145973
0.23168975 0.11500288 0.00319236
0.51417583 1.24104722 -0.00013592
-0.43610593 1.55424011 -0.00003319
-0.12663124 -0.17140414 0.00023526
0.77842849 0.47008486 -0.00924930
-2.44282531 1.92972236 -0.00606104
2.21346793 -0.87485623 -0.00154125
0.29291670 1.08194069 -0.00337172
2.10233912 0.34362656 -0.00092715
-2.40529934 0.72271179 0.00561651
-2.03460966 0.68471109 -0.00029780
0.43713801 0.56267851 -0.00528867
-1.55371151 -0.02556055 -0.00317240
0.58978397 -0.79882835 0.00684230
-1.59188369 -1.10927704 0.00612998
1.79008335 -0.14182592 0.00238351
0.80536688 0.05955546 -0.00624993
1.67063626 0.03397947 0.00122722
-2.03337344 -1.20806123 0.00153479
-2.43367292 1.32609713 0.00010216
0.81636417 1.03680767 -0.00228004
1.07510117 1.29791875 -0.00145052
2.43484752 0.61388532 -0.00255886
-1.23867199 -1.59443983 -0.00458030
0.44873964 1.08302825 0.00546395
0.30785857 -0.78578093 0.00352926
1.09867424 -0.20811002 -0.00113972
-1.06705449 1.36433795 0.00140871
0.38259391 -0.86620801 0.00155880
-0.85697833 0.28666046 0.00937153
-0.38538203 -1.35792353 0.00349027
0.55234966 0.75644026 0.00333908
-2.49945602 0.14747726 0.00015192
0.38580740 -0.67174378 -0.00173770
-0.80634370 -0.72936447 0.00553084
-0.27335966 1.24775952 0.00260909
-0.15486966 1.97459483 -0.00331817
-0.61920663 0.79704902 0.00181547
0.24482836 1.04915448 0.00334954
1.94182285 0.04673317 -0.00838332
-0.02760395 1.77087612 -0.00368955
2.16829786 1.98798692 0.00145106
-1.71762042 -1.98572511 -0.00769785
-0.31344849 0.93336065 -0.00706452
-2.13571995 -0.50559347 -0.00108185
0.40729738 -1.14981030 0.00196618
1.15570999 -1.08184938 0.00215113
1.70336008 -0.60690665 0.00632960
0.49324224 0.17661603 0.00032906
-1.01776642 -0.24371350 -0.00149061
1.72986546 0.19337714 -0.00522944
-2.22206520 0.85212916 -0.00153851
-1.58773751 -0.05574895 0.00283012
-0.15730560 -0.05405229 0.00301089
-2.34492997 -0.91044592 0.00105848
-2.24632264 -0.34017319 0.00218846
0.60668364 0.61629650 0.00510553
-2.17725998 -1.52444358 0.00030109
0.80753389 0.12475060 0.00546928
1.66706004 -1.17943133 -0.00290659
-1.89828856 -0.55190342 -0.00029316
0.68533567 -0.05613103 -0.00192333
-2.00703367 -1.71483164 0.00317082
0.88846814 -0.81212715 -0.00405794
0.84741236 -0.82034047 -0.00128706
-0.92602894 -1.16074107 -0.00743871
2.41858481 -1.93571884 0.00237750
-1.86373783 1.34516072 0.00498716
-1.80919133 -0.87721243 0.00364283
-1.18607516 0.78794233 0.00325051
-0.44399411 1.36235129 0.00335760
1.23713598 0.12440532 0.00279878
-1.25469112 1.16967524 0.00245758
1.82995277 1.34513004 0.00271565
-2.24143116 0.79183473 -0.00262273
1.01969318 1.77230216 -0.00080077
-1.18260817 1.14538732 0.00028097
0.94548250 1.51490788 -0.00134282
0.96654015 1.40981815 -0.00626524
-0.70212326 -1.36950232 -0.00494004
-0.68323983 1.26020676 0.00091990
-1.84175011 0.55178072 0.00362310
2.43778028 1.58005950 0.00003737
0.85591664 1.17052131 0.01105929
-1.91761773 -0.00466495 -0.00367905
0.15956212 1.13078304 0.00177977
-1.08703327 -1.57405885 0.00516481
0.99056921 -0.02962348 0.00426271
1.71147030 -0.07404123 0.00262027
1.73135390 0.03134001 0.00428102
1.41349255 0.88298072 0.00022158
-1.16958730 -0.76240670 0.00665153
1.99597761 -1.07597149 0.00513264
0.98750278 -1.41951947 -0.00340891
1.27579186 -1.10684060 0.00128627
0.47032686 0.25697395 -0.00618919
-1.48242873 -0.03438672 0.00608716
1.89624013 0.72211739 0.00089693
2.46327200 1.13821704 0.00539509
0.71727717 0.25280826 -0.00043743
2.18714323 0.10805375 -0.00742507
-0.48663615 1.33797432 0.01054947
2.20122209 -0.08433243 0.00052435
-1.81380738 0.43349127 -0.00400083
1.20441131 -0.50545567 0.00458305
1.23939429 0.12420537 0.00814343
-0.99321935 0.51808491 -0.00080975
-0.55526217 1.14730202 -0.00039697
-2.48459986 1.27271246 0.00095218
-0.96712361 1.83850625 -0.00444388
1.29582434 -1.03583886 -0.00276267
2.39399579 -0.00167763 0.00712770
0.11461899 1.63807254 -0.00052883
2.09201534 0.78753002 -0.00335023
2.39224820 -0.68451876 -0.00180817
-1.33831708 -1.88297311 0.00429129
-0.76827531 0.41053337 -0.00790359
-0.97310475 0.31848103 0.00101860
-2.25807124 -0.58363574 0.00984887
1.24002453 -1.58269256 0.00812425
1.07418728 1.05324445 0.00229281
0.34380755 1.54435021 0.00526577
2.27281756 -1.86129007 0.00522731
0.89541512 -1.05130199 -0.00050341
-0.45908345 0.49261713 0.00369918
1.06136135 1.36076372 0.00715433
1.02693459 1.10959598 -0.00505505
0.49535600 -1.53176367 0.00230660
-2.39284843 0.11913220 0.00144590
1.07770524 -1.56453765 0.00041266
-0.35352026 -0.97529041 0.00005853
0.33546525 -0.43798899 0.00092668
-1.49266250 -1.98242915 0.00126229
-0.89237452 0.06464859 0.00447446
2.14604542 -1.09009594 0.00190606
0.06127533 0.26598614 -0.00071151
0.74613828 -0.68573460 -0.00335969
-2.00259090 1.68542496 -0.00188977
2.26377714 -0.24707545 0.00104466
0.40287481 -1.88389443 -0.00282428
-2.26392179 -1.69333034 0.00378351
1.19373157 -1.09106204 0.00172022
-1.57776389 -1.96665867 0.00457411
-2.38551228 -0.37846499 -0.00255528
0.20838965 0.31623673 -0.00332427
-0.21044409 -0.16175491 0.00454423
1.26571093 -0.84171946 0.00051982
-1.31141091 1.41729675 -0.00081007
0.94631904 -0.09253420 0.00279464
-1.12297587 -1.45367272 0.00264580
-2.31289402 1.40946143 -0.00502305
0.46692751 -1.81668203 0.00553858
-1.70706301 -0.88174293 -0.00164163
-1.18464206 0.19356396 0.00680007
-0.50278188 1.52886642 -0.00533419
1.09705350 1.64293028 0.00126960
1.81409313 1.68547653 -0.00074248
2.40005725 -0.75321425 -0.00790094
-1.45159698 -1.33939055 0.00263283
0.64044233 0.72386679 -0.00769575
-2.06081253 1.28428639 -0.00116667
1.41533266 0.51389573 0.00441710
-0.32193760 -1.38537085 -0.00212014
0.02796135 -1.36332282 -0.00361494
0.52489393 -0.76014108 0.00320143
-1.26346869 -0.23579448 -0.00099807
0.40356400 -0.53014374 -0.00162024
2.31801701 -1.97640946 0.00509997
2.06430509 -1.99726380 -0.00466911
-1.41644031 1.98540490 -0.00183843
1.14047688 0.57799349 0.00346579
1.13046440 -0.36681525 -0.00492779
1.42104866 -1.38052787 0.00710139
1.46946194 1.75810672 -0.00086739
1.78843425 0.95864381 0.00349811
0.75688657 0.08436866 0.00348974
-0.52388360 1.46261436 -0.00060915
0.73729287 -0.26039874 -0.00191605
1.42395859 -1.78358498 -0.00017186
1.56559625 1.24280869 0.00285074
-1.35735293 -1.84931364 -0.00394570
1.06853978 -1.20051349 -0.00481303
2.48010895 -1.96327022 0.00593681
-1.35104009 -1.83175041 -0.00293942
1.41327868 0.31478197 0.00141634
1.74217267 1.85045348 -0.00080882
0.55057430 -1.07298599 -0.00063146
-2.03675280 1.46504418 0.00572156
-1.27443372 1.57407290 -0.00034068
1.89143800 0.51123685 -0.00142730
0.51997910 1.80330587 -0.00107886
1.28007551 0.73312708 -0.00201383
-0.32129624 -0.06400622 -0.00268036
-0.55539451 1.78528408 -0.00199779
0.69059607 1.12145435 0.00665284
-2.31400132 1.40970521 0.00284596
-0.41180851 0.94864150 -0.00138079
-2.29987343 1.57549273 0.00392662
0.79922795 -0.16999684 -0.00634878
-0.98220950 -0.75590343 0.00550271
-0.98300938 -1.47589659 0.00518062
-0.18095231 -0.18605458 0.00894534
-0.44031670 0.81237695 0.00404621
-0.40092569 -1.64398513 0.00174894
1.76029811 -0.29959654 0.00516456
0.77642827 1.71958542 -0.00250324
1.33707551 0.15519548 -0.00158167
0.22511129 1.39812415 -0.00025698
1.61816147 -1.28538907 0.00547553
0.63250541 1.46286263 -0.00342351
1.51653714 -1.50113593 -0.00384825
-0.32153589 0.07293242 0.00094615
-1.21095223 0.71799754 0.00287012
-0.11886754 -0.80996517 -0.00281232
-0.81567737 1.42667342 0.00268167
1.83099903 1.24950263 0.00547360
2.06934411 1.80922603 0.00480185
-0.04086045 -1.61318551 0.00141317
1.50035504 0.53372771 -0.00036239
-0.59741405 1.90213261 0.00694249
-0.80657399 1.63053591 0.00006162
0.46292224 -1.85343206 0.00376142
1.80167554 1.04884790 0.00783313
0.71243773 0.45834856 0.00334107
-1.40582254 -1.14205548 -0.00398836
-2.35413786 -1.38345015 -0.00495609
-0.81759368 0.16289959 -0.00119052
-1.84595721 0.23028872 0.00283800
-1.18339939 -0.98415550 0.00177914
2.23972104 1.96937818 0.00882833
1.55719298 -1.78243208 0.00174023
1.14315855 -1.28629707 -0.00130976
0.34610657 1.57485452 -0.00453337
-0.59902184 1.71536674 0.00472175
1.04186109 -0.79595275 -0.00002424
-2.02541401 1.26140514 -0.00602456
-0.20970296 -1.70922605 0.00008904
-1.98438821 1.86784553 -0.00398295
-1.28499023 1.86636471 -0.00170255
0.90579790 -0.79803559 0.00002477
-0.58136063 1.10815378 -0.00362071
-0.32292511 -1.70099689 -0.00195050
-1.35092935 1.44137989 -0.00297648
0.98087068 0.00406444 -0.00286916
-1.27252166 -0.10163754 -0.00403208
1.44424529 -1.67382721 -0.00193106
2.47383909 1.43905018 -0.00357879
-0.91017109 1.48230686 0.00234634
0.90857265 0.66541771 0.00080320
-1.80145116 1.62357856 0.00477886
-0.24829102 1.21291103 0.00754681
-1.00238105 -0.76798534 0.00270930
2.32344590 -0.01336030 0.00179835
-2.20054643 1.34282659 0.00296135
-1.36384989 1.51501501 0.00186636
2.08219939 -1.70893595 0.00020080
0.41214614 1.92609642 -0.00011730
2.15459807 0.10097314 -0.00408668
0.90246598 0.41704814 0.00335568
-1.48373327 0.61199030 -0.00012518
-0.83429408 -0.64811228 0.00579808
-0.40005920 1.40870753 0.00366054
-1.30827087 -0.99683333 -0.00250381
-2.46330043 -1.37997252 0.00498676
2.39339644 -0.26452022 -0.01024297
-1.52417654 1.86272724 0.00772090
-2.36441066 -0.06333445 -0.00535378
1.52301068 1.09130082 0.00198045
-1.55391367 0.83115869 0.00170966
0.61144304 0.70110486 0.00449487
-1.16947592 1.24293755 -0.00131479
0.29618755 0.90031219 -0.00858207
2.19786755 1.42198909 -0.00130915
1.41168735 -0.84140500 -0.00087665
-2.22958444 0.29857785 -0.00819677
-2.32743473 0.85675910 0.00018149
1.18410836 0.25164504 -0.00430341
-1.65924044 1.50288574 0.00259634
0.47960616 0.05956780 -0.00098432
0.33795880 -1.66845165 0.00784438
1.20218527 -1.75689766 -0.00102471
0.39194079 -1.32297165 0.00172157
-1.46149031 -1.06698300 -0.00085229
-2.42847181 1.56735532 -0.00649307
1.52117636 -1.87485421 -0.00081885
-2.21506956 1.13150739 0.00301365
-2.46598356 -0.12400435 0.00240796
-1.96351373 0.36652891 -0.00117307
2.49170209 -1.31191394 -0.00582702
2.28341924 1.46191418 0.00257783
2.42927484 1.06475453 0.00167795
1.78497126 0.37839056 0.00337364
1.83642041 -1.55395098 -0.00109645
1.20827152 0.51489435 -0.00673750
-2.20076759 -0.83363851 0.00213504
-1.41946600 -0.37929820 -0.00003657
-1.50823329 -0.90068142 0.00556674
-1.01984932 0.39924358 0.00011493
-1.82563120 -1.03559506 -0.00018187
-0.91425970 -0.20372825 0.00166902
-2.30955684 1.99684581 -0.00238772
-0.99803999 -0.85062056 -0.00258054
0.27435293 1.41612872 -0.00039158
-0.21595316 -1.00464320 -0.00368163
0.32937752 -0.06822980 -0.00091638
-0.38462586 1.93553180 0.00775825
2.47975132 0.24777531 0.00417053
-2.15998036 0.26767032 0.00123215
2.26236074 1.70277012 0.00620671
-1.42249575 -1.23952207 -0.00329958
-1.73872072 1.27913740 0.00996176
-0.04972472 -0.64781372 -0.00184201
-0.87596416 -0.89834703 0.00801522
1.91309887 -0.36128043 0.00799761
-1.27991132 0.84161922 -0.00701292
0.67727278 0.86146222 0.00586837
1.60978057 -1.59506514 -0.00113564
-2.49005629 -1.79773504 -0.00227187
1.03396630 1.73798616 0.00209855
-0.84447309 1.12477667 -0.00403166
1.14592255 1.91224632 0.00200799
-0.14603459 -1.33570813 -0.00376318
1.32615700 1.27527546 0.00070832
1.03650038 1.45272669 0.00534145
-0.64408708 0.76126001 0.00154607
-1.18075680 -0.21423942 -0.00143917
-1.28753915 -1.38186531 0.00216564
-2.32023376 0.68569703 -0.00562592
1.87636544 -0.74232226 -0.00335544
-0.35382308 -1.98581221 -0.00172108
-0.43572614 -0.87471154 0.00314740
0.37100015 1.63406873 0.00162320
0.03076285 0.70213064 0.00214067
1.02741420 -1.39027235 -0.00010953
-0.76714696 -1.54741779 -0.00315240
-0.29626698 1.54914273 0.00595247
-0.09532825 -0.17538807 -0.00279117
-1.45338227 -0.75913088 0.00167616
2.18299786 -0.78801870 -0.00044842
1.15693293 -1.83143334 0.00225197
-1.85843020 -0.75408833 -0.00242195
2.00710431 -1.12283338 0.00421071
1.13372305 -1.32990213 0.00551311
0.56421023 0.34731292 0.00396529
0.60973951 -0.85489391 0.00063050
-1.68948502 1.54594300 -0.00174050
0.34721969 -1.15182732 0.01128845
-0.43335473 -1.73163403 -0.00396650
-0.12311942 -0.30443690 0.00352492
-1.83636881 -0.22251066 0.00133114
0.69766170 1.71396178 -0.00025015
1.01592597 0.00974115 0.00074065
1.35025559 -0.88025887 -0.00204086
0.84390799 -1.97975133 0.00170822
-2.13724435 0.49706255 0.00126730
-1.53725213 0.75491835 0.01071061
0.68376632 -1.74533300 0.00428329
-0.53751667 0.45200879 0.00206353
1.06740816 1.26433664 0.00230224
-0.84778549 1.34686417 0.00735815
-0.72872787 -1.97205264 -0.00388171
0.55002950 -1.03332561 -0.00073093
-1.87809349 -0.96656876 -0.00762856
1.63956999 1.65600523 0.00223510
2.30848312 -0.78867855 0.00339270
-0.22035646 1.21010441 -0.00398240
-0.91048656 -0.45942725 0.00574032
-1.31362755 0.28946928 -0.00287552
0.79633349 -0.72624218 -0.00136987
-2.37884742 0.94363125 0.00047826
0.58298645 -1.12400486 0.00637679
-0.92676162 1.82845436 -0.00343279
0.65101773 0.38191103 0.00116499
0.69845369 1.81777814 0.00309935
-0.80070463 -0.87633610 0.00227388
-0.61628760 1.20379638 0.00242160
-1.89520563 -1.17270121 0.00304600
-1.35877244 0.54550956 -0.00221889
0.70791512 -0.51245447 0.00675112
-1.11903864 1.01860773 -0.00044460
-2.34136717 0.95495084 -0.00097539
-1.44863003 1.61110823 0.00539050
-0.43153377 0.56918761 -0.00252227
-1.89515345 -0.98446237 0.00128111
1.00304297 0.20142180 -0.00289134
1.35238690 0.25360936 0.01007694
0.34665590 1.43303593 0.00923462
-0.37655041 1.58017888 -0.00044096
-0.63892376 -0.68562317 0.00207943
1.39710638 -1.95381440 0.00002080
-1.63903940 -1.71293704 -0.00139440
0.06052547 0.51228401 0.00047853
-2.44812027 -1.35414581 -0.00016241
-0.98729321 -0.82309466 -0.00608267
-2.01433642 -1.30861018 0.00105209
1.73525880 0.80232457 -0.00016917
-1.01952809 -0.94637014 0.00124880
-2.09900399 -0.60437625 -0.00031007
-0.50965243 1.61672663 -0.00144136
1.21557857 -0.08338490 0.00349964
-1.82571366 0.62464660 0.00213254
2.18006156 -1.68782059 0.00558419
1.74303884 -1.27954178 0.00197892
1.00640467 -1.26457585 -0.00079043
0.50006777 -1.04950166 0.00246707
0.20849031 0.40063148 -0.00792245
0.59260163 0.73119551 0.00841472
-2.15485212 0.81354962 0.00109752
-1.72701138 0.70812981 0.00873782
-1.87981193 -0.08234116 -0.00347738
-0.56615787 1.86938543 -0.00447058
0.65404583 -1.64717635 0.00146333
1.00443231 -1.22344640 0.00145014
-1.06924819 -0.48622784 0.00135298
1.38112720 1.77632376 0.00074330
2.12167588 -1.31726547 -0.00251247
-2.19793261 1.31413208 -0.00594142
-1.05890869 0.33130442 0.00113260
2.39313733 -1.25431198 -0.00513037
-0.62572054 1.47039578 -0.00550803
0.74990274 1.75021203 -0.00152253
0.65859657 -0.78572013 0.00172264
1.52554303 1.03705502 0.00795104
2.16809471 -0.09533227 0.00391704
0.01419644 -0.70470760 0.00573287
-1.15620833 1.98611128 0.00261465
2.38627758 0.11858585 0.00146741
2.27542791 -0.57537821 0.01002316
1.74997162 0.53947263 -0.00529142
1.08533057 0.87281173 -0.00165292
0.67914325 1.40931205 -0.00134072
-0.53993375 1.39675580 0.00357423
-1.58292418 -1.20016232 -0.00391511
1.08671610 1.00051956 0.00305372
2.01150537 -0.90126838 0.00231860
-2.21965274 0.02988690 0.00325339
1.87670233 1.88586341 0.00318089
1.78913148 -0.04017420 0.00615328
1.81691118 -1.14411630 -0.00019684
0.76361895 0.42634507 0.17633690
0.91177945 0.41878812 0.46543617
0.76372514 0.61749809 0.05152388
0.80694484 0.49419680 0.24201636
0.66990190 0.60367708 0.48162329
0.68464919 0.38608925 0.15766197
0.79036362 0.37222576 0.32873219
1.02172866 0.54595608 0.48360486
0.57267577 0.37726983 0.49324797
0.66611776 0.61736215 0.37576398
1.12676353 0.45276802 0.42004368
0.60470252 0.61320800 0.44729223
0.59665722 0.47827151 0.61493026
0.86220509 0.36856044 0.28412546
0.93056761 0.49328222 0.40101605
0.83523183 0.37678383 0.19885445
0.67315611 0.63046236 0.55155776
0.79837196 0.49608401 0.57132255
0.69368257 0.56779680 0.53216702
0.91561841 0.50436754 0.30273016
0.86740904 0.64718526 0.27019259
0.57939595 0.63190345 0.07248907
0.50886383 0.48317049 0.36843915
0.57280574 0.52218643 0.39796462
0.64235345 0.70334642 0.42735702
0.83541868 0.35437870 0.08632847
0.75520751 0.68548577 0.16821156
0.71720520 0.37649038 0.22064793
0.72317336 0.45073888 0.11500570
0.54064988 0.31139919 0.43578508
0.77170972 0.55925534 0.18634836
0.82071415 0.57067787 0.35131299
0.68118055 0.43508845 0.38458913
0.89406974 0.61378566 0.30388212
0.76463458 0.38985700 0.48141209
0.60029714 0.56902556 0.88443299
0.63159851 0.79228033 0.43831439
0.61004492 0.42045438 0.77569201
0.75915864 0.44338471 0.31337709
0.75169309 0.49912793 0.41226185
0.91283331 0.38720293 0.46603346
0.69125229 0.45009547 0.54299135
0.52462892 0.26335666 0.39041594
0.68341843 0.36471527 0.04210055
0.93167601 0.54630148 0.35353623
0.96342939 0.60220625 0.66846982
0.55840553 0.37826074 0.46107354
0.74973991 0.62496620 0.05645800
0.78443169 0.59892686 0.51851097
0.65119667 0.55186152 0.21038172
0.66484647 0.39570637 0.21344017
0.67108452 0.45090633 0.21341754
0.54404835 0.69610958 0.25989867
0.73959587 0.32410280 0.59437684
0.72005928 0.45561255 0.27167461
0.80432918 0.20469046 0.20164520
0.68570994 0.48693889 0.80095615
0.65948878 0.59902270 0.67609829
0.78047369 0.43261839 0.11879223
0.78945043 0.66450252 0.44827336
0.84801378 0.75919470 0.50072737
0.56792406 0.50510608 0.59663873
0.67014643 0.65057056 0.33795136
0.74012169 0.46492590 0.37871654
0.72549369 0.33914581 0.27051321
0.55201503 0.45928914 0.20687052
0.82141854 0.60233999 0.45085295
0.54788209 0.49018652 0.10750538
0.68232479 0.56474212 0.52857878
0.75674137 0.62584716 0.39675615
0.67197277 0.58736605 0.51316570
0.63709940 0.53789823 0.29702359
0.45896862 0.54401065 0.11698601
0.73938691 0.34646937 0.22045993
0.64796814 0.62017248 0.25396729
0.57100349 0.53643451 0.31094475
0.79486727 0.39881201 0.38795370
0.99634802 0.47607210 0.38361147
0.50067517 0.41470207 0.43274973
0.66041227 0.56144330 0.42648896
0.54183647 0.60153063 0.12631671
0.60820937 0.52294849 0.63206414
0.57953484 0.51476845 0.37808368
0.77888320 0.61840305 0.27726645
0.82142191 0.63303217 0.67111265
0.76023080 0.51574369 0.26457479
0.52492159 0.47220465 0.37022079
0.68686092 0.55977180 0.08824881
0.67816309 0.69947695 0.52920778
0.77394282 0.53906824 0.28422227
0.48951157 0.54571286 -0.09071710
0.66093330 0.49963408 0.26950572
0.96056597 0.68243428 0.53590611
0.58896079 0.69214153 0.46141444
0.58696244 0.50327169 0.52254347
0.62813454 0.51405326 0.40696575
0.56789750 0.47299072 0.16541674
0.80424016 0.40919446 0.40252467
0.53318130 0.38665631 0.13726138
0.66525098 0.51803816 0.41565595
0.48733178 0.48313606 0.21489702
0.76410142 0.47323637 0.33545042
0.61060613 0.67246477 0.11895570
0.65203192 0.51075985 0.30475512
0.60832768 0.31883165 0.22552839
0.58487382 0.66792246 0.75764527
0.69390500 0.35952435 0.48284794
0.58227082 0.44508289 0.23680708
0.63993932 0.46452797 0.11356965
0.61575836 0.60199442 0.34395975
0.71503766 0.27677519 0.52060106
0.61773761 0.61239686 0.37776946
0.63255359 0.33222104 0.74147227
0.79638967 0.58630744 0.67738899
0.72689044 0.63524001 0.26385645
0.78850942 0.43699033 0.25930542
0.71164007 0.37326011 0.40929636
0.66256501 0.30124394 0.26762086
0.65859344 0.58528365 0.40133563
0.87369668 0.55201096 0.25028701
-0.90933750 -0.44176576 0.55735403
-0.89042846 -0.47542716 0.45189210
-0.82621109 -0.52077058 0.51974193
-1.15258930 -0.26733144 0.56597978
-0.63931471 -0.53399157 0.69935938
-0.75027519 -0.42186785 0.36713846
-1.07362337 -0.56149716 0.28472845
-1.10092410 -0.20851330 0.11954858
-0.87617672 -0.34771538 0.52864983
-0.82875382 -0.28643196 0.35189712
-0.88599190 -0.43522738 0.73655563
-0.56402145 -0.54327205 0.00315781
-0.80893895 -0.27155525 0.88053501
-0.78193754 -0.23250628 0.81521336
-0.66563556 -0.29426074 0.16791390
-0.90133790 -0.36399537 0.42804188
-0.90609695 -0.21193263 0.28349703
-0.77215162 -0.36202701 0.26134287
-1.07225624 -0.60415781 0.55682695
-0.91011917 -0.49909329 0.03725687
-0.83076626 -0.42084728 0.29298744
-1.05424639 -0.42862902 0.55339923
-0.95279728 -0.54262316 0.43721251
-0.73271241 -0.39516789 0.46505318
-0.95210703 -0.50675966 0.24696257
-1.16589665 -0.25825290 0.55173992
-0.88680211 -0.36453007 0.52469647
-1.01752741 -0.43903148 0.34567409
-0.49817216 -0.27757576 0.48693410
-0.68144252 -0.25123741 0.14628465
-0.93565652 -0.40195893 0.58453615
-0.93583884 -0.41182373 0.34850326
-0.73217037 -0.57320085 0.35598195
-1.19498816 -0.52355673 0.51977904
-0.84621531 -0.43758300 0.69727673
-0.68335314 -0.40830728 0.50509523
-0.97240711 -0.32477347 0.18730669
-0.61266643 -0.26320177 0.18623620
-1.02624296 -0.34945015 0.37558476
-0.81286407 -0.44312756 0.78545859
-0.89867088 -0.10953338 0.58258857
-1.11590469 -0.14962041 0.69170937
-0.83917638 -0.32240399 0.18840971
-1.18870018 -0.40500996 0.75332947
-0.83668659 -0.19489942 0.74066857
-0.89670261 -0.25794917 0.78497098
-0.91282912 -0.42565307 0.48089911
-1.28590525 -0.36634817 0.60849636
-0.87687823 -0.35863907 0.44043520
-1.21952350 -0.20048863 0.36907765
-0.99884322 -0.23704207 0.66531410
-0.85630946 -0.30767563 0.19590257
-0.91294310 -0.24462591 0.30102880
-1.05973333 -0.39056753 0.47245254
-0.79638846 -0.56537829 -0.11086289
-0.75260289 -0.52995784 0.31580212
-1.24931768 -0.27725048 0.52707441
-0.85036887 -0.36358539 -0.00323567
-1.05762656 -0.45420725 0.28527659
-0.94344185 -0.37045604 0.67141643
-1.13683264 -0.40106025 0.60653961
-1.04785331 -0.42313993 0.55264147
-0.89820658 -0.31909627 0.47083359
-0.94989801 -0.54072517 0.50437708
-0.88400436 -0.51913984 0.57805228
-0.69713224 -0.47921117 0.28992093
-1.02226377 -0.60143939 0.89098597
-0.97182166 -0.50301450 0.20210949
-0.96207479 -0.48342512 0.76637610
-1.09979805 -0.58462411 0.57139250
-0.91715304 -0.42675338 0.57311997
-0.87812614 -0.40561811 0.14075786
-1.16689522 -0.48405141 0.21143971
-0.85692707 -0.61584579 0.35162478
-0.92769198 -0.40475863 0.53777214
-0.95224643 -0.48009904 0.72378563
-0.95120523 -0.22970436 0.37847201
-0.90260315 -0.41664968 0.50086809
-0.96717571 -0.38846380 0.78677909
-0.73218371 -0.27331140 0.15477527
-1.08881919 -0.37386989 0.61956234
-0.98306169 -0.48371018 0.75664546
-0.79025973 -0.27304160 0.35288099
-0.98320329 -0.28613313 0.39220031
-0.99773712 -0.50958357 0.33751507
-0.75998663 -0.58115978 0.58839154
-1.01331500 -0.42523605 0.41782597
-0.93531918 -0.43445532 0.35224169
-0.99142803 -0.24162717 0.45551085
-0.92015173 -0.47735833 0.36025236
-1.00258739 -0.30815870 0.28420820
-1.25939934 -0.39300304 0.38853402
-0.99372611 -0.29061327 -0.15137431
-0.64780095 -0.27343867 0.31182828
-0.97212548 -0.33947357 0.56686752
-1.00142110 -0.59401321 0.91501240
-0.74702015 -0.38117764 0.48867055
-0.80058928 -0.31107241 -0.00900067
-0.95613952 -0.45457959 0.41448438
-0.77667297 -0.61480962 0.15318868
-1.00907921 -0.38147858 0.63306763
-0.63898825 -0.43436250 0.63270580
-0.78637400 -0.33499970 0.44465819
-0.96392511 -0.52784792 0.20104957
-0.84446691 -0.40653070 0.35858838
-0.79363062 -0.42405870 0.24910059
-0.94263969 -0.30152442 0.22482708
-0.86651571 -0.40665109 0.28262182
-0.94693635 -0.58860196 0.47412084
-1.11835728 -0.27130753 0.42976607
-0.99149019 -0.26073288 0.22299325
-1.01962926 -0.61950960 0.73809139
-0.60034149 -0.60083128 0.27053006
-0.88882983 -0.46188330 0.44311070
-0.91881567 -0.35109378 0.23858759
-0.86917446 -0.53393529 0.35939126
-1.17788021 -0.44854578 0.32399773
-0.74902730 -0.40711121 0.47695071
-0.90359232 -0.65549306 0.01067182
-0.95098842 -0.36657280 0.39832966
1.31359410 -0.81922505 0.21074974
1.47790032 -0.74215840 0.18359026
1.39500757 -0.77790406 0.30095733
1.56525981 -0.80225181 0.39024938
1.28399169 -0.85101391 -0.00629893
1.41513065 -0.74819808 -0.05664621
1.41882864 -0.75166317 0.31566851
1.28041389 -0.73815040 0.25111654
1.45910376 -0.81006863 0.29572448
1.51092358 -0.81632176 0.28409258
1.52497687 -0.81065841 0.11495246
1.46760431 -0.68520979 0.40465402
1.47149878 -0.98753261 0.17370007
1.34153995 -0.79641053 0.45259178
1.29194584 -0.62062383 0.20412064
1.32330987 -0.73238362 0.36091651
1.46499469 -0.86155644 0.31024338
1.29664423 -0.86377967 0.23861558
1.31800364 -0.71578014 0.18061990
1.37795438 -0.87041586 0.37451318
1.33338730 -0.70863911 0.37822523
1.35540590 -0.79762658 0.19315492
1.45457220 -0.81555770 0.19990232
1.40461792 -0.92657726 0.24089821
1.46496120 -0.78895565 0.36419879
1.36227019 -0.83674326 0.11592172
1.35942551 -0.64272859 0.28306520
1.34144638 -0.88049136 0.05817631
1.31696064 -0.73926452 0.19875619
1.30418283 -0.86785470 0.32793770
1.39187369 -0.85017635 0.21299340
1.62058831 -0.70243015 0.42623504
1.22478961 -0.81208818 0.17262531
1.45438402 -0.71521545 0.28917115
1.31275300 -0.85288107 0.32446850
1.47200732 -0.78872381 0.26557491
1.40501225 -0.77847228 0.33591532
1.46301657 -0.79811317 0.24411407
1.39127017 -0.86242645 0.15483662
1.45439563 -0.85702951 0.34767206
1.39486573 -0.73443238 0.32643506
1.48429299 -0.83810926 0.29906793
1.47378880 -0.92410614 0.45420321
1.62659530 -0.72421694 0.34670569
1.45887586 -0.82587467 0.23677957
1.49644049 -0.87785738 0.12271397
1.36026708 -0.74749975 0.14608766
1.37745839 -0.80853405 0.12857569
1.15602321 -0.88212100 0.28130638
1.44861435 -0.76045096 0.32314869
1.33736051 -0.86724873 0.29500696
1.37882499 -0.72743371 0.29576483
1.52838206 -0.83724290 0.37810411
1.60346759 -0.79570060 0.30991680
1.30694717 -0.72847548 0.38548698
1.35055468 -0.75310723 0.28365673
1.43907853 -0.73503842 0.31226794
1.38610122 -0.73333629 0.38342273
1.34458056 -0.80014393 0.03775686
1.45835980 -0.70215059 0.21912457
1.41334362 -0.81761566 0.20393245
1.42321713 -0.86273940 0.22176677
1.30954491 -0.75287387 0.27870857
1.35687621 -0.79703370 0.22351297
1.51438952 -0.83528099 0.32620540
1.32947927 -0.73486093 0.37447667
1.50845063 -0.68231865 0.28509340
1.52379467 -0.67006560 0.11535372
1.33967619 -0.91965606 0.37733729
1.24914677 -0.94238739 0.11831288
1.22616880 -0.77822736 0.11985488
1.23097171 -0.80334987 0.25205344
1.21302169 -0.85709609 0.24104335
1.36431767 -0.82635866 0.39151444
1.61465448 -0.82506388 0.09137422
1.37654169 -0.78445655 0.24360657
1.46106911 -0.62304726 0.04442550
1.34929203 -0.67670855 0.18735453
1.47894935 -0.74952794 0.39842558
1.59133397 -0.77335418 0.04050043
1.32995928 -0.62511577 0.08029626
1.44968066 -1.00116074 0.08785274
1.48869373 -0.79712313 0.20482698
1.31856440 -0.95972340 0.33320871
1.37168526 -0.92174921 0.25362270
1.45812480 -0.81605390 0.26391912
1.40381268 -0.85654358 0.25651115
1.47352169 -0.71722851 0.34488752
1.33249020 -0.74910300 0.30585597
1.32902912 -0.83714502 0.33156317
1.53769082 -0.94493375 0.44680735
1.51641597 -0.78407052 0.22111401
1.43904334 -0.85124523 0.22867660
1.25249730 -0.93932184 0.52987680
1.40630752 -0.78370488 0.24631206
1.31722260 -0.82456497 0.26094264
1.38033617 -0.86017622 0.30753866
1.41883647 -0.76856738 0.33460538
1.38294761 -0.81351104 0.42789431
1.30559848 -0.94989054 0.31666464
1.33706499 -0.88618808 0.35622856
1.38552316 -0.90108512 0.48219353
1.23893137 -0.80693427 0.02328679
1.42706582 -0.85128870 0.34831298
1.39826136 -0.69195138 0.19843433
1.23954556 -0.78099872 0.21969310
1.21807401 -0.88443042 0.16154411
1.55553834 -0.74340434 0.20827178
1.44708697 -0.96315679 0.18221127
1.44009954 -0.78676990 0.18527726
1.39616919 -0.77295132 0.24887720
1.48610040 -0.77450383 0.31134886
1.57135548 -0.73379949 0.45891501
1.33280856 -0.92739311 0.23316631
1.37744036 -0.68324687 0.11439467
1.39211210 -0.76758565 0.26201230
1.38284704 -0.77131452 0.37949172
1.55357455 -0.79737542 0.15209851
1.55345341 -0.88621068 0.46486946
1.53441354 -0.68084810 0.33224690
-0.05038501 -1.70628589 1.04389783
0.19395552 -0.33553761 0.50676218
-2.35845732 0.07550249 0.59691249
-0.77057371 0.63470917 0.52268708
0.35882002 1.54016970 0.46846971
-0.51038080 1.46361589 0.46180802
-0.30318550 1.20324889 0.73064694
2.16942924 -0.11734824 0.60088037
-2.28535815 -1.21078735 0.67099921
-1.56444682 -0.18566642 0.37581476
-2.39593335 -0.09956229 0.79321048
-0.80883152 1.10610785 0.21796202
-2.04354132 1.73936598 1.10990503
-0.46727876 -0.32027245 1.02869092
0.15260559 -1.53154485 0.18210446
-1.84434631 1.12306082 0.74218071
-1.00116904 -1.35170632 0.19198305
1.20693754 1.54345028 0.66074014
1.36355049 -0.86748638 0.72351336
-0.30980576 -1.64922323 0.61047179
1.73393374 -1.79286993 0.59867187
1.86631538 1.16028772 0.61746748
-1.64327680 1.39410479 0.22610477
-1.11589643 -1.50289923 0.57786048
0.64598964 1.30847324 0.58053825
2.35360136 0.38342795 0.74507154
-1.62355985 -1.23953586 0.71312008
1.10439702 -1.18117325 0.60662033
-0.71899969 -0.24494498 0.30545058
-1.79638568 -0.71799588 1.04925417
1.52612880 -1.59338347 0.15097979
-0.03524386 -0.89047119 0.99693966
-0.06909410 1.41083096 0.17442864
2.35038538 1.06840537 0.89165805
2.20108081 -0.11878904 0.22122225
-0.01549627 1.26089536 1.03847440
-0.05727147 0.92920888 0.33399561
-1.34726479 0.34503821 0.53501384
-1.69473795 1.04544997 0.66196956
0.10196154 -1.24276192 0.32731173
0.96353942 1.40761233 0.25379397
1.56172861 1.15238067 0.98714859
0.40871907 -0.59263193 0.93667406
-0.10027289 -1.11254367 0.51274477
-0.21141579 0.02138061 1.08219811
-0.44417494 -0.86075673 1.15670015
-1.29025905 -1.95553484 1.02729417
2.27222885 0.72852779 0.51879710
0.21877343 1.32800628 1.06814138
-1.98737057 1.47198687 0.75995229
