ply
format ascii 1.0
element vertex 1212
property float x
property float y
property float z
end_header
-1.11959371 -0.22240033 0.00139163
-0.18672252 -1.48320168 0.00246489
1.11701245 1.49000111 0.00119016
0.11476348 -0.33522391 -0.00707158
-0.42899243 -1.21176860 -0.00599357
-0.93535273 0.00639837 0.00239329
-0.27260800 0.13510424 0.00883004
1.39626259 -0.82427309 0.00091449
-1.88934328 -1.38532366 -0.00247001
-1.46332478 0.21144895 0.00134604
1.23273924 1.16041782 -0.00682093
0.54045281 -0.29057024 0.00785366
-1.38194117 -0.29574498 0.00111956
-0.67033946 1.11007764 -0.00401674
-0.05312249 -0.82141230 -0.00100077
-0.84479573 -1.09058951 -0.00316222
1.67434180 -1.34896246 0.00787002
-1.94861501 -0.95103320 -0.00121344
1.24349607 0.07040036 0.00093219
0.50337315 -0.42680497 0.00344236
-1.72528806 1.06847449 -0.00444460
-1.23242291 -1.40082240 0.00116226
0.29081654 -1.25013234 0.00164661
-1.61695259 0.90113109 -0.00932447
-0.03356164 -0.77547464 0.00151618
-0.60549431 0.68772294 -0.00027457
-1.73458342 -1.15055815 0.00077980
0.46504814 0.32091520 0.00021378
1.88984874 -0.37635156 0.00155502
-1.73968949 0.11261230 0.00802406
0.55338725 -1.08119164 -0.00707704
0.21144789 -0.90669864 -0.00205291
1.37892023 1.00548449 0.00399971
-0.28148362 1.40022957 0.00288556
1.91909550 -1.11224673 0.00275643
-0.52914478 0.30096441 0.01652146
-1.66064876 -0.35203349 0.00368481
-0.95531166 1.35615066 0.00678563
-0.35365671 0.78801258 -0.00184243
-0.45317855 -1.10456379 -0.00595747
1.45260612 -1.49874925 -0.00188590
-1.77623650 -0.40684678 0.00427176
0.74759302 -0.47488711 0.00244097
-1.73474873 -0.54647990 0.00241951
-1.02007656 -1.48374060 -0.00128607
0.13920765 -1.15006226 -0.00224282
-0.85001484 0.42356949 -0.00107914
0.90046276 -0.70963312 0.00434685
-0.68322532 -0.75927229 0.00504436
1.82755440 -0.92844082 -0.00603745
-1.26727759 -0.16489411 0.00457406
-1.24277456 -1.02987463 -0.00390433
-1.61648185 0.42051374 0.00281353
0.44832902 0.45048868 -0.00115179
1.09320003 -0.52092596 0.00939473
1.67369493 0.69961383 -0.00250845
1.21883435 0.66288649 0.00107167
-0.56617742 -0.65090254 0.00363956
-0.30993172 -1.20890892 -0.00524375
-0.19487799 -1.37057705 -0.00043714
-1.98421616 1.29449682 -0.00159951
0.75734744 0.18554084 -0.00308288
-0.63559184 0.21161404 -0.00263834
1.56630311 0.45714040 0.00667209
0.40992799 -0.11938649 -0.00359130
-0.61721188 0.59564134 0.00339845
1.92392376 -0.22572692 0.00188757
-0.43117918 -0.21565958 -0.00838188
-0.29782413 1.47187432 0.00311502
0.82711303 -0.42244665 -0.00848108
-0.51399050 -0.20760923 0.00376855
-1.85315125 0.08344921 -0.00304315
1.24552381 0.48170338 0.00005020
-1.20631661 0.68410272 -0.00776568
0.87783443 -0.71238235 0.00073429
0.49149863 0.33284710 0.00556170
1.35915050 -1.09178306 -0.00484179
-1.22064598 -0.04209149 -0.00364300
-1.82341940 -0.25321741 0.00272773
1.15287617 -1.05385682 0.00287771
0.02368005 -0.00502853 0.01209244
0.23517433 -0.94198689 0.00317132
-1.41134447 0.53206389 0.00418151
-0.41693276 -0.63028012 -0.00086124
-1.87443352 1.03815149 -0.01113212
-1.87068454 0.74994937 0.00404833
-0.47204576 0.29606343 -0.00339113
-1.00928800 -1.03380100 0.00326359
0.13355200 0.58685308 -0.00131281
-1.21802682 -0.19092316 0.00142824
-0.22138012 -0.85206255 -0.00464998
0.26019779 -1.06219294 0.00518633
0.03899669 -1.15970547 -0.00713027
-0.05783036 -0.56520284 0.01347342
-0.19101483 -0.19875192 0.01342769
1.63173249 -0.03019320 0.00979620
1.27399562 -0.82304282 0.00765287
-0.59166882 -1.27473186 -0.00050729
-0.31700882 0.50609966 0.00699928
1.35266814 0.19774474 -0.00057706
0.56029068 -0.96819877 -0.00932111
-1.85117585 0.87506444 0.00901921
-1.33184717 -1.22649139 0.00677295
1.75024928 1.39056409 -0.00018803
0.46502917 -0.36408818 -0.00735111
1.33295816 -0.88584012 -0.00351720
-0.28243069 -0.42894810 -0.01092687
1.65079996 1.25933225 0.00567049
0.60354371 -1.16777958 -0.00961985
-0.07122884 -0.76401490 0.00172099
1.53966265 -1.08479160 -0.00506216
-1.78275890 0.61328710 -0.00856022
-0.18685570 1.01509466 0.00143013
-1.70148148 0.90322840 -0.00200280
-1.85066099 -1.41578996 0.00502913
-0.15473699 -0.83612613 -0.00760563
0.37487483 -1.42254902 -0.00454389
-1.85844183 0.68144549 -0.01432585
-1.15933935 0.46925137 -0.01310608
0.99968865 -1.32200650 0.01078915
1.07901582 -0.69473635 0.01250159
-0.44181617 -1.24008242 0.00055636
1.35451993 0.18218636 -0.00494297
0.01866111 1.40566443 -0.00179069
-0.66197696 1.17233786 0.00524145
0.87875152 1.28558441 -0.00308633
1.63120821 1.47308942 0.00142580
-1.47329299 0.88804918 -0.00007654
1.21797742 0.43312058 -0.00341288
-0.88455617 1.39544481 -0.00315716
-1.18231145 -0.00127386 0.00175993
0.08594845 -1.01451197 -0.00586133
0.89011529 -1.23339851 0.00271038
0.77239112 1.04584649 -0.00282947
-0.60241430 0.62826243 0.00076420
-1.37290397 1.03784700 0.00830378
1.80812679 -1.04191892 -0.00100915
0.76743790 0.01749329 0.00551883
0.12599733 0.61946916 -0.01075220
-0.04503800 0.30097918 -0.00282218
-1.07639592 -0.36448021 0.00016613
1.46096140 -1.17029247 0.01153998
0.39030104 -0.94713881 -0.01175971
1.38615839 0.23713186 -0.00057726
-0.38780487 -0.75052598 0.00874013
-0.25262120 1.37283698 -0.00471012
0.03683716 -0.09153140 -0.00127703
0.98509525 -0.36285879 0.00199043
-0.29030420 -0.48915681 0.00110705
-1.39632098 0.64142764 0.00939462
1.49212366 1.21677795 0.00269084
1.52321175 -0.14464859 0.00796664
-0.86373523 0.41377125 -0.00216005
1.81881965 0.68115194 -0.00444315
-0.02060575 0.56642572 -0.00135434
1.09015165 1.25780778 -0.00695462
1.05286302 -0.20042833 0.00290107
-0.90557393 -0.00035501 -0.00231527
-0.68728822 1.32829378 -0.00403073
0.03186337 -0.08383099 0.00299195
-0.60721513 0.41822097 -0.00686229
0.08020511 -1.11285323 0.00462301
1.47683124 -0.42296150 -0.00287002
-0.26968628 -0.88299883 0.00695458
0.21359283 0.60616519 -0.00235643
1.52466128 -1.34517701 0.00379146
1.89332764 0.61145323 0.00107737
-0.86280526 -0.88657573 0.00446341
-0.81564833 1.12717725 0.00065968
-0.83443931 -0.11153660 -0.00998038
0.82295222 1.11596959 0.00605276
0.63428465 0.75932759 -0.00052610
-1.30669281 1.13222348 0.00473710
-0.89712327 -1.11486551 0.00414148
1.90497716 -0.89508022 -0.00463978
-1.45339212 0.37806270 -0.00548877
-0.72454740 -1.09995238 0.00393213
0.40448447 0.77695568 -0.00181949
1.17279350 -1.03346220 0.00561858
0.22746827 0.94103511 -0.00106921
-1.35565195 -0.87695324 0.00614046
-1.99035441 0.07390247 0.00253983
-1.22127321 0.67272773 0.00172785
1.84885542 -0.87373353 -0.00224407
0.59638805 -0.86449662 0.00139457
-1.92797256 0.77566258 0.00715712
-0.26398129 1.34036058 -0.00032529
0.13714353 -1.02755139 0.00318705
-0.20090223 -0.89132462 0.00027816
1.51211709 0.57270954 0.00074762
-0.63504478 0.08346097 0.01034046
0.67792075 0.84857315 0.00721038
-1.67941116 -1.43244347 0.00047642
-1.54218921 -0.31501107 0.00128672
-0.13317356 -1.09061511 -0.00421122
-0.35538745 -0.17513164 -0.00103783
-1.56364015 1.24997988 0.00185639
0.39658371 -0.33439341 0.00510368
0.02762873 -0.55740754 0.00449533
1.41732413 0.22504512 -0.00665555
-0.02041674 1.23265621 0.00586190
1.35191879 0.93840567 -0.00053264
-1.09756318 -1.04063067 -0.00592195
0.76038608 -0.09407323 0.00801831
0.73485085 0.78188170 0.00877967
-0.81874597 -0.64604870 0.00158248
-0.03667373 -0.67935206 0.00425276
0.66918110 0.74019134 0.00460470
-0.11184422 0.67139930 0.00837463
0.04175028 0.63861517 0.00436841
-1.10012701 0.71652914 -0.00796613
0.86049609 -0.70018288 0.01205885
0.22388396 1.06593500 0.00639394
-1.00190941 0.70793935 -0.00305715
1.81586687 1.09872576 -0.00617775
-0.39391967 0.32162320 0.00302888
1.96708054 0.20531223 -0.00166956
-1.53988959 -1.36370774 0.00197997
1.16125804 -0.22911502 0.00446044
-1.01274844 -0.45698391 -0.00339865
1.02949147 -0.10425799 -0.00669665
1.47399797 0.70477677 0.00231491
1.89605660 1.16551130 -0.00320033
-0.98181115 0.47717770 0.00087657
-1.91782786 1.47332017 -0.00805996
-0.95597556 0.49438528 -0.00151310
1.39661448 -1.01860601 0.00428971
1.39151737 -1.46326300 0.00363560
-0.23209145 -0.08388713 -0.00473015
-0.50363715 0.25915424 -0.00700959
1.65936939 -0.51903266 0.00009458
0.31703955 1.13238758 0.00336620
1.09198158 -1.37780021 0.00243105
1.77116306 -1.36005929 -0.00307296
0.35503390 0.22606086 0.00178695
1.14556092 -1.05467084 0.00901413
-1.28251843 0.75632080 0.00123087
-1.40198099 -0.09166462 -0.00979889
0.92659236 0.45372579 0.00121920
-1.15758326 -0.58811922 0.01226374
1.87589961 -0.15398814 -0.00772434
-1.82217009 -0.84124530 0.00017835
-0.63025964 1.49846821 -0.00135801
-0.78923381 -1.42081245 0.00057530
0.05168631 -1.24918385 0.00116551
-0.90372961 1.47714953 0.00683983
0.81855408 -1.34800011 0.00050870
-0.20525313 -0.98508746 0.00766356
-1.50822137 0.26119624 -0.00070593
0.02262356 0.72859975 -0.00210082
1.56922491 -0.75995443 -0.00401510
1.69196795 0.05397532 -0.01090252
-0.96466033 1.03735751 0.00165469
-1.85788033 0.17852813 0.01232400
0.88648614 -0.66006694 0.00274941
1.45396767 -0.77914631 0.00412048
1.35949713 -1.26436511 -0.00247819
-1.36028963 -0.35704625 -0.00146600
1.41622205 -1.06624390 0.00590785
1.50175296 -0.81080542 0.01205216
-0.18996641 -0.44179679 0.00892769
-1.52749509 1.33292922 0.00483147
-0.24728684 0.57099378 0.00021090
0.30107071 0.00514775 0.00125831
0.46631049 1.19502692 -0.00452104
0.79724950 0.09744024 -0.00868901
0.58074384 0.31918284 -0.00676079
-0.26751517 0.37429203 0.00029880
-0.22572080 0.77284313 -0.00175195
1.87564993 1.37959607 -0.00881665
1.28294315 0.30527669 -0.00022394
0.99732795 -0.96585511 -0.00191058
-0.08392617 -0.72808571 -0.00703709
-1.98602008 1.40021272 -0.00222107
1.45539425 0.04109586 -0.00192572
-0.98339085 0.57892563 -0.00369982
-0.26079566 0.91004860 0.00556002
1.99807244 -0.45275218 -0.01141741
-1.02238783 -0.69785253 -0.01191479
-1.62661502 -0.31786141 0.00001971
-1.93029979 -1.15681333 0.00057676
-0.91321701 -1.02041167 0.00242529
0.92863640 -1.18318563 -0.00323384
1.46397642 -0.83665649 -0.00550754
-1.56563753 -1.46968007 -0.00004390
0.86082002 -0.73014976 -0.00264947
0.03799442 -1.16515186 0.00930643
1.94118369 -1.12384578 -0.00194536
-0.35229629 1.05494851 -0.00031911
-1.02045221 -0.69908464 0.01485251
1.23399806 -0.67998103 -0.00116856
-1.98851476 -0.21625884 0.00333694
-1.94985916 1.22937685 0.00387786
0.56725290 0.24904280 0.00438841
-1.19364196 0.59983856 0.00173692
0.70901857 -1.31860928 0.00116304
1.52338612 0.23824009 0.00060201
1.16986752 -0.71125778 -0.00345596
-1.51180880 0.60734872 0.00195311
1.17553075 -0.34189940 0.01217188
-1.90523090 0.95476207 0.00726409
-1.17562437 -0.48290417 0.00182351
0.51292403 -1.20013584 0.00513498
-1.71201694 -1.42288869 -0.00521506
1.66655944 -0.56585177 -0.00156307
0.64263526 1.46770575 0.00568710
0.67780317 0.07528439 0.00892300
0.08367973 -0.36924855 -0.00462520
0.39911862 1.37637417 -0.00290153
1.15217613 -0.22732015 0.01308825
-0.67022068 1.15059459 0.00057757
-1.45685670 1.04875577 0.01094017
-0.97969295 0.64688771 0.00124114
1.22488232 -0.06901045 0.00147708
-1.23086410 1.03430323 -0.00183295
-0.52996662 -0.53795922 0.00565533
0.04006473 -0.19474128 0.00814667
0.73220887 -1.08840657 -0.00621001
-0.25724138 1.17510543 -0.00211470
-1.85574916 -0.12798500 0.00549047
0.64212787 1.16313326 -0.00077729
0.37514491 0.97345281 -0.00296031
-1.10923592 -0.44157169 0.00605725
1.76852910 1.15792534 0.00662072
0.23181193 -0.07353499 -0.00269785
-0.19573043 -1.32363102 0.00127420
1.56950842 0.95444853 -0.00725085
-0.17499542 -0.66168008 -0.00537289
-0.62831757 -1.13051824 0.00074499
0.88715897 0.17000957 0.00018844
-1.06358631 0.36901672 -0.00580126
1.91692086 -1.13281459 -0.00429584
-0.16605996 -0.01752354 -0.00639027
-1.33281114 0.09474063 0.00273036
0.42390903 -1.02796638 -0.01180584
-1.38110440 1.06904615 -0.00606946
-0.75445025 0.39100016 -0.01117765
0.50709230 1.01751263 0.00251412
0.95957852 1.02172930 -0.01081640
0.50085916 -0.15162852 0.00019038
-0.42573391 -0.36291070 0.00983714
-0.32642761 -1.11207224 0.01004060
-0.30416652 -0.33166528 -0.01083545
-1.86171335 -0.67460773 0.00179046
1.00762790 0.23383671 -0.00593383
1.22466999 0.12806413 -0.00715882
1.41633506 0.88820130 -0.00068082
-1.60686172 1.43101910 0.00736975
-1.94101021 0.29051411 0.00359795
1.17004604 -0.50431758 -0.00429085
0.39427917 -0.41363241 0.00423020
-1.75754010 -1.47461544 -0.01346225
-1.62055188 -1.20477122 -0.00451767
0.44355911 0.07759569 -0.00494335
-0.17814680 0.57576443 0.00046992
-1.93269545 -0.68704956 -0.00121697
1.10957093 1.22993132 -0.00084883
-0.24665362 -1.25554806 -0.00104832
1.19491496 1.15551130 0.00013444
-0.34535892 -0.76993424 0.00324079
-1.82411333 0.27324847 0.00089599
1.63947796 0.53366408 -0.00170611
-0.73100561 0.42866497 0.00241049
1.32827363 -0.07250982 0.00495674
1.27899396 -0.32427097 -0.00333616
-0.60597729 0.24896588 -0.00035642
-0.14125433 1.43133576 0.00697144
0.06555769 -0.34448391 -0.00661656
-0.42026583 0.14381985 0.01082821
-0.58035185 0.66871981 -0.00803493
-0.47734829 -0.34756684 -0.00207219
0.46789300 -1.31745938 -0.00570114
0.62141967 0.01491665 0.01312756
-0.18789554 0.65775897 -0.00302010
1.03302313 1.03878259 -0.00300505
-0.50078752 -0.51888692 -0.00222449
0.85736841 0.24541458 0.00057362
0.52720619 0.16656872 -0.00197065
1.09077209 -0.92987733 -0.00079732
0.22284853 -1.02569463 -0.02117526
-0.37099224 0.49198147 0.00034296
-0.02771357 -0.36122539 0.00010684
1.53988001 0.81847714 0.00623141
0.10516314 1.35015947 0.00785437
-0.30253884 0.86421878 -0.00112625
-1.32825504 -0.64262257 0.00489737
-0.64765767 -1.18253774 -0.00660941
0.00721926 -0.92321960 0.00460405
0.53674356 -0.92972292 -0.00343485
-1.50597497 1.40726018 -0.00710818
0.63296122 1.30935274 -0.00111353
-0.04044883 -1.39979261 0.00840283
0.29748468 0.17498666 0.00108603
-1.94009758 1.08372613 0.00897893
0.47988272 0.73407351 -0.00449240
-0.02431558 0.35520731 0.00628711
-0.97012043 1.42127330 -0.00391296
-0.39711997 -1.01302014 0.00135197
-1.77633833 0.40851580 0.00130010
1.93351940 1.18738349 0.00396895
0.80841827 1.47179379 0.00150444
0.89131305 -0.48224663 -0.00443511
0.40487253 -1.26070007 0.00528184
-1.11327004 -0.24737929 0.01038994
-1.19272603 1.36050304 -0.00350282
1.98239011 -0.38719224 -0.01101139
0.83691594 -0.27668781 0.00299592
-1.44196318 -0.48921946 -0.00198708
-1.06651321 -0.51576534 -0.00078662
-1.13991325 -1.16296464 0.00333707
-1.13028628 1.21727110 -0.00273835
-1.65911330 -0.52573007 -0.00161311
0.11379958 -0.43646203 -0.00060072
0.07042838 -1.36973982 0.00881852
0.59427853 0.19043640 0.00018042
0.72386506 0.20177345 -0.00741404
-0.24838567 -0.44957537 -0.00717527
-1.09425924 0.00020318 0.00083538
-1.89579019 -0.51527752 -0.00677657
0.71148917 -1.17384888 -0.00937382
-1.74843503 0.45653582 0.00381322
-0.40890112 0.90547511 0.00410699
1.74924522 1.37112136 -0.00220882
-0.29762858 -0.70701833 0.00176196
0.43445495 0.38457878 0.00112873
0.48937974 -0.53466416 0.00361452
-1.74499305 -0.86998548 0.00362850
-1.38232229 -1.12829896 -0.01563473
1.70513328 -1.45845706 -0.00144299
0.40743096 1.34242139 0.00310743
-0.55978749 0.08129427 -0.00246274
0.78313465 -0.54849092 0.00021722
-0.08939205 0.95130855 0.00450420
0.98142266 0.92534823 0.00048555
1.94936065 -0.38901758 0.00904752
0.98836505 0.30835370 0.00676192
0.66641907 0.71962171 -0.00071138
0.99892527 1.15723545 -0.00118828
-0.60271330 0.46044407 -0.01710194
-0.87883827 0.28370612 -0.00195901
1.00470056 0.87300326 -0.00811961
-0.31950199 0.02616067 0.00132738
-0.66460060 -0.99289096 0.00091722
-0.95793038 1.23641101 0.00417513
-0.76412183 1.42427800 0.00838002
-1.03408766 0.66921326 -0.00015762
0.29561317 0.59061015 0.01368250
0.57583179 0.62024575 0.00139471
1.62218819 0.19040849 -0.00786130
-1.72860487 -0.68752370 -0.00337243
0.83287592 -0.01777612 -0.00223648
0.19420793 0.28974137 0.00355276
-0.46948291 0.82168658 -0.00568350
0.89413954 0.64289824 -0.00178786
0.86124070 1.17107400 -0.00096624
0.38157112 1.40121660 -0.00268872
-1.52322926 0.39587693 0.00486849
0.86770618 -0.06833877 0.00384793
-0.84716645 0.15011236 0.00699940
-0.54100928 1.22737221 -0.00198615
-0.57283035 -0.97287902 0.00721517
0.30555656 -0.31202223 -0.00818398
-1.61640742 0.19452705 -0.00833031
0.15138564 -0.98040874 -0.00728281
0.39055268 0.20207692 0.00005527
1.09445049 -0.41529021 0.00721427
-1.00496191 1.35365966 -0.00361285
0.24487009 -1.41858012 -0.00286016
1.28284674 -0.90972582 -0.00129611
1.14414527 0.61548728 0.00343697
1.87525490 1.39673790 -0.00286575
-0.90235750 0.79934874 -0.00320050
-0.73257966 0.38759382 -0.00807237
0.39098434 -1.33636945 -0.00343033
-1.97927300 -1.32670796 0.00706477
-1.48823181 -0.72704253 0.00054556
1.62782089 0.05589803 -0.00443913
1.18756696 1.01493526 0.00741686
0.93977239 -0.32584463 -0.00351128
1.45543758 0.72614926 0.00851973
0.97260577 1.20472298 0.00842164
0.39465389 0.08572329 0.00033607
1.56065023 -0.13661482 -0.00899130
1.24628278 -1.33846092 0.01373700
-1.99484022 0.08487747 0.00232366
-1.70555242 1.42962904 -0.00194332
-1.97799530 0.65444891 0.00573677
-1.02646122 1.40265602 0.00421382
-0.47383340 -1.41814972 0.00786563
-1.89225694 0.16012012 -0.00397409
1.94684792 1.43932061 0.00191084
-0.65090811 -0.05188905 -0.00711522
-1.59817678 0.06653057 0.00399801
0.39880640 -0.74681500 -0.00013767
0.44845774 1.19907826 0.00168606
-1.99617867 -0.81319868 -0.00087810
-1.16032175 -1.12834139 -0.00150593
-1.33559515 0.37773764 -0.00520939
-1.58922244 0.71559483 0.00474258
1.54809036 1.27976317 0.00893822
0.64070326 -0.90781077 -0.00334001
-1.65881370 -0.80392514 0.00332124
1.84782874 1.38703561 0.00259310
-0.47232446 -0.52262538 0.00004859
0.04004233 -0.62493573 -0.00915957
1.91864981 -0.83633583 -0.00780958
-0.52342927 -0.21188737 -0.00468589
-1.49974391 -0.35152552 -0.01283403
1.42692288 -1.07891700 0.00844818
0.33608780 -0.28008859 0.00220622
-1.31785310 -1.46299151 -0.00017977
-0.90662679 -1.31451312 -0.01314141
-0.49292611 0.93062957 -0.01094323
0.87874104 1.34215114 -0.00001405
-0.29193833 0.62340420 0.01182294
0.66136689 -0.84886109 -0.00419187
-0.78566998 0.08948860 0.00518279
1.18662928 -0.11456180 -0.00287941
-1.08903386 1.48039707 0.00033144
-1.53768477 1.36766672 0.00728810
1.23618515 1.01668056 -0.00207571
1.17967033 -0.87548718 -0.00414063
0.53032951 0.77024944 0.00850842
0.98274317 -0.68530389 0.00027335
-1.27552245 -0.51563105 0.00654723
-0.08062208 0.22134224 -0.00411149
1.34780145 0.80710268 0.00844005
0.70460210 -0.70953212 0.00164176
-0.08447800 -0.49369238 0.00260873
-1.06028728 -1.46926392 0.00078978
-0.64215212 -0.73165120 -0.00303285
0.28760931 -1.31309469 -0.00001010
-0.91792161 -1.36569153 -0.00265554
0.56567162 0.20456868 0.00575728
-0.65007991 -1.05799620 -0.00121834
1.83167933 0.25317734 -0.00897904
0.71645347 0.09404626 -0.01007654
1.22613299 1.18914015 -0.01036031
-0.46915783 0.57007594 0.00370782
-1.08045006 0.45556514 -0.00690903
-0.40337748 -1.47965520 0.00180051
1.82211147 1.10532464 0.00081945
-0.83665380 1.49327194 -0.00038825
-0.73148930 -0.12346744 0.00263043
1.40503610 -0.58621095 0.00094982
-0.19783886 0.49676150 -0.01625838
-1.47812978 -0.23294889 -0.00194175
-0.76236025 0.53032292 0.00255062
-1.45612244 -0.80180556 0.00984170
0.84550482 -1.03132689 0.01011875
-0.31192295 0.63864217 -0.00817890
1.06187354 -1.21535646 -0.00209835
1.40798244 0.67191690 -0.00939669
-0.64282165 0.79140856 0.00911931
0.91319546 0.30267368 0.00607714
0.23392469 0.70411047 0.00210353
1.99703961 0.23565675 0.00099657
1.23487149 0.73282115 0.00828379
1.42323361 1.36357458 0.00726795
-1.22766717 -1.00362109 0.00694827
0.34540731 -0.15211481 0.00274008
0.28289077 0.89412820 -0.00209537
1.72685792 -0.24775252 0.00460275
0.87173058 -0.90960244 0.00489625
0.13820780 -1.43458567 -0.00114382
0.01500227 0.13600938 -0.00210749
0.94178134 0.44845437 0.00679988
-0.56641306 -1.48280730 0.00998470
-1.53805651 1.41918196 -0.00449637
1.68933263 -0.52472051 -0.00158026
-0.96458824 -0.19075112 0.00210560
0.75976012 -0.42951698 0.00291959
-1.73082461 -0.29161472 -0.00313420
-0.95764402 -0.52520997 0.01130112
-1.34817102 0.47652021 0.00253257
0.10652373 -0.68741065 0.00318830
0.21544993 -0.02187646 0.01055330
1.18389943 1.36795281 -0.00269437
-1.47731796 1.15174044 -0.00053059
0.81918775 0.57766064 -0.00751993
-0.50279641 -0.46827541 -0.00103410
-1.97744206 1.44661462 -0.00893357
0.42602333 -0.29301413 0.00448710
0.17507529 -1.37841890 0.00251998
-1.30539618 0.37007977 -0.00166242
0.05704692 0.86122447 -0.00060254
0.63497076 0.30430703 0.00456880
1.26106282 -1.29521068 -0.00681478
0.76354719 0.64677214 0.00122501
-0.89934580 -0.91305109 0.00419706
-1.14459010 -0.90557741 -0.01069364
0.09512876 -1.09312107 0.00410963
0.63714345 -1.18476522 -0.01004437
-1.89244144 -0.54212927 -0.00070557
-1.23256111 1.46598617 -0.00698035
-0.78801480 -0.83380774 0.00858748
-1.21292071 -0.37844129 -0.00694273
0.42339558 0.84583583 -0.00990114
-0.54169501 0.37791294 0.00080011
-0.07176041 1.03948604 -0.00248222
0.27616711 -0.63032498 -0.00902763
0.81434903 0.96019346 0.00315489
-0.13823737 1.46159172 -0.01194899
1.51638752 -0.90913599 -0.00621745
1.14702349 0.30285373 -0.00345131
0.13924519 0.04181576 0.00481333
1.41364457 0.33261837 0.00777281
0.15082394 -1.35342028 0.00661669
-0.20678852 1.22412469 -0.00091964
0.84694692 -1.34713807 -0.01456385
1.53596913 0.98000166 0.00234512
0.18673685 -1.43278360 0.00882344
0.24971847 -1.33623285 0.00740274
-0.71848416 0.38672886 0.00277769
1.65165234 -0.42661309 -0.00713702
1.44009513 1.25508303 -0.00315184
-1.91582448 -0.78171649 0.01160289
0.83944920 0.77052913 -0.00850038
-0.43033260 0.47026384 -0.00688705
0.44863447 0.71932488 0.00565531
0.87463371 -1.24238761 -0.00258696
-1.36699928 -1.10181856 -0.00709053
1.72992028 1.24062795 0.00916783
1.18964908 -1.14984432 0.00276634
0.29708588 -0.93830812 -0.00229081
-0.52646425 -0.69872617 -0.00687465
1.31572393 -1.06664580 0.01228444
0.58471667 1.45168399 -0.00014671
0.74821833 -1.26229953 0.00838397
1.63139801 0.42923903 0.00536180
-0.17475608 0.47907744 -0.00312541
1.51617732 -0.06861832 -0.00307765
0.12528593 -0.14265780 0.00867789
-1.70963429 0.86121038 0.00877510
-1.49435303 -0.31628997 -0.01126150
-0.45270862 -0.65987762 0.00329868
-0.38997150 0.35402733 -0.00072729
-0.75445075 -0.98246419 -0.00619994
1.47747004 1.41249795 0.00157048
-0.16566470 -0.51894086 -0.00809758
-1.81007169 -1.38944538 -0.00279873
-0.42847202 1.29072605 -0.00479084
0.92283417 -0.45219174 -0.00299875
1.87218570 -0.21372629 -0.00042887
-0.89282902 -0.22094027 -0.00609340
-1.15382709 1.15691631 0.00943907
-0.55530676 0.47390689 0.00295970
-0.44381120 1.20519425 0.01076738
0.56952301 -0.03524433 -0.00096048
-1.47142812 1.20574999 -0.00329274
0.18726747 -0.64484108 0.01055049
1.51170757 -1.33667872 -0.00346836
-0.74369233 0.11048520 -0.00106975
-0.64074266 -0.06979723 0.00432028
-0.94273499 -1.10975073 -0.00742635
-1.85258345 -1.02706031 0.00426777
1.81178606 0.22620940 0.00350008
-0.04415950 -0.34702848 0.00761595
0.83368058 -1.07622157 0.00534027
-0.89548053 0.46770636 0.00779987
-0.08374254 0.81027762 -0.00066253
1.58843938 0.97011777 -0.00517602
-1.26316914 -1.22558929 0.01265991
-1.32223760 0.85059207 -0.00916017
1.65532436 1.27634660 -0.00855908
-0.80713684 1.02102413 0.00339077
0.14494214 0.96837555 0.00974992
0.19345937 -1.06232034 0.00113731
-1.68312180 1.37165745 0.00599582
-0.29678977 -0.44843807 -0.01197482
-0.57478766 -0.36319677 -0.00299727
1.77998731 -1.31188624 -0.01124369
-1.52375485 0.86895455 0.00468247
0.19763797 -1.11438973 -0.00928339
-1.86215945 -0.82729696 -0.00766691
-0.95675705 -1.45736091 0.00308415
-1.13563785 0.71495681 0.00637095
1.42173476 1.19470749 -0.00095381
-0.44034387 -0.54175882 0.00342104
1.99944339 0.80802135 0.00322673
0.14940832 -0.73568570 -0.00129256
-0.71477819 0.04609305 -0.00656823
0.16833168 -1.45896407 0.00338935
1.83760034 0.22681874 0.00367857
0.35663298 -0.86558660 0.00536415
1.05994872 0.71179356 0.00187240
-1.61936811 0.28498312 -0.00701100
0.63277498 1.00670452 0.00414204
-1.17563528 1.13290439 -0.00000829
-0.15407571 -1.21042914 -0.00289642
-1.57751511 -0.90658664 -0.00176782
-0.86899718 -0.01078259 -0.00414154
0.99500479 -0.93982229 0.00533306
1.97060718 -1.01543420 -0.00850869
0.39751187 1.28682131 -0.00596092
1.33002969 0.44366760 -0.00197264
0.86197199 -1.09738312 0.00968251
-1.96134778 -0.19755365 0.00632568
-1.64192429 -0.42674231 -0.00984504
-1.10502883 1.24904017 0.00810808
1.52022400 0.95682855 0.00809652
0.85577719 -1.03778421 -0.00704405
-1.80653030 0.46166357 -0.01512875
0.56903255 -0.39172715 -0.00043333
-0.10925333 -0.03255184 0.00673455
-1.04028747 -0.55750016 0.00954757
-0.32644178 0.30953709 -0.00522496
1.82327682 0.11545383 0.01051187
0.92465564 0.92100331 -0.01336759
-1.54596751 0.45937400 -0.00220830
-0.07155712 0.21729283 -0.00250326
-1.84633226 1.21864721 0.00691402
1.81113660 -1.48955423 0.00778981
-1.14883363 -0.95941748 0.00572534
1.12521807 0.29424018 -0.00810330
-1.29066535 0.94191287 0.00517571
-0.58610051 -0.11742937 0.00305425
-0.45077358 0.06414062 -0.01002741
-0.07943012 -0.67624799 -0.01240208
-0.30177585 1.22501145 0.00622794
0.01157655 1.24915923 -0.00108060
0.20050819 0.80645188 -0.00771109
-0.82563476 0.87124047 -0.00124903
-0.94271355 -1.44135009 0.00218425
-1.35708423 -1.43504137 -0.00049711
1.78825057 1.49993106 -0.00931192
1.04892105 -1.17561551 0.01131334
1.59578184 0.73132855 0.00602531
-0.67102194 0.00683374 -0.00201226
0.64703737 -1.42784857 -0.00177057
0.00616365 0.69718630 0.00215692
-1.24709851 -0.16862828 -0.00677773
0.13012052 0.70669612 0.00193606
1.85781484 1.04482664 -0.00798439
0.48607368 0.25092202 -0.00042321
0.41274677 0.13553593 -0.00701143
-1.76254848 0.59488918 -0.00670850
0.86534720 0.03744109 0.00987434
1.48155042 0.51731041 0.00035536
-0.54934137 -1.44091694 0.00124444
-1.76335341 -0.44460522 -0.01206828
-0.15157870 -0.99938664 -0.00358201
-1.24268677 -0.80936592 0.00276727
1.12205336 0.81386352 0.00116482
-0.46824406 -0.98290686 -0.01292418
-1.55636646 -1.23861206 0.00124283
-0.43488300 -1.36337270 0.00219935
-0.66545985 1.38459973 0.00770257
0.03001846 0.96793397 -0.00393139
-1.48293622 -0.69576365 -0.01345241
1.78618578 -0.34934431 -0.00598062
0.59362451 1.42838034 -0.00658239
0.20315103 -0.58396215 0.00442025
0.12779382 -1.33608840 -0.01630042
-1.55052050 -1.47848668 -0.00269014
1.53684017 0.51384129 0.00855477
-0.80668094 -0.83651574 0.00004327
0.73230640 1.25859619 0.00537790
-0.80344364 -0.53532267 -0.00985079
1.41696290 1.18012745 -0.00961194
1.65614627 -0.62053738 0.00862345
-1.51874973 -0.18000728 0.00060729
-0.81694054 1.15160000 0.00061965
-1.85346023 0.40164141 -0.00670892
1.62472546 1.43001110 0.00060469
0.60052240 1.34976887 -0.00687563
-1.69736215 -0.42216496 0.00712122
-1.96514121 1.44355132 0.01636698
1.61090592 -1.41584233 0.00290365
-1.92746940 -0.39909152 -0.00380968
-0.96584813 1.04079683 -0.01520195
-1.35806239 0.87194839 -0.01010678
0.21783880 -0.36782469 0.00932917
-1.41712095 1.49307392 -0.00617515
0.47194448 -0.18185330 -0.00222501
-0.51548977 1.21718469 0.00393196
1.28476723 0.93355737 0.00889374
0.46479389 1.16386975 -0.00119752
-0.80288651 0.61111841 -0.00242800
-0.38220903 0.29999643 0.00042973
1.99261200 1.45357434 -0.00376583
0.05047607 0.22159036 -0.00344292
1.58928708 1.45690714 0.00247128
1.11443121 -1.30444663 0.00111175
-0.70944106 1.18968702 0.01278963
1.07341002 0.72669921 0.00263309
0.67169292 -0.25420845 0.00690687
-0.38703472 0.92679746 -0.00642771
-0.82487883 0.55449562 0.00315094
0.90483409 1.03366797 -0.00433789
-0.72045764 0.72566780 0.00237272
-1.57404041 -1.08581481 0.00413109
-0.33065584 -1.33432267 0.00029921
1.79079329 1.20568743 0.01444395
-1.80426522 1.01493517 0.00856788
0.03549670 0.60588867 0.00706347
1.54772468 0.23092346 0.00458572
-1.53469160 -1.49226417 0.01058016
-0.01231387 1.34769640 -0.00862182
0.29048749 -0.38118259 0.00822170
-1.87631193 1.24493825 -0.00594747
-0.69137336 0.61433220 -0.00338603
0.77694881 -0.73835052 0.00336835
-1.74488997 -0.34499886 0.00739932
-0.73147594 0.60076920 -0.00692146
1.27912998 -0.83266375 -0.00307527
0.11292428 -1.37817496 0.00058519
-1.14297671 0.78528482 -0.00111820
1.17359328 0.82921339 0.00512419
-1.43044830 0.15310418 0.02061557
-0.30916634 1.47445889 0.00251592
0.61627948 1.30560627 -0.00441118
-1.41859878 -0.14738018 -0.00777905
1.08643040 -0.39642682 -0.00195152
0.53003398 0.03510652 -0.00564150
1.96771764 -0.97838238 0.00280530
1.74139478 -0.29528714 0.00271213
-0.12802813 0.08580565 -0.00277901
-0.93853380 1.39097233 0.01190973
1.64594882 1.41871530 -0.00441268
1.98767829 0.50940029 -0.00071659
-0.19325802 1.05220170 0.00383498
-1.90478049 1.00321213 0.00535233
-0.01085590 0.51966008 0.00766546
-0.50381575 -0.39413054 0.00257098
-1.87313139 -0.22863171 0.00630548
-0.36658322 -0.82562669 -0.00399065
-1.01070691 0.25241874 0.00550849
-0.72891423 0.99075573 0.00542837
-1.55445957 0.23293484 0.00907732
-1.35982109 0.08472188 -0.01001062
0.21018355 0.42689306 -0.00544310
-0.29030021 0.02842406 0.00493885
-1.27618954 -0.11095395 -0.01590819
-0.50787844 0.49839331 0.00295204
-0.26071311 0.83802495 0.00635883
-0.29603161 -0.79268648 -0.00345825
-0.90524512 -1.36414432 -0.00258114
0.15967524 0.99264265 -0.00644482
1.07644683 -0.18663160 -0.00312928
-1.21551858 1.09045333 -0.00295541
-1.77287586 -0.30233182 -0.00409705
1.42646057 -0.32046994 -0.00442607
-1.52849812 -0.70215150 -0.00162603
0.40011777 -1.04389228 -0.00169863
0.61974131 -0.18551421 0.01124479
-0.66244200 -0.77722356 -0.00236511
1.29331994 -0.30997816 0.00206490
0.95391706 -0.17893442 -0.00346130
-1.63253125 -0.17848207 -0.00353757
0.03075112 -0.12647342 -0.01022622
1.26496685 1.23255405 -0.00942820
1.14711470 0.24834571 -0.00724199
0.16579984 0.43384809 0.00110218
-0.84867881 0.93554054 0.00645704
1.42739271 -0.69834851 -0.01071999
1.61127283 1.04619817 -0.00329446
-0.30205293 1.22700061 -0.00820134
-1.51824402 -1.41604032 -0.00158566
-0.60853270 0.19630710 0.00645462
-0.59422954 1.32620320 -0.00268129
-0.98115908 -0.65635982 -0.00028510
0.53931045 -1.48840835 0.00873137
0.91022821 -0.36759155 0.00274741
1.91099147 0.57425278 -0.00456055
-1.79114018 -1.22211657 0.00095349
-1.64732757 1.35786678 -0.00496529
0.73620616 -0.21718198 0.00252289
-1.19806924 1.12091924 0.00309204
-1.19377629 0.62003765 -0.00820296
1.05329745 -0.61603173 0.00105090
0.01965895 -0.83103215 -0.00070544
-0.48428137 1.39540319 0.00326806
0.77255214 1.03984262 0.00498808
0.16239829 -0.78288077 0.00286470
0.85151943 0.00170388 -0.00181916
-1.29260453 -0.26271033 0.00559998
0.53936088 0.70599557 -0.00523838
-1.02711682 1.12799202 -0.00792313
-0.48179557 -0.68658985 -0.01917172
-1.21951978 0.91251400 -0.00042085
-0.58334170 -0.04980292 -0.00492928
-1.10872071 0.55827321 0.00238653
1.12413363 -0.48172425 -0.01182736
1.78031754 -1.40816817 -0.00388307
-1.46822759 0.26636109 0.00282162
0.80562745 -0.74795103 -0.00617902
0.21628439 -0.54484126 0.00245554
0.21635698 0.47798303 -0.00334214
1.89123221 -0.13290942 -0.00019685
0.59286416 0.23411774 0.00357095
-0.72978042 -0.74080760 0.00571678
1.95148289 -0.87944291 0.00055495
1.16110107 -1.06023783 -0.00488406
1.21740508 -0.94281467 -0.00274823
1.86862658 0.55796297 0.00382173
-1.63952703 0.57953136 -0.00612752
0.41448305 -0.48736126 -0.00106840
-0.95705601 0.65628235 -0.00231530
0.96544549 -0.51838245 -0.00062017
1.50490844 -0.69351834 -0.00605570
-1.72054230 0.29960353 -0.01111167
-1.57171771 -0.67000781 0.00312446
0.02874557 -0.64092113 0.00578479
-1.14001463 0.60955624 -0.01075305
0.18799737 1.01928374 0.00221356
0.32495838 -0.04965836 0.00649910
-0.95497459 0.87619763 0.00357547
-1.21251597 -0.77331477 -0.00250002
1.36635439 0.72357758 -0.00566098
0.45149396 -1.38323841 0.00048587
-1.49096953 -0.00012762 0.00148671
0.98535569 -0.10769741 0.00057485
-1.93082790 -0.94719000 -0.00108081
0.35506680 0.58265118 -0.00649591
-1.86628675 -1.37000474 0.00253613
-0.95475954 -1.24949491 0.00282513
0.16778493 -1.12889405 0.00120493
0.59287734 0.83167596 0.00066596
1.88206666 1.34522088 0.01007550
-0.90653940 -1.41177119 -0.00374627
-0.68235114 0.62544036 0.00768861
-1.76079516 -0.42086203 -0.00440415
-0.80786181 -0.84196309 0.00665370
0.82452302 0.47729102 0.00740021
0.14197638 1.23232392 -0.00175831
-1.58744459 -1.05093233 0.00996578
-0.46620128 0.46764616 0.00281422
0.33631717 -1.27787194 -0.00526363
1.83369921 -0.58480555 -0.00224494
-0.56410954 0.37088940 0.00679657
1.78066207 0.48806472 0.00553839
1.81909332 -0.93722664 -0.00634824
0.47523972 0.98663668 -0.00083554
0.03609787 -0.41347897 0.00122114
1.93903412 -1.07703798 -0.00304563
-0.35628189 1.12012126 0.01414680
1.60192299 1.44114630 0.00140198
1.53939037 -1.34712892 -0.00037087
1.71906600 -0.21549843 0.00714511
0.60647675 -0.31717239 -0.00219128
1.25467231 0.22775783 0.00604457
1.38217857 -0.91868559 -0.01000639
-1.26006762 -0.17886960 -0.00272192
-1.98099382 0.57855886 0.00629442
-0.81578509 0.17189804 0.00942119
-1.71998576 -0.98806692 -0.00463977
0.49143668 -0.58301212 -0.00533893
-1.14111223 -0.81346050 0.00340468
-1.14072254 0.36855285 -0.00373820
-1.32923514 -0.41188092 -0.00161147
0.75154746 0.04101317 0.00525843
0.38912348 -0.74727906 -0.00326461
1.73085949 -0.25836226 -0.01179255
-0.85214425 1.21297855 -0.00780651
0.62115846 0.34183759 0.00005973
1.54693861 -1.32437914 -0.01118054
1.35071805 0.53359309 -0.00178296
-0.56002882 -0.73094597 -0.00835258
-1.58077640 1.32322251 0.00983963
-1.43235159 -0.72168439 0.01299086
0.76442872 0.63045731 -0.00634918
-1.35692518 0.94239348 0.00154055
0.04114908 1.04537003 -0.00576242
-1.65085844 -1.37151000 -0.00185589
0.54796153 -1.04992861 0.01082082
0.09979618 -1.45767372 -0.00280013
1.11971704 1.19859051 -0.00171622
1.35553105 1.37505844 -0.00565518
1.61238302 -0.16794595 0.00687714
1.70775518 1.41850784 -0.00265678
1.07326894 -0.89403351 -0.00027532
1.77981654 1.34142440 -0.00396646
0.66452546 1.07184080 0.00518127
0.24470568 1.33238084 0.00721216
-1.62425441 1.09189109 -0.00847224
-1.77798548 -0.48267884 0.01256092
-1.45869743 -0.06259472 -0.00853955
-1.07101537 1.35621714 0.00773178
0.23728533 1.19319221 0.00089897
-0.88776612 -1.42206732 -0.00302221
1.10262001 0.60713298 -0.00245620
0.18196658 0.94602819 -0.00020108
1.36033749 0.26370992 0.00125051
1.86371117 0.65913584 -0.00552093
0.70750150 -0.41573462 -0.00140364
-1.99096569 -0.77717198 -0.00462404
1.05568203 0.62961376 -0.00729030
-0.67591142 0.37674892 -0.00490387
-1.21885008 -0.70911684 -0.00689985
1.78963238 -0.26045828 -0.00252093
-1.02004962 -0.03867526 0.00259485
-0.45193648 0.68858711 0.00072426
1.84846443 0.27521227 0.01184607
0.36458875 -0.40549842 -0.01326272
0.25852373 -0.54201340 0.00281605
-1.99563170 1.09828852 0.00003852
-0.28222366 -0.02373454 0.00489402
-1.66599634 1.01133154 0.00429879
-1.31865172 -0.26813652 -0.00098995
1.36106219 -0.12665118 0.00103591
1.72460934 -0.87205709 -0.00446442
0.86093132 1.43399557 0.00368208
0.19845455 0.57655170 -0.01127326
-0.42709336 0.75401202 0.00466096
1.63549623 0.60916670 -0.00013904
1.74371485 0.26595796 -0.00292237
0.30854976 -0.58611784 -0.00139520
0.83850996 1.14585757 -0.00095518
0.58526490 -0.80088234 0.00778382
0.17643646 0.76781225 0.01940096
1.75745326 -1.03021185 0.00731922
-1.49001164 -0.26116941 -0.00339195
-1.49755532 1.44128674 0.00377869
-0.30278253 0.10083156 0.00403997
-1.09164887 -0.15262163 -0.00555096
1.93877574 -0.03393855 -0.00756480
-1.96470430 -0.77241741 -0.00037969
1.91381932 1.46720254 0.00484625
-1.15802764 0.34579226 -0.00967085
-1.69236668 0.23232493 -0.00432539
-1.49631719 0.95598457 0.00343591
1.75829995 -0.98103958 0.00025034
-0.14915133 -1.19387100 0.00849764
-0.64343997 -1.30470674 -0.00846820
-0.94181389 1.47067100 0.01411299
-1.82158693 1.07690499 -0.00922795
-1.69018969 0.08699079 -0.01217498
-0.19152083 1.29466398 -0.00035348
-1.20380055 -0.96095395 -0.00680675
0.99485635 0.67715842 -0.00023253
0.79672708 -1.42161865 -0.00044236
-0.96016125 1.01968553 -0.00117465
0.40343249 0.30658476 -0.00505447
-0.81633358 -0.71948073 0.00259594
1.78621955 0.68326584 -0.00190402
-1.49253553 1.31312083 0.00662199
0.32948061 -0.49991290 -0.00108223
-0.41144221 0.67621353 -0.00578788
-0.49490939 0.23623440 -0.01012626
0.84199799 -0.91387501 -0.00103266
1.77696594 -0.43148169 -0.00761523
-0.32250097 0.59554310 -0.00809977
0.43514036 -0.17964049 0.00316474
0.59896816 1.20848492 -0.01066602
1.20113447 0.97277703 0.00847316
-0.96636637 -0.24178995 0.00095830
0.21527657 -1.36742754 -0.00026306
1.07916872 -0.52960973 -0.00620860
-0.86961569 -0.72212397 0.00458623
-0.86648294 -0.48595550 -0.00001743
0.41929823 0.25069597 -0.00411658
-0.97715299 -0.88072717 0.00119895
1.30543276 -1.22182999 -0.01009671
0.05129136 0.06168262 -0.00981196
0.29654723 1.15695035 -0.00672112
0.49565576 1.42090130 0.00209716
1.48541233 -0.85577922 -0.00001955
-1.03526676 -0.46567759 0.00629388
-0.43394234 0.15898536 -0.00551994
-1.06994947 -0.83296446 0.00344801
-0.47444017 0.51606934 -0.00068322
0.75250245 1.42835022 -0.00565827
-1.19033826 -0.32142254 0.00231185
1.85870999 0.57002623 -0.00039607
0.36911410 0.11893815 -0.00377472
-1.69795848 1.18012143 0.00025199
0.50202086 0.21500222 -0.00077718
0.15800137 -0.32425738 -0.00092213
-0.98134123 0.76596596 -0.00247556
0.03827007 -1.39818140 -0.00782969
-0.40362200 1.28581091 0.00044859
-0.50442175 -0.26030098 -0.00481629
0.49584449 0.90502441 -0.00612197
0.67384447 1.05016419 -0.00144420
-1.54411765 1.27377766 0.00440416
1.61568773 0.05744576 0.00111368
0.49896895 -0.86156085 -0.00318685
-0.20821025 -0.89188992 -0.00342808
-1.91209328 1.44270920 0.00381488
-0.96341394 0.27932493 -0.01438041
-0.79899847 -0.38813514 0.00478419
-0.40895377 -0.49485981 -0.01124409
0.54959904 1.38280881 -0.00849245
-0.28546140 1.41998017 -0.00308559
0.67118895 0.32140859 0.01302074
-1.05158459 -1.31123788 0.01006452
1.40773908 0.22194319 0.00423893
-0.34234455 0.93590197 0.00213925
-0.75767847 0.85085177 -0.01117366
-0.68814466 1.26264356 0.00094055
-0.92813250 -1.08733765 -0.00329533
0.79238683 -1.01145824 -0.00490002
1.79745220 0.46666534 0.00092882
-1.07655735 -0.87354320 -0.00282666
1.69550016 0.32357374 0.00521580
1.57494403 -1.16932439 -0.01161573
1.70156878 0.06014794 0.00045007
0.67368767 -0.38137359 -0.00527458
-1.76343871 1.37391732 -0.00245781
1.97839332 -0.40635945 0.00182776
1.77547172 -0.99682113 -0.00670385
-1.38126220 -1.28066448 0.00098539
-0.43492237 -1.34309325 -0.00127403
-0.42137124 -1.08482871 -0.00396352
0.92211118 1.00008795 -0.00282343
0.75126171 -0.89851754 -0.00092731
1.06739277 -0.75149941 -0.00460702
1.03795439 0.20219272 0.00004257
-0.53314993 -1.24952287 -0.00166906
1.31003804 1.31895876 -0.00366770
0.66367112 1.39362470 0.00953905
1.73644568 -0.91617480 0.00249144
0.92484939 -0.45208554 -0.00229627
-0.04993056 -1.02910371 0.00087516
1.89911771 0.67841215 -0.00616092
-0.93236676 -0.38558493 -0.00262063
-0.31006829 0.74260117 -0.00192046
1.70278907 -0.53567960 -0.00748076
-0.10999965 0.27962272 0.00232412
-0.42662403 0.01254397 -0.00303368
-1.57716948 -0.99697684 -0.00213280
-0.39559497 1.24481704 -0.00341232
-0.60256782 -0.75062157 0.01775454
0.97144888 1.34739050 -0.00397569
-0.16350553 -1.47418513 -0.01241206
0.75259733 -0.25481760 -0.00959959
0.69458215 -0.66685045 0.00455582
-1.99036742 -0.46651134 0.00801872
0.81916937 -0.32066015 -0.00409078
-1.12330344 -0.10797941 0.00767370
1.00939409 -1.14170074 0.00444954
0.76700813 0.50203207 -0.00113688
-0.51704848 1.41100857 -0.00156268
1.57882120 -0.55151556 0.00108522
-1.87563563 -0.57508558 0.00526473
-1.18111223 0.14175574 0.00238377
1.67497768 1.11101253 -0.00406085
-0.77668338 -0.21420740 -0.00104524
-1.85383120 0.13249052 0.01188758
-1.74652808 1.31581850 0.00150728
1.46773534 -0.85743712 0.00521595
0.79747472 0.20406115 0.00323931
1.20543085 -0.07304368 0.00164015
-1.23291212 0.41953020 0.00065219
-1.67887869 0.25376397 0.00538434
-1.14918078 0.55480931 0.00431185
1.31217265 -1.17142581 0.00158336
-0.39892579 0.70056476 -0.00416258
-1.34518775 0.19957101 0.00231335
0.68735593 -0.43561918 -0.00040205
1.32792910 0.03197456 -0.00184954
0.50797936 -1.07738161 0.01607266
-1.90735930 -1.34775429 -0.00923431
1.61568059 1.14792715 0.00575108
1.23036576 -0.90116373 -0.00517603
0.10183461 0.88835130 0.00078717
0.69867673 -1.15343642 0.01541153
1.58216480 -1.01795282 -0.00577421
-1.31281723 1.20302589 -0.00434324
-0.06153224 -0.38132452 -0.00010508
0.21462697 1.44419200 -0.00508330
-1.52147818 0.77084655 0.00530434
-0.66269655 -1.14885219 -0.00320718
-0.31226658 0.14625863 0.00392406
-1.17615345 -0.28419162 -0.00797513
0.54270410 0.22934406 -0.01084099
0.89264238 1.00921360 -0.00137391
-0.36343867 -0.23109817 -0.00941105
-0.01323146 0.19906014 0.00910961
-1.56670930 -0.56209394 -0.00917882
-1.31243282 -0.34244171 -0.00622612
1.89341629 0.24819287 0.00248172
-0.28247392 0.19781069 -0.00351818
0.67630622 -0.19513961 -0.00911033
-0.20916078 0.60420339 0.01223978
-1.75654967 0.12024170 -0.00600980
0.18931125 0.77025678 -0.00117755
1.93057901 0.88726436 -0.00125516
0.01515445 -0.99164046 0.00426185
0.35304389 1.00289666 0.00277411
1.72965625 0.97593114 -0.00496081
-1.24412557 0.63772759 -0.00195496
1.52061979 0.54305090 -0.00136153
0.74300816 0.00048686 0.00449376
0.54790489 -0.61685784 -0.00700993
-1.64475965 0.98314471 0.01210866
1.77257723 1.07046701 -0.00455510
-0.66434578 -1.21940955 -0.00005250
-0.87944645 1.02850613 -0.00695994
0.62325803 1.40008273 -0.00778895
-0.62927593 0.15441636 -0.00524657
1.16015289 -0.79802417 -0.00582314
1.85635990 0.27719302 -0.00248554
-1.96840975 -1.42454017 -0.00587379
1.52886407 0.43584458 0.00417331
1.05229008 0.85204800 -0.00469790
-0.31816089 0.89583374 -0.00536289
-1.99627990 0.89555655 0.00310436
-1.99958087 -0.22940942 0.00102790
-2.00600507 0.01140841 0.01905362
-1.99888071 0.14660381 0.00800917
-1.99744646 0.61632633 0.00229274
-1.99851089 1.08200240 0.01891234
-2.00156850 -1.36111452 0.01415644
-1.99679307 1.26249989 0.01526556
-2.00223603 -0.08556821 0.00080915
-2.00724965 -0.42450828 0.01671189
-2.00362984 -0.24790965 0.00498326
-2.00620647 0.33250296 0.00709620
-1.21672496 -0.42620353 -0.00311853
0.05661567 -0.58689232 0.01768736
