ply
format ascii 1.0
element vertex 770
property float x
property float y
property float z
property uchar red
property uchar green
property uchar blue
end_header
0.48914924 -0.75307916 -0.39965040 31 120 181
-0.94136249 -0.18680799 -0.39590942 31 120 181
-0.71854840 -0.67253860 -0.40689299 31 120 181
0.31702078 -0.67060884 -0.40130396 31 120 181
-0.23790433 0.35753905 -0.39574860 31 120 181
0.17750868 0.91868309 -0.40408643 31 120 181
-0.85738203 0.88480573 -0.40598404 31 120 181
0.96535319 0.42153457 -0.40591904 31 120 181
-0.80254176 0.59238187 -0.39087867 31 120 181
0.59997809 0.04753940 -0.39905834 31 120 181
-0.69141532 -0.63162965 -0.40338391 31 120 181
-0.09548465 -0.83139008 -0.39475361 31 120 181
0.39900680 -0.59149352 -0.39870839 31 120 181
0.44015200 0.95729848 -0.39807274 31 120 181
-0.52622117 0.36957310 -0.40462135 31 120 181
0.70511149 -0.41281561 -0.40706957 31 120 181
0.08474698 0.54579282 -0.39137373 31 120 181
0.57724338 -0.43111410 -0.38694584 31 120 181
-0.29706474 0.97219044 -0.39136065 31 120 181
0.77224710 0.04978677 -0.39115574 31 120 181
0.32689423 0.82963030 -0.39290975 31 120 181
-0.80313754 0.57909503 -0.39723060 31 120 181
-0.95921837 -0.59178084 -0.40545484 31 120 181
-0.12845439 0.78964227 -0.39318989 31 120 181
0.43118154 0.44343145 -0.39796668 31 120 181
0.14811309 0.44327330 -0.41036990 31 120 181
-0.39706838 -0.34931923 -0.39499190 31 120 181
-0.40213680 -0.22930301 -0.40033898 31 120 181
0.47099886 0.69920227 -0.39975855 31 120 181
0.36302940 -0.58977846 -0.40108681 31 120 181
-0.45276581 -0.15756713 -0.40081317 31 120 181
-0.38755137 -0.11127958 -0.39479439 31 120 181
0.52887976 0.99562204 -0.40583149 31 120 181
0.04936024 0.50758058 -0.39523806 31 120 181
-0.20380496 -0.17103159 -0.39703913 31 120 181
0.37475381 -0.76088329 -0.39845175 31 120 181
-0.22807822 -0.44681985 -0.41225637 31 120 181
0.90237495 -0.53787381 -0.40765119 31 120 181
-0.55906340 -0.92368676 -0.39732580 31 120 181
-0.69916904 0.37393517 -0.39929028 31 120 181
0.88974779 0.36022148 -0.40291111 31 120 181
-0.08966467 0.41082665 -0.39661357 31 120 181
0.54847561 0.91690548 -0.40204394 31 120 181
-0.66424347 -0.85081482 -0.39173077 31 120 181
0.06779185 -0.15134863 -0.39596115 31 120 181
0.63395562 0.42821987 -0.40307151 31 120 181
-0.60559363 -0.09604690 -0.40022864 31 120 181
-0.80414080 0.18099115 -0.40384432 31 120 181
0.45457208 0.73697449 -0.40895977 31 120 181
-0.26974997 0.59638594 -0.39978685 31 120 181
0.47381969 -0.75957735 -0.39963223 31 120 181
-0.69348708 0.49933854 -0.39147799 31 120 181
-0.40571591 -0.69220953 -0.39164395 31 120 181
0.63197451 -0.34385364 -0.40914010 31 120 181
0.79966484 -0.79592956 -0.39078163 31 120 181
0.77939011 -0.06507322 -0.38881358 31 120 181
-0.65353329 0.20443024 -0.41344579 31 120 181
-0.23806791 -0.15572997 -0.39032803 31 120 181
-0.64882494 0.68291612 -0.40858263 31 120 181
-0.12034979 -0.37264979 -0.39118548 31 120 181
0.76684639 -0.05426429 -0.39390765 31 120 181
0.82849463 -0.59440305 -0.39573019 31 120 181
-0.91246959 -0.55566405 -0.40064744 31 120 181
-0.64555524 0.80038013 -0.39336672 31 120 181
-0.83857691 0.69507447 -0.40471905 31 120 181
-0.15844772 -0.62564103 -0.38977084 31 120 181
0.60733830 -0.23871203 -0.40398780 31 120 181
-0.73400017 -0.72711404 -0.40501852 31 120 181
-0.42792149 0.28183288 -0.40953256 31 120 181
0.62072153 0.79059525 -0.39128825 31 120 181
0.01984020 0.97697712 -0.40009223 31 120 181
-0.87370226 -0.31610335 -0.39132374 31 120 181
-0.71663711 -0.47623922 -0.39998436 31 120 181
-0.20849986 -0.68072850 -0.40521824 31 120 181
0.34290282 0.24161652 -0.39666052 31 120 181
-0.87715864 0.22512309 -0.38936519 31 120 181
0.76721524 -0.25075417 -0.39845407 31 120 181
0.80459880 -0.09451613 -0.39132894 31 120 181
-0.48161936 0.31999425 -0.40096578 31 120 181
-0.66082349 -0.93001268 -0.42108995 31 120 181
0.10189774 0.36672632 -0.40751976 31 120 181
0.63180926 -0.98495095 -0.40582588 31 120 181
-0.62421870 -0.08202829 -0.40621460 31 120 181
-0.39487326 -0.90168635 -0.40162797 31 120 181
-0.06575380 -0.97810057 -0.39175398 31 120 181
-0.56022794 -0.43920308 -0.39484652 31 120 181
-0.70253937 -0.69130558 -0.40390419 31 120 181
-0.94715934 0.51935499 -0.40278282 31 120 181
0.55915688 0.10287337 -0.39906760 31 120 181
-0.07437180 0.49402034 -0.40388306 31 120 181
0.63868088 -0.96381302 -0.40525912 31 120 181
-0.38593305 -0.51730117 -0.39377609 31 120 181
0.66346312 0.79085092 -0.40055371 31 120 181
-0.25807513 -0.10216450 -0.39835300 31 120 181
-0.75353472 0.68083588 -0.38499848 31 120 181
0.65660533 -0.05468696 -0.39346331 31 120 181
-0.29138706 -0.60641774 -0.39344114 31 120 181
0.86825022 0.00251726 -0.37922667 31 120 181
-0.31940454 0.90248863 -0.39958450 31 120 181
0.24690377 0.62493299 -0.39842741 31 120 181
0.30716063 -0.02834055 -0.38951872 31 120 181
-0.82704522 -0.62033029 -0.40288472 31 120 181
-0.13287532 0.74064458 -0.40261789 31 120 181
0.41325643 -0.32094357 -0.39838310 31 120 181
-0.40432848 -0.74478356 -0.39068420 31 120 181
-0.20911711 -0.91862845 -0.39471680 31 120 181
0.98404216 0.51461676 -0.39174969 31 120 181
-0.25484757 0.26498220 -0.40514869 31 120 181
-0.44689782 -0.82681285 -0.40517076 31 120 181
0.10205146 -0.57433830 -0.40124104 31 120 181
0.77933185 -0.46971056 -0.38115215 31 120 181
-0.34661870 0.57077527 -0.40116038 31 120 181
0.10652040 0.58935727 -0.40096746 31 120 181
-0.37935199 -0.45070599 -0.40140551 31 120 181
-0.36544041 -0.28527098 -0.40038015 31 120 181
0.28352915 -0.72526230 -0.39245519 31 120 181
0.47232700 0.68890046 -0.40643792 31 120 181
0.22877498 -0.58978858 -0.41334938 31 120 181
0.75085564 -0.19982923 -0.40081252 31 120 181
0.48708775 -0.07597660 -0.40083368 31 120 181
0.12280153 0.98212120 -0.40070330 31 120 181
0.90450717 -0.48072637 -0.39930305 31 120 181
0.10408236 0.61417993 -0.40390348 31 120 181
0.53483160 -0.53479704 -0.39272294 31 120 181
-0.13283792 0.43701883 -0.41212629 31 120 181
0.75345323 -0.14558267 -0.39593332 31 120 181
0.27018780 -0.81223049 -0.39678940 31 120 181
0.97688071 -0.79918789 -0.39071491 31 120 181
0.65658064 0.58918665 -0.39961860 31 120 181
0.36335989 0.57400867 -0.40051177 31 120 181
-0.59023250 -0.04067022 -0.40880105 31 120 181
0.07360404 0.21209495 -0.40038941 31 120 181
0.89209355 -0.43261906 -0.39844344 31 120 181
-0.63667990 0.47188642 -0.40925624 31 120 181
0.41721087 -0.45250982 -0.40597126 31 120 181
0.98042241 0.64193100 -0.41051353 31 120 181
-0.69707892 -0.91178752 -0.39964194 31 120 181
0.25582316 -0.24708027 -0.39062770 31 120 181
0.42868663 -0.32768546 -0.40272224 31 120 181
0.76632476 0.36000179 -0.40254295 31 120 181
-0.98920831 0.74495629 -0.39995067 31 120 181
0.56999269 0.61319244 -0.40194452 31 120 181
-0.68915124 0.51056421 -0.39756641 31 120 181
-0.22469872 -0.76801401 -0.39810276 31 120 181
-0.29664116 -0.72983561 -0.39859273 31 120 181
0.77852941 -0.66956125 -0.40412696 31 120 181
0.35942362 -0.28291349 -0.40585909 31 120 181
-0.04435138 0.20876000 -0.39579759 31 120 181
0.37176388 0.59735074 -0.39659200 31 120 181
-0.42933673 -0.85440884 -0.39928074 31 120 181
0.07876231 -0.38698351 -0.40183294 31 120 181
0.72660684 -0.72705693 -0.40350452 31 120 181
-0.72115910 -0.16898042 -0.40273933 31 120 181
0.04177477 -0.82506251 -0.39390085 31 120 181
0.36216552 -0.76517223 -0.39256515 31 120 181
-0.69833328 0.69063513 -0.40819606 31 120 181
-0.76448749 -0.48869413 -0.40308049 31 120 181
-0.11108275 0.17461708 -0.40559982 31 120 181
-0.25911508 0.94389698 -0.39967647 31 120 181
0.05324251 -0.17491319 -0.40033297 31 120 181
0.08884529 0.95288460 -0.39881732 31 120 181
0.02928991 -0.50205867 -0.39843284 31 120 181
-0.06924301 -0.57034647 -0.40217689 31 120 181
0.89863096 0.71972560 -0.40896690 31 120 181
-0.48443647 -0.61522966 -0.39524587 31 120 181
0.59073997 -0.63991349 -0.40329311 31 120 181
0.01112247 0.17206876 -0.39236377 31 120 181
0.74329677 -0.92679775 -0.39767320 31 120 181
0.11682647 0.53580010 -0.40103473 31 120 181
0.46887594 -0.45596162 -0.38753875 31 120 181
-0.33725281 0.34341345 -0.39878506 31 120 181
-0.30813636 0.41433762 -0.40159904 31 120 181
0.17707079 -0.04828361 -0.39527377 31 120 181
0.55464148 -0.46168640 -0.39840116 31 120 181
0.92082195 0.81981285 -0.40117737 31 120 181
0.55433408 0.35640189 -0.39709425 31 120 181
-0.89231296 -0.08593767 -0.40479228 31 120 181
0.50583891 0.92166768 -0.40162751 31 120 181
-0.94216381 -0.90750010 -0.40211280 31 120 181
-0.64828859 0.34343747 -0.39000831 31 120 181
0.10266503 0.66286610 -0.39982039 31 120 181
0.56363541 0.20978710 -0.38971826 31 120 181
-0.04293794 -0.51558898 -0.40482694 31 120 181
0.20842037 0.75184379 -0.40207930 31 120 181
0.03944561 -0.37565657 -0.39192181 31 120 181
-0.06087060 -0.77076869 -0.40656625 31 120 181
0.05276744 0.42565226 -0.39835138 31 120 181
0.58549701 0.58047556 -0.40938519 31 120 181
-0.64488099 0.47352848 -0.40345514 31 120 181
-0.50662178 0.44803354 -0.40281508 31 120 181
0.90526037 0.67102536 -0.40152720 31 120 181
-0.16062513 -0.07508459 -0.39556062 31 120 181
0.12396639 -0.26911004 -0.40280109 31 120 181
0.94610204 0.87657585 -0.40459841 31 120 181
-0.77121438 0.98651516 -0.39045922 31 120 181
0.06772815 -0.68882062 -0.40518208 31 120 181
0.32420304 0.63357695 -0.40311815 31 120 181
0.22849313 0.12567748 -0.38848430 31 120 181
0.20305903 0.84377901 -0.39435433 31 120 181
0.13416881 -0.11091592 -0.39891191 31 120 181
-0.85775180 0.05488980 -0.39312386 31 120 181
0.95778861 0.18986987 -0.40027317 31 120 181
0.89817561 0.16567007 -0.40534925 31 120 181
-0.88033861 -0.52420514 -0.39995418 31 120 181
-0.97121525 -0.98361227 -0.39363274 31 120 181
0.44420838 -0.72317290 -0.38978371 31 120 181
-0.64912390 -0.26228322 -0.39743677 31 120 181
-0.54540733 0.82707401 -0.41203956 31 120 181
-0.73575892 -0.45779905 -0.40424023 31 120 181
0.87048627 -0.10908198 -0.39565910 31 120 181
0.90578277 -0.00480585 -0.39757161 31 120 181
-0.09598410 -0.17929313 -0.40371620 31 120 181
0.88076625 -0.65680619 -0.40163145 31 120 181
-0.33321996 0.80697250 -0.40374187 31 120 181
-0.50456298 -0.15348669 -0.40493136 31 120 181
-0.52164206 -0.32017476 -0.40615808 31 120 181
0.40217088 0.17455264 -0.40469583 31 120 181
0.18604817 0.50619859 -0.40936728 31 120 181
-0.17985393 0.26635800 -0.39068892 31 120 181
-0.56352189 0.05188371 -0.39653952 31 120 181
0.91552142 -0.71563924 -0.41366348 31 120 181
0.07162957 -0.90561241 -0.40005040 31 120 181
-0.45717637 -0.69242624 -0.40340861 31 120 181
0.12731340 -0.28955681 -0.40051187 31 120 181
0.09722273 -0.72331883 -0.40889613 31 120 181
-0.21968687 0.71597624 -0.40848687 31 120 181
-0.18806746 -0.93835671 -0.40621401 31 120 181
-0.19437230 0.57434658 -0.38336894 31 120 181
-0.43284388 -0.27413532 -0.40995356 31 120 181
0.05897409 0.96449647 -0.39867892 31 120 181
-0.63829019 -0.87597051 -0.39801980 31 120 181
-0.30980054 0.30024143 -0.40396692 31 120 181
-0.03715693 -0.39668960 -0.40305881 31 120 181
-0.80224262 0.24809543 -0.40343213 31 120 181
0.69989768 -0.39139963 -0.40307321 31 120 181
0.90890977 -0.82559998 -0.40787369 31 120 181
0.16389616 -0.60125385 -0.40524564 31 120 181
-0.63749330 -0.51469129 -0.39533515 31 120 181
0.31432537 -0.62421455 -0.40046631 31 120 181
-0.61671766 0.77058812 -0.40425307 31 120 181
-0.42414419 -0.32075150 -0.40182758 31 120 181
-0.91366160 -0.53149864 -0.39901134 31 120 181
0.10764433 0.93662624 -0.40481425 31 120 181
-0.80569039 -0.97917293 -0.39756929 31 120 181
0.72175538 -0.97420792 -0.39883910 31 120 181
-0.82001467 0.72311074 -0.40892079 31 120 181
0.49069217 0.72746769 -0.39876664 31 120 181
-0.42296569 0.93481162 -0.40764754 31 120 181
0.75678896 -0.42441997 -0.39726826 31 120 181
0.87803888 -0.65418857 -0.40182401 31 120 181
1.77548261 0.34450574 0.35046851 255 128 13
1.70482950 0.32458865 0.47630503 255 128 13
1.83554341 -0.07347351 0.74850080 255 128 13
1.90608476 0.08809033 0.72213230 255 128 13
1.73234758 -0.05657695 0.73373872 255 128 13
1.75605157 -0.30455560 0.21452647 255 128 13
1.92632256 0.31606182 0.47791433 255 128 13
2.11626007 0.11457001 0.34938504 255 128 13
1.74478418 0.28398777 0.20654720 255 128 13
1.70924212 -0.14574599 0.09253625 255 128 13
1.56131763 -0.09828229 0.16676989 255 128 13
1.99950838 0.26667950 0.30468050 255 128 13
1.62197725 0.07899265 0.10429835 255 128 13
1.68749444 -0.21837619 0.17382488 255 128 13
1.66818724 0.07253994 0.07865072 255 128 13
1.57427620 -0.24690723 0.48123854 255 128 13
2.14206249 -0.07014027 0.39558242 255 128 13
1.68090845 -0.26812226 0.22548887 255 128 13
1.53001275 0.21794324 0.41166602 255 128 13
1.92848503 0.31626736 0.35120903 255 128 13
1.60966845 0.26583710 0.51516534 255 128 13
1.62018613 -0.01678190 0.70150943 255 128 13
2.06226197 -0.22579258 0.29057575 255 128 13
1.85461951 -0.33280089 0.49641881 255 128 13
1.67656417 0.27163877 0.20050735 255 128 13
1.95214037 -0.07150820 0.70522825 255 128 13
1.46816119 0.05912798 0.47872223 255 128 13
1.70471776 -0.23475230 0.15873425 255 128 13
2.03577641 0.18406110 0.24078881 255 128 13
2.00723671 0.15557059 0.15723755 255 128 13
1.87070367 0.25801414 0.17712435 255 128 13
2.03295754 -0.20734852 0.26941494 255 128 13
1.68020444 -0.24490243 0.62358539 255 128 13
2.00457281 -0.28396342 0.36010753 255 128 13
1.61593236 -0.24499238 0.25158362 255 128 13
1.51999936 0.19011056 0.34540488 255 128 13
1.49627796 -0.02759618 0.23619525 255 128 13
1.53868485 -0.17119851 0.55876843 255 128 13
1.90329544 -0.13763851 0.09164873 255 128 13
1.50009411 0.11685686 0.25214379 255 128 13
2.05706213 -0.19378704 0.27749864 255 128 13
1.58769836 -0.17600908 0.17348931 255 128 13
1.94956224 -0.27439133 0.56245861 255 128 13
1.52787714 -0.00047893 0.16522447 255 128 13
1.68258490 -0.30030637 0.26753987 255 128 13
1.71249497 0.13473027 0.09301262 255 128 13
1.50550799 -0.03340304 0.58242062 255 128 13
1.87082037 0.33725121 0.31388100 255 128 13
2.06531569 0.19760145 0.49906603 255 128 13
2.07802067 0.06402828 0.20078084 255 128 13
1.76671519 -0.09859429 0.06464193 255 128 13
1.48796273 0.08983848 0.27232189 255 128 13
2.02476114 -0.16661963 0.60384851 255 128 13
1.92899974 -0.21878467 0.62705542 255 128 13
1.54024116 0.21885940 0.30301792 255 128 13
2.04231310 -0.04649622 0.65250411 255 128 13
1.66047589 -0.07980632 0.08817113 255 128 13
1.83359953 -0.34678597 0.43121063 255 128 13
1.53776340 0.16663562 0.22876695 255 128 13
1.91113104 0.31965952 0.36691418 255 128 13
1.93853509 0.24578264 0.20093245 255 128 13
1.89286409 0.19844020 0.66685467 255 128 13
1.54399227 -0.19353604 0.26387770 255 128 13
1.92332776 0.09254640 0.72278625 255 128 13
2.01778795 0.03806557 0.14354172 255 128 13
1.97167014 -0.30787732 0.35606649 255 128 13
2.08100816 0.20065377 0.35421173 255 128 13
1.50750684 0.09444378 0.53820685 255 128 13
1.46542021 0.01708283 0.29246301 255 128 13
1.54278395 -0.24634533 0.39835707 255 128 13
1.61706476 -0.00017532 0.10688024 255 128 13
2.09708072 -0.12817918 0.26891780 255 128 13
1.80612757 -0.31258131 0.55832876 255 128 13
1.60758295 -0.09528150 0.12791043 255 128 13
1.53728442 -0.23741759 0.37403650 255 128 13
1.49870637 -0.01142826 0.21892576 255 128 13
2.05365171 -0.06074723 0.16117594 255 128 13
1.84395165 0.23135626 0.12820133 255 128 13
1.69311160 -0.24145708 0.62877394 255 128 13
1.49533499 -0.10322557 0.52173803 255 128 13
2.12791843 0.09307079 0.30445947 255 128 13
1.69760746 0.33211482 0.33093844 255 128 13
2.07573461 -0.13581159 0.56952451 255 128 13
1.87147634 -0.34230980 0.47240086 255 128 13
1.99116587 0.02344218 0.69217138 255 128 13
1.74016180 0.19682404 0.69058888 255 128 13
2.15194858 0.02559314 0.39222822 255 128 13
1.95623569 -0.28974561 0.51098727 255 128 13
2.05957232 0.22150728 0.43007693 255 128 13
2.10188823 0.11519605 0.26345166 255 128 13
2.15416828 -0.03018214 0.35425723 255 128 13
1.50414185 0.10044865 0.53918564 255 128 13
1.65745491 0.31269412 0.43462310 255 128 13
2.11771717 0.10882500 0.50012025 255 128 13
1.53263928 0.22786730 0.39027674 255 128 13
1.70212374 0.10605927 0.71729161 255 128 13
1.50725475 -0.04063151 0.59848700 255 128 13
2.03766736 0.01716410 0.15769100 255 128 13
1.95022871 0.21832107 0.61646457 255 128 13
1.84526681 0.17827392 0.69261951 255 128 13
1.54629392 0.09511570 0.62013480 255 128 13
1.68918682 0.30048124 0.29664023 255 128 13
1.54263591 -0.22626099 0.30937477 255 128 13
1.72971697 0.27986070 0.22557147 255 128 13
1.92529400 -0.08764732 0.08971423 255 128 13
2.14757016 -0.07578236 0.38143743 255 128 13
2.02783536 0.08857120 0.65186234 255 128 13
1.88579823 0.28866740 0.58429904 255 128 13
1.50072348 -0.12995210 0.51109214 255 128 13
1.83092923 -0.24620252 0.64468512 255 128 13
2.11127456 0.13768459 0.51445919 255 128 13
1.90212095 0.25723519 0.20728492 255 128 13
1.53150970 0.08771356 0.61202727 255 128 13
1.63406958 -0.28873464 0.31365060 255 128 13
1.97838931 -0.12213533 0.66624210 255 128 13
2.01445111 -0.23611441 0.27009496 255 128 13
1.86043152 -0.19055970 0.11894990 255 128 13
2.09938123 0.10448827 0.54807998 255 128 13
2.00859393 -0.03534180 0.13084165 255 128 13
1.61640848 -0.15938817 0.65697323 255 128 13
2.10321061 0.16880693 0.33022291 255 128 13
1.79478619 0.27702287 0.59807671 255 128 13
1.68390478 -0.11693951 0.08427629 255 128 13
1.53153410 0.23052081 0.43286936 255 128 13
1.49982175 0.10770512 0.52442915 255 128 13
1.87557316 -0.22148451 0.14695120 255 128 13
1.94170691 -0.30141952 0.47266741 255 128 13
1.56588941 -0.06905926 0.15521940 255 128 13
1.88629805 -0.31295377 0.26466256 255 128 13
1.52010724 0.18646317 0.30693053 255 128 13
2.14072473 -0.05342555 0.48464257 255 128 13
1.60633480 -0.14529009 0.12993509 255 128 13
2.07045229 -0.06040369 0.18715025 255 128 13
2.09635437 0.07657979 0.60485739 255 128 13
2.03617826 -0.21552745 0.54606508 255 128 13
1.47881806 -0.11866404 0.37006620 255 128 13
1.71959127 -0.31305132 0.24603426 255 128 13
1.92217280 0.30401708 0.53650682 255 128 13
1.47420610 -0.10642471 0.37695639 255 128 13
1.71971386 0.30369030 0.27086384 255 128 13
1.98515730 0.14844876 0.65514484 255 128 13
2.07601005 0.01123215 0.19322659 255 128 13
2.03974149 -0.15861748 0.61420282 255 128 13
1.63377442 -0.29713864 0.47956227 255 128 13
1.89656436 0.32795988 0.50623771 255 128 13
1.77314422 0.33119709 0.53019197 255 128 13
1.49700864 0.05985069 0.57383957 255 128 13
1.89775049 -0.20885128 0.65692790 255 128 13
1.94157964 0.12851106 0.70905549 255 128 13
2.09133082 -0.04623233 0.23931055 255 128 13
2.04501390 -0.07948654 0.16529971 255 128 13
1.81302366 0.20881959 0.67794005 255 128 13
1.61523449 -0.22761062 0.19105054 255 128 13
1.61048434 0.22746349 0.21300028 255 128 13
1.70890351 -0.26180326 0.61480741 255 128 13
1.89817066 0.06739811 0.72634552 255 128 13
1.55058856 0.04097786 0.62929046 255 128 13
1.50138509 -0.18272837 0.41975675 255 128 13
1.56931480 -0.23318553 0.31513996 255 128 13
1.78074394 -0.07094513 0.74575681 255 128 13
2.04501815 -0.17846008 0.56670400 255 128 13
1.81094462 0.34588877 0.48561767 255 128 13
1.84159782 0.05849756 0.05234360 255 128 13
1.59356167 0.17960918 0.18296209 255 128 13
1.72709327 -0.03644533 0.06313541 255 128 13
1.99477268 -0.05449208 0.68106245 255 128 13
1.72432463 -0.28659068 0.21001268 255 128 13
1.78034083 -0.26021319 0.18373857 255 128 13
2.14527273 -0.07678781 0.45473095 255 128 13
1.76628795 0.28178948 0.20158761 255 128 13
1.78374775 0.33404796 0.43441433 255 128 13
1.66553571 0.07397198 0.72300740 255 128 13
1.72588346 0.23693045 0.64481290 255 128 13
1.62500770 -0.24254389 0.23529647 255 128 13
1.98091140 -0.06811803 0.69544710 255 128 13
1.99138147 0.29112558 0.32532497 255 128 13
1.44732878 -0.03187660 0.41663854 255 128 13
1.66191283 -0.30307509 0.28738741 255 128 13
1.79193898 0.00511085 0.74394102 255 128 13
2.06732015 -0.16809689 0.26599819 255 128 13
1.78412668 -0.30493599 0.57038629 255 128 13
2.05480673 -0.21053087 0.47901836 255 128 13
2.05491274 0.20842039 0.53381101 255 128 13
1.86813849 0.20837462 0.11527542 255 128 13
2.11179328 0.13879412 0.41880393 255 128 13
1.82237446 -0.02782917 0.74341517 255 128 13
2.14246934 -0.08434787 0.44393501 255 128 13
2.07726869 0.03569231 0.18775331 255 128 13
1.83266998 -0.15700349 0.09400116 255 128 13
1.74428833 -0.32877056 0.27868548 255 128 13
2.04082093 -0.16908948 0.57794451 255 128 13
1.78747283 0.10259305 0.07151111 255 128 13
1.77004613 -0.13475785 0.07959272 255 128 13
1.82389985 0.33150564 0.50907349 255 128 13
2.00115838 0.10323275 0.66313769 255 128 13
1.77990774 -0.35057186 0.34876845 255 128 13
2.12084425 0.08557681 0.49003138 255 128 13
1.70978999 -0.29703608 0.23186763 255 128 13
1.73969940 0.30448454 0.23086289 255 128 13
1.43850012 0.03225491 0.38786916 255 128 13
2.02639784 -0.18884147 0.21193490 255 128 13
1.82158093 0.34779574 0.36623580 255 128 13
1.54418555 0.05355766 0.14403309 255 128 13
1.69017463 0.15078112 0.69718995 255 128 13
1.93165165 0.30905283 0.50694970 255 128 13
1.60295974 0.03503456 0.11326788 255 128 13
1.92231254 0.25359511 0.18386843 255 128 13
1.87870415 -0.25043963 0.64394267 255 128 13
1.54639090 -0.22509554 0.30414384 255 128 13
1.72906803 0.28891832 0.23332875 255 128 13
1.90415175 -0.02409188 0.05724495 255 128 13
1.61315724 0.26749341 0.51447098 255 128 13
1.63710967 -0.30427864 0.44875799 255 128 13
1.77748493 -0.25903465 0.64626069 255 128 13
1.76863370 0.26448427 0.17244412 255 128 13
2.09960741 0.02424078 0.56871755 255 128 13
1.99751938 -0.16676572 0.62437982 255 128 13
2.05993360 -0.07207874 0.63039783 255 128 13
1.94806674 0.26813528 0.57282430 255 128 13
1.99550300 0.28284573 0.37167571 255 128 13
-1.37138622 0.26667404 1.00063160 51 51 51
-1.75921096 0.49836843 -0.41313875 31 120 181
-1.64041942 -0.47431797 0.02304537 43 161 43
-2.23012726 -0.25620103 0.62502126 51 51 51
-1.38409410 0.27127940 0.68134564 51 51 51
-2.25017525 0.19564197 0.09390862 43 161 43
-2.29206144 0.06543944 0.46996873 43 161 43
-1.53316579 0.42107880 0.53697955 51 51 51
-1.84341158 -0.49534902 -0.08313763 51 51 51
-1.41395242 0.33158586 0.51060962 51 51 51
-2.17976169 0.31996550 0.34749047 43 161 43
-2.29208025 -0.05206028 0.60448477 51 51 51
-2.25268921 0.21425874 0.22526789 43 161 43
-2.21737996 -0.25830478 -0.12875507 51 51 51
-1.83631699 -0.50117785 0.06977668 43 161 43
-1.31880250 -0.13403832 1.05646238 51 51 51
-1.90905522 0.48872153 -0.42608636 31 120 181
-2.09353708 -0.40889843 -0.50755075 51 51 51
-1.96600667 -0.46844379 -0.77597192 51 51 51
-1.93560704 0.47689428 0.90736336 51 51 51
-1.29136872 0.00661842 1.17842513 51 51 51
-1.30427239 -0.08864705 -0.32893603 51 51 51
-1.95133146 0.47882778 -0.26799606 51 51 51
-2.00294476 0.46688451 -0.39310114 31 120 181
-1.41291843 -0.31215873 0.40198789 43 161 43
-2.22540223 -0.26383988 0.17989487 43 161 43
-2.29470507 0.09723133 0.84163627 51 51 51
-1.72947087 -0.49550470 -0.37520834 31 120 181
-1.31424088 0.09250713 0.95297858 51 51 51
-1.94384936 -0.47403001 0.13137636 43 161 43
-2.15199752 0.36221115 0.80999504 43 161 43
-1.37971820 0.28052381 0.81003923 51 51 51
-2.07993833 -0.44299615 1.01527303 51 51 51
-1.33927985 -0.21155422 0.19632044 43 161 43
-1.66347826 0.47671057 0.42048539 51 51 51
-2.13731434 -0.36187616 0.32443717 43 161 43
-1.95262223 0.48036555 -0.42196043 31 120 181
-1.81805589 -0.48390893 0.19860397 43 161 43
-1.90004873 -0.49492516 1.05549949 51 51 51
-1.69604752 0.49684553 1.01309319 51 51 51
-1.56419407 -0.43072064 -0.76354527 43 161 43
-2.06757023 -0.41952735 0.53131017 51 51 51
-2.00066398 -0.45142735 -0.14153417 51 51 51
-1.59283140 -0.45052702 -0.52803865 43 161 43
-2.24863600 0.22433718 -0.52274696 43 161 43
-1.77693645 -0.50362091 0.78805798 51 51 51
-1.43428506 -0.35062735 1.12528749 51 51 51
-1.39807554 0.29840085 0.23249148 43 161 43
-1.50522688 -0.40078704 -0.04355381 43 161 43
-2.18585137 0.31899576 0.22180494 43 161 43
-2.29298123 0.07813382 0.86597661 51 51 51
-1.50225661 0.39753344 0.69254533 51 51 51
-1.96010795 -0.48816293 -0.66721937 51 51 51
-1.93417631 0.48369025 -0.37575647 31 120 181
-1.44989987 -0.36380003 0.93063707 43 161 43
-1.87618414 0.50208813 0.18424102 43 161 43
-2.25454561 -0.18776331 0.51225929 51 51 51
-2.19472179 0.28985393 0.76112917 43 161 43
-2.18235535 -0.32299987 0.46579023 51 51 51
-1.64051086 0.47855016 0.66891859 51 51 51
-1.58769831 0.45015856 0.29396332 43 161 43
-1.81824637 -0.50662233 -0.34229154 51 51 51
-1.79802084 -0.50415477 -0.42624042 31 120 181
-2.25719932 -0.20559613 1.19706893 51 51 51
-1.35415624 -0.23052056 -0.77915454 51 51 51
-1.66587240 0.47209706 0.57973549 51 51 51
-1.51633753 -0.40634047 0.96589388 51 51 51
-1.54661095 0.44240544 -0.34235319 51 51 51
-1.30953004 -0.11577490 -0.69798179 51 51 51
-2.15711363 -0.34548827 0.01393101 51 51 51
-2.18588753 -0.29711346 -0.13901793 51 51 51
-1.31050878 -0.08396354 0.13352480 43 161 43
-1.68803537 -0.48606578 0.04622449 43 161 43
-1.67710646 -0.47902600 1.08353053 51 51 51
-1.33201817 0.15824406 -0.55913847 51 51 51
-2.13585043 0.36959450 1.08958104 43 161 43
-1.37710519 0.26480696 -0.70884798 51 51 51
-1.62715486 0.47325093 1.06349761 51 51 51
-1.68784425 0.48634881 -0.13176492 51 51 51
-1.47650400 -0.38512893 0.64318030 43 161 43
-1.45240107 0.35866359 -0.79293011 51 51 51
-1.95247744 0.46859440 0.09784582 43 161 43
-2.29743389 0.02233651 0.54517317 51 51 51
-1.49683618 -0.42290397 0.45446539 43 161 43
-1.29933663 -0.10930654 0.81413033 43 161 43
-1.93705651 -0.47465741 -0.50090882 51 51 51
-1.68538072 0.48785155 -0.00390336 43 161 43
-2.27484014 -0.14793905 0.42327999 43 161 43
-1.93677196 -0.48345369 -0.73973465 51 51 51
-1.32078820 0.15835959 0.86806945 51 51 51
-2.01632072 -0.45445203 0.03733331 43 161 43
-2.13962439 0.37060387 -0.30838961 43 161 43
-2.22773453 -0.26193560 -0.36130330 31 120 181
-2.04212349 -0.42852295 0.49528009 51 51 51
-2.04360634 -0.44633494 -0.70737984 51 51 51
-2.30373311 -0.07432966 -0.31432140 51 51 51
-2.26992733 -0.15908681 -0.19046755 51 51 51
-1.63602468 0.47339568 -0.28448353 51 51 51
-2.30477532 0.00431181 0.66162445 51 51 51
-1.43758266 0.35731964 0.38167103 43 161 43
-2.28644958 0.05774192 1.00421420 51 51 51
-2.29436646 -0.11865741 0.60047657 51 51 51
-1.71256754 -0.49551335 -0.21727768 43 161 43
-2.19612520 0.30841998 -0.16180089 43 161 43
-1.30302711 0.06562501 -0.55158542 51 51 51
-2.28881466 -0.09447522 -0.32510449 51 51 51
-1.65349254 0.48691609 0.39999851 43 161 43
-1.82621320 -0.49909268 0.66526202 51 51 51
-2.18138340 0.31884203 -0.20703347 43 161 43
-2.16455799 0.34089667 -0.12265436 43 161 43
-1.39672785 -0.27409970 0.79597757 43 161 43
-2.18962220 0.31576311 1.11853734 51 51 51
-2.09318333 0.40704149 -0.62356525 51 51 51
-2.09320981 0.41366758 -0.65321673 51 51 51
-2.29478295 0.06899134 0.71411013 51 51 51
-1.37781269 0.27101418 0.18676739 43 161 43
-2.28494464 -0.14208372 0.04438547 43 161 43
-1.35939093 -0.24375767 0.47352887 43 161 43
-2.25041368 -0.19120961 0.73064433 51 51 51
-1.81576300 -0.48661816 -0.65970507 51 51 51
-1.33674673 -0.15408282 1.12286257 51 51 51
-1.53271437 -0.42250344 1.10637603 51 51 51
-1.81983139 -0.50607307 0.04221118 43 161 43
-1.60274653 -0.47110022 0.13007075 43 161 43
-1.59011705 -0.46377761 -0.25605855 43 161 43
-1.81205689 0.49522399 0.37169035 43 161 43
-2.29379942 0.06507365 -0.38072999 31 120 181
-2.07487444 0.42266454 0.26478450 43 161 43
-1.83435613 0.49288383 1.01304594 51 51 51
-2.25774703 -0.22308048 0.21231477 43 161 43
-2.00351963 0.44657233 0.85095777 43 161 43
-2.16654958 -0.33781044 -0.44664719 51 51 51
-2.23386433 -0.24910494 0.97545821 51 51 51
-1.40042665 0.29701482 -0.56682609 51 51 51
-2.26703122 0.18407191 -0.37323440 31 120 181
-2.17967345 0.31615512 0.63229370 43 161 43
-1.93001148 -0.48097558 -0.19192144 51 51 51
-1.38301148 0.26403170 -0.56592788 51 51 51
-1.55142066 0.43308306 -0.63005196 51 51 51
-2.30194887 -0.03195246 0.78677025 51 51 51
-2.21738151 0.27596090 -0.76673317 43 161 43
-2.04480688 -0.44181305 -0.69241563 51 51 51
-2.04487473 0.44083045 1.09015247 43 161 43
-1.63249257 0.47731346 0.77021749 51 51 51
-1.34486997 -0.19769985 -0.05783342 43 161 43
-1.77154077 0.49313564 -0.40948593 31 120 181
-1.50610665 0.39016550 0.93751067 51 51 51
-1.89816247 0.49406779 0.76905521 51 51 51
-2.05733964 0.42289978 0.53047372 43 161 43
-1.72084875 0.49944552 0.25640671 43 161 43
-2.28366901 -0.10054391 0.25602890 43 161 43
-1.33850832 -0.19610089 1.15965215 43 161 43
-1.45750359 0.33789058 0.24090067 43 161 43
-2.23680483 0.26487448 -0.63076218 43 161 43
-2.05150356 -0.44196662 -0.64706133 51 51 51
-1.43016448 -0.33446086 0.39092533 43 161 43
-1.29909821 0.00034447 0.66643465 51 51 51
-1.48196719 0.40305056 0.44697463 43 161 43
-2.27045522 -0.11490990 0.69352706 51 51 51
-1.43695356 -0.33713061 -0.20988241 43 161 43
-1.32638216 0.16908640 -0.05351164 51 51 51
-2.23060134 -0.26363115 -0.26449967 51 51 51
-1.56539126 0.44237435 -0.05603967 51 51 51
-1.74457395 -0.50304009 -0.27401571 51 51 51
-1.32803512 -0.19288030 0.86930075 43 161 43
-2.28963725 -0.11089233 -0.49337834 51 51 51
-1.30166079 0.03169258 -0.38829797 31 120 181
-1.32915034 0.20241712 0.62356288 51 51 51
-2.22355030 0.25523169 -0.00122524 43 161 43
-1.51040797 -0.41299430 -0.12024668 43 161 43
-1.75429769 0.49841371 1.14365457 51 51 51
-2.03062745 -0.43767034 0.98467189 51 51 51
-2.21784620 0.28480391 -0.35584609 43 161 43
-1.84564714 0.50336541 -0.49789218 51 51 51
-1.94466234 -0.48157572 0.18516600 43 161 43
-1.97562743 0.45503569 0.36737285 43 161 43
-2.15137309 0.36286537 -0.10120186 43 161 43
-1.74649594 -0.49587912 0.36576244 43 161 43
-2.30594912 0.01996791 0.55116263 51 51 51
-1.70026690 -0.50251797 0.83684883 51 51 51
-2.29404070 -0.05621399 -0.31620908 51 51 51
-1.53237762 0.41564125 0.48878774 51 51 51
-2.26731542 0.17671487 -0.67603378 43 161 43
-1.45110380 -0.36109766 -0.66781910 43 161 43
-2.26261251 -0.20570746 -0.68229639 51 51 51
-1.31432633 -0.10878573 -0.56323166 51 51 51
-1.30653803 0.00757424 0.76633193 51 51 51
-2.06935692 0.42402893 -0.06268576 43 161 43
-1.75341475 -0.49800904 0.18028520 43 161 43
-1.98992827 -0.45860429 0.09872977 43 161 43
-2.26335409 -0.17869087 -0.37893932 31 120 181
-2.05559029 -0.42565631 -0.71000919 51 51 51
-1.44395945 -0.34672046 -0.43695157 31 120 181
-2.00084535 -0.46364454 0.90666694 51 51 51
-2.28824270 -0.14873248 -0.11467256 51 51 51
-2.25478009 -0.19713877 0.03182803 43 161 43
-2.04593450 -0.42968294 -0.27931707 51 51 51
-2.01750363 0.44818581 0.69045923 43 161 43
-2.04028236 -0.43186015 0.60675265 51 51 51
-2.18066413 -0.33198288 -0.03631749 51 51 51
-1.68306624 -0.49321680 0.20365149 43 161 43
-2.29196464 0.06893043 0.00038499 43 161 43
-1.30054149 0.07547654 0.34254877 43 161 43
-2.28981900 -0.11501506 0.37432936 43 161 43
-1.48690243 -0.38811227 0.34926252 43 161 43
-2.11788823 -0.37807639 1.00350613 51 51 51
-2.10382091 -0.38596544 1.10302474 51 51 51
-2.18478014 0.31424682 -0.68968768 43 161 43
-2.11309800 0.38791606 -0.03620095 43 161 43
-1.90135010 -0.48786440 -0.71289282 51 51 51
-1.35797229 0.23544130 -0.04504609 51 51 51
-1.46136821 -0.38121470 0.79834312 43 161 43
-1.43552318 -0.34825160 0.54658427 43 161 43
-1.32186088 -0.11665201 0.32888062 43 161 43
-1.46803253 0.37703100 -0.62434761 51 51 51
-1.43263369 0.33538063 0.83460770 51 51 51
-1.41146855 -0.30087287 0.43089212 43 161 43
-2.20258657 0.29075751 -0.20157661 43 161 43
-1.86892807 0.50063077 0.77667328 51 51 51
-2.16173771 0.34306984 -0.71631622 43 161 43
-2.07169560 -0.42843324 -0.42354407 31 120 181
-1.53291590 0.42531788 0.76926426 51 51 51
-2.30135218 0.03156389 -0.70717499 51 51 51
-2.07393389 -0.42310423 -0.53361921 51 51 51
-1.89033406 -0.48323074 0.19675464 43 161 43
-1.31443173 0.04431125 0.62881443 51 51 51
-1.60456951 -0.46197306 0.38191702 43 161 43
-2.25694370 0.19333672 -0.72937015 43 161 43
-2.25671410 0.19298102 -0.23877468 43 161 43
-2.27117275 -0.19336051 0.61925776 51 51 51
-1.89757248 0.48445182 -0.11118917 43 161 43
-1.42556652 -0.31733351 -0.40892317 31 120 181
-1.67887709 0.48298995 -0.79019256 51 51 51
-2.28126512 -0.13792777 -0.27709974 51 51 51
-1.55233983 0.44237724 1.06139978 51 51 51
-2.16952872 -0.32096134 -0.70550936 51 51 51
-1.39924289 -0.28292396 0.30912302 43 161 43
-1.43028087 -0.33439940 1.01758103 43 161 43
-1.46528851 0.37258294 0.60621386 51 51 51
-2.16065936 -0.35795163 -0.23714160 51 51 51
-2.26460694 -0.96754770 0.01442682 51 51 51
2.81510369 -1.35073150 1.14323418 51 51 51
-2.02172837 -0.64815220 0.69430704 51 51 51
0.69920503 1.81974466 0.02850195 51 51 51
2.63785087 1.70699477 0.78892935 51 51 51
-2.88322734 1.18959720 1.25188797 51 51 51
0.14317692 -1.21134924 -0.54801692 51 51 51
2.07237083 -1.65103563 0.36551607 51 51 51
-1.77945670 -0.79487865 1.44288619 51 51 51
-1.34024932 0.73404049 0.91846292 51 51 51
-1.27060640 -1.41376180 0.93040148 51 51 51
-0.27828371 -0.84848160 -0.47094295 51 51 51
2.90172951 0.58522765 0.30765973 51 51 51
-2.31482695 1.64977638 -0.16803291 51 51 51
1.74444634 1.62134701 -0.48538566 51 51 51
2.86768873 1.57679158 0.41531546 51 51 51
1.34588499 -0.89042356 0.80926066 51 51 51
-0.41319772 -0.69803717 0.74217950 51 51 51
-0.70123301 0.81805957 1.12882460 51 51 51
-1.37508386 -1.17400278 -0.19908525 51 51 51
-0.45750405 0.91369520 0.09371044 51 51 51
1.16080378 1.98154274 -0.41571559 31 120 181
1.55055718 -0.09285050 0.04541691 51 51 51
0.60995518 -1.52736253 -0.21158502 51 51 51
-1.35629211 0.44172187 -0.43752277 31 120 181
-2.71565504 -1.83741063 0.93635135 51 51 51
1.10292489 1.39824898 0.69296441 51 51 51
-2.68649454 0.80452619 0.36748528 51 51 51
2.77075679 -1.08085080 -0.80547569 51 51 51
1.99734289 -0.30924693 0.17492071 51 51 51
1.30174428 -1.26835763 0.12756344 51 51 51
1.81395411 0.37633667 1.25792741 51 51 51
2.19228399 -0.90601522 0.98939936 51 51 51
0.81686444 -1.51564258 -0.34094136 51 51 51
1.52265391 1.38379269 -0.61219251 51 51 51
1.22456000 -0.69642960 -0.54121605 51 51 51
-2.40858626 -1.60508115 0.15740404 51 51 51
-2.30332514 0.42400713 1.06270707 51 51 51
-0.46493253 0.47868604 1.09080108 51 51 51
1.94447318 -0.74586449 0.41433525 51 51 51
-0.14961869 -1.52056318 -0.50057626 51 51 51
-2.49395162 -1.11100797 1.39471441 51 51 51
2.44157605 1.29346198 1.11621514 51 51 51
2.51676855 -1.24736445 0.45132315 51 51 51
-0.74077961 -1.22986579 -0.65795604 51 51 51
2.21083983 0.55332579 0.77049476 51 51 51
2.34617578 -1.24554699 1.48245949 51 51 51
-0.05221914 -0.62392742 1.34351060 51 51 51
-1.43633512 1.43741393 -0.59474595 51 51 51
0.60297220 0.48150059 -0.16875483 51 51 51
0.66622423 1.76052741 -0.06648926 51 51 51
-2.28449143 -0.16876587 -0.74403118 51 51 51
0.94923987 0.95830122 -0.91148565 51 51 51
1.98503506 0.74227247 0.11485070 51 51 51
-2.96527279 -1.28527336 0.13814989 51 51 51
1.87543683 -1.81749961 0.74256340 51 51 51
-2.89660797 0.12744274 -0.28906604 51 51 51
1.67664588 -1.38182425 1.12508271 51 51 51
1.54597448 1.90317139 0.36697720 51 51 51
-1.67708413 0.97118980 0.33954949 51 51 51
