<svg xmlns="http://www.w3.org/2000/svg" width="800" height="400" fill="none" viewBox="0 0 800 400">
  <rect width="800" height="400" fill="#f8fafc" rx="8" />
  <!-- Sidebar -->
  <rect width="200" height="400" fill="#f8fafc" rx="8" />
  <path stroke="#e2e8f0" d="M200 0v400" />
  <text x="20" y="40" fill="#0f172a" font-family="sans-serif" font-size="14" font-weight="600">PointCloud-GeoLab</text>
  
  <rect x="10" y="240" width="180" height="30" fill="#e2e8f0" rx="4" />
  <text x="20" y="260" fill="#0f172a" font-family="sans-serif" font-size="12" font-weight="500">Reports</text>
  
  <!-- Topbar -->
  <path stroke="#e2e8f0" d="M200 60h600" />
  
  <!-- Reports Filter -->
  <rect x="220" y="80" width="560" height="50" fill="#ffffff" rx="8" stroke="#e2e8f0" />
  <text x="240" y="110" fill="#0f172a" font-family="sans-serif" font-size="14" font-weight="600">Reports</text>
  <rect x="680" y="93" width="80" height="24" fill="#f1f5f9" rx="4" />
  <text x="692" y="109" fill="#334155" font-family="sans-serif" font-size="11">Refresh</text>
  
  <!-- Task Entry -->
  <rect x="220" y="150" width="560" height="230" fill="#ffffff" rx="8" stroke="#e2e8f0" />
  <text x="240" y="180" fill="#0f172a" font-family="sans-serif" font-size="14" font-weight="600">registration/icp</text>
  <rect x="360" y="165" width="70" height="20" fill="#10b981" rx="10" />
  <text x="372" y="179" fill="#ffffff" font-family="sans-serif" font-size="10" font-weight="600">COMPLETED</text>
  <text x="640" y="180" fill="#64748b" font-family="sans-serif" font-size="11">2026-06-20T12:00:00Z</text>
  
  <!-- Metrics -->
  <rect x="240" y="200" width="520" height="70" fill="#ffffff" rx="4" stroke="#e2e8f0" />
  <text x="250" y="220" fill="#0f172a" font-family="sans-serif" font-size="12" font-weight="600">Metrics</text>
  <path stroke="#e2e8f0" d="M240 230h520" />
  <text x="250" y="250" fill="#64748b" font-family="sans-serif" font-size="11">fitness</text>
  <text x="350" y="250" fill="#0f172a" font-family="sans-serif" font-size="11">0.9984</text>
  <path stroke="#e2e8f0" d="M500 230v40" />
  <text x="510" y="250" fill="#64748b" font-family="sans-serif" font-size="11">inlier_rmse</text>
  <text x="610" y="250" fill="#0f172a" font-family="sans-serif" font-size="11">0.021</text>
  
  <!-- Artifacts -->
  <text x="240" y="300" fill="#0f172a" font-family="sans-serif" font-size="13" font-weight="600">Artifacts</text>
  <rect x="240" y="315" width="160" height="24" fill="#ffffff" rx="4" stroke="#e2e8f0" />
  <text x="250" y="331" fill="#334155" font-family="sans-serif" font-size="11">Download aligned.ply</text>
  
  <!-- JSON Toggle -->
  <rect x="240" y="355" width="520" height="30" fill="#f1f5f9" rx="4" />
  <text x="250" y="375" fill="#0f172a" font-family="sans-serif" font-size="12" font-weight="500">▶ TaskResult JSON</text>
</svg>
