<svg xmlns="http://www.w3.org/2000/svg" width="800" height="400" fill="none" viewBox="0 0 800 400">
  <rect width="800" height="400" fill="#f8fafc" rx="8" />
  <!-- Sidebar -->
  <rect width="200" height="400" fill="#f8fafc" rx="8" />
  <path stroke="#e2e8f0" d="M200 0v400" />
  <text x="20" y="40" fill="#0f172a" font-family="sans-serif" font-size="14" font-weight="600">PointCloud-GeoLab</text>
  <text x="20" y="60" fill="#64748b" font-family="sans-serif" font-size="10">Experimental Web Console</text>
  
  <text x="20" y="100" fill="#334155" font-family="sans-serif" font-size="12">Dashboard</text>
  <rect x="10" y="120" width="180" height="30" fill="#e2e8f0" rx="4" />
  <text x="20" y="140" fill="#0f172a" font-family="sans-serif" font-size="12" font-weight="500">Datasets</text>
  
  <!-- Topbar -->
  <path stroke="#e2e8f0" d="M200 60h600" />
  
  <!-- Header -->
  <rect x="220" y="80" width="560" height="60" fill="#ffffff" rx="8" stroke="#e2e8f0" />
  <text x="240" y="115" fill="#0f172a" font-family="sans-serif" font-size="18" font-weight="600">Datasets</text>
  
  <!-- Table Mockup -->
  <rect x="220" y="160" width="560" height="60" fill="#ffffff" rx="8" stroke="#e2e8f0" />
  <text x="240" y="185" fill="#334155" font-family="sans-serif" font-size="12">kitti_00_frame.bin</text>
  <text x="400" y="185" fill="#64748b" font-family="sans-serif" font-size="12">.bin</text>
  <text x="480" y="185" fill="#64748b" font-family="sans-serif" font-size="12">1.8 MB</text>
  <rect x="680" y="172" width="60" height="24" fill="#ef4444" rx="4" />
  <text x="692" y="188" fill="#ffffff" font-family="sans-serif" font-size="11">Delete</text>

  <!-- Viewer Mockup -->
  <rect x="220" y="240" width="560" height="140" fill="#0f172a" rx="8" />
  <text x="240" y="265" fill="#f8fafc" font-family="sans-serif" font-size="14" font-weight="500">Preview</text>
  <text x="640" y="265" fill="#94a3b8" font-family="sans-serif" font-size="11">Displaying 12048 points</text>
  <!-- Mock Point Cloud -->
  <circle cx="500" cy="300" r="1.5" fill="#5eead4" />
  <circle cx="510" cy="310" r="1.5" fill="#5eead4" />
  <circle cx="490" cy="290" r="1.5" fill="#5eead4" />
  <circle cx="520" cy="295" r="1.5" fill="#5eead4" />
  <circle cx="480" cy="315" r="1.5" fill="#5eead4" />
  <circle cx="530" cy="305" r="1.5" fill="#5eead4" />
</svg>
